<mxfile host="Electron" agent="Mozilla/5.0 (Windows NT 10.0; Win64; x64) AppleWebKit/537.36 (KHTML, like Gecko) draw.io/24.7.8 Chrome/128.0.6613.36 Electron/32.0.1 Safari/537.36" version="24.7.8">
  <diagram name="Page-1" id="Ubuo156wxUqqybgZAEo1">
    <mxGraphModel dx="1434" dy="836" grid="1" gridSize="10" guides="1" tooltips="1" connect="1" arrows="1" fold="1" page="1" pageScale="1" pageWidth="1100" pageHeight="850" math="0" shadow="0">
      <root>
        <mxCell id="0" />
        <mxCell id="1" parent="0" />
        <mxCell id="rraX06ucM7AwQiWW7n5B-5" value="" style="rounded=0;whiteSpace=wrap;html=1;strokeColor=none;" vertex="1" parent="1">
          <mxGeometry x="269" y="260" width="730" height="700" as="geometry" />
        </mxCell>
        <mxCell id="rraX06ucM7AwQiWW7n5B-6" value="" style="shape=image;verticalLabelPosition=bottom;labelBackgroundColor=default;verticalAlign=top;aspect=fixed;imageAspect=0;image=data:image/png,iVBORw0KGgoAAAANSUhEUgAAAlYAAALNCAYAAADtBC+fAAAAAXNSR0IArs4c6QAAAARnQU1BAACxjwv8YQUAAAAJcEhZcwAAEnQAABJ0Ad5mH3gAAEcBSURBVHhe7d0JvNdj2sfx+6RFi6R9UzGMlH1fSoWKyDAiQ1oYFSKTZWyjQphkX5qskcbEICoJUYShsWSdImWYspSJpFL0dP1c53E6c5b/Of/fci+f9+t1Xu7r5vGMc+qcb9d9/e5fwYaNDAAAAPJWRf8KAACAPBGsAAAAYkKwAgAAiAnBCgAAICYEKwAAgJgQrAAAAGJCsAIAAIgJwQoAACAmBCsAAICYEKwAAABiQrACAACICcEKAAAgJgQrAACAmBCsAAAAYkKwAgAAiAnBCgAAICYEKwAAgJgQrAAAAGJCsAIAAIgJwQoAACAmBCsAAICYEKwAAABiQrACAACICcEKAAAgJgQrAACAmBCsAAAAYkKwAgAAiAnBCgAAICYEKwAAgJgQrAAAAGJSsGEjXQOZev31180rr7xinn/+efP1119He7vttpvZY489TMeOHU2bNm2iPQAAbEWwQubeeOMNM27cOHPHHXfozv+qXbu2Oe6446KPHj166C4AAHYhWCFTt956qznvvPPM2rVrdad855xzjhk+fLipV6+e7gAAYAeCFTLzyCOPmF69emlVMXJEKOHq6KOP1h0AALJHsEImFi5caLbbbjutKo/uFQDAJgQrpO7HH380e+21l3nrrbd0Jz/SvRo7dqzZb7/9dAcAgGxw3QJSN2TIkNhClZB/11FHHWUef/xx3QEAIBt0rJAqefJv0KBBWsXv/vvvNyeffLJWAACki44VUlXWlQpx6Nu3b3QsCABAFghWSI2EKrkENGlnnHGGGTNmjFYAAKSHYIXUJN2tKur88883I0eO1AoAgHQQrJCKtLpVRY0YMcJMnDhRKwAAksfwOlIh1yukHawKvfDCC9G7BgEASBodKyRu0qRJmYUqcdBBB5k333xTKwAAkkOwQuJefPFFXWVnjz32MAsWLNAKAIBkEKyQOBuClTjiiCPMkiVLtAIAIH4EKyRq8eLF5u2339YqWx999FF0z9W3336rOwAAxItghUTNmjVLV3aYOXNmdDO7vK8QAIC4EayQqNmzZ+vKHk888UR0iSgAAHEjWCFR77zzjq7sIvdq3XTTTVoBABAP7rFColq0aGHtwHiVKlXMU089Zbp27ao7AADkh2CFRBUUFOjKTjvttFMUriQAAgCQL44CkZilS5fqyl7vvvuuGTZsmFYAAOSHYIXEuHJn1EMPPcQLmwEAsSBYITEudKwKXXnllebll1/WCgCAyiFYITEu3XK+fv36KFwBAJAPghUS41LHSkyfPt3ceOONWgEAUHEEK6AI6Vq9//77WgEAUDEEK6CI5cuXcyQIAKg0ghVQzIMPPmjuvfderQAAyB3BCijB9ddfb1atWqUVAAC5IVgBJZCLQ3mXIACgoghWQCkkWC1atEgrAADKR7ACSvHll1/StQIAVAjBCiiDBKtXX31VKwAAykawAspB1woAkCuCFVAOuX5h2rRpWgEAUDqCFRJTq1YtXblv4sSJugIAoHQEKySmUaNGunKfdK3mzZunFQAAJSNYITE+BStB1woAUB6CFRLjY7CSdwkCAFAaghUS41uwWrJkCV0rAECZCFZITMOGDXXlD4IVAKAsBCskZosttjCbb765Vn547bXXzKOPPqoVAACbIlghUb4dB4q///3vugIAYFMEKyTKx2A1depUs3TpUq0AAPgFwQqJ8jFYrVy50kyZMkUrAAB+QbBConwMVkK6VgAAFEewQqJ8DVbSsVqwYIFWAAD8jGCFRPkarATHgQCA4ghWSJTPwYrjQABAcQQrJMrnYDVr1izz+uuvawUAAMEKCfM5WAm6VgCAoghWSFTTpk115afnnntOVwAAGFOwYSNdA7FbtWqVqVOnjlZ+kqcDt99+e60AACGjY4VE1a5dO3pnoM/oWgEAChGskLgmTZroyk8EKwBAIYIVEhdCsJLX3AAAQLBC4nwfYF+2bBldKwBAhGCFxPnesRIEKwCAIFghcb53rATBCgAgCFZIXAgdq3fffde8+uqrWgEAQkWwQuJC6FiJV155RVcAgFARrJC4EDpW4h//+IeuAACh4uZ1JG7x4sVmm2220cpfbdq0MYsWLdIqHPL1LfyQz0GhwnXRPQDwHcEKiVuzZo2pWbOmVn6bN2+e2WWXXbTy14gRI8zs2bPNrFmzdKd0hcGqc+fOplOnTlEtawDwEcEKqahXr5755ptvtPLX7bffbk4//XSt/CNdqQEDBuQUqMpSGK769etHyALgFWaskAoG2P0QR6gSEtDGjx9vunTpEh0Ty79X9gDAdQQrpIIBdvdJCIojVBVXNGTJESMBC4DLCFZIRSgdqw8//NB89tlnWvlDAlUSoaooCVQjR478/4AFAC4iWCEVoXSsxEsvvaQrf0jgSUthwJIjwqTDHADEjWCFVITSsRJz5szRlT+yCDgSsGT2iu4VAJcQrJCKkDpWvs1ZyfxTVop2rwDABQQrpCKkjtU777yjKz/IfVVZk4Al4Ur+CgA2I1ghFc2bN9eV/9auXWsWLFiglftsmXOSUCWD7YQrADYjWCEVrVq10lUY3n77bV25z6YgQ7gCYDuCFVLRoEEDU7t2ba3858txYJbzVaUpDFcAYCOCFVKz9dZb68p/vgQrWztDhCsAtiJYITUhHQf6chT4ySef6Mo+Mvsl1zEAgE0IVkhNSMFq4cKF5vvvv9fKXbbPMslRJfdcAbAJwQqpCW2A3YfjQBeGxO+77z5uaAdgDYIVUhPSjJXw6clAm0n4S/OVOwBQFoIVUkPHyj0udKyEdKw4EgRgA4IVUkOwQpLkSNCVIAjAXwQrpCa0YPWvf/1LV25yLaTI/16eEgSQNYIVUlO9evWgXsb8+eefmxUrVmjlHhe7P3IkyCA7gCwRrJAqulZIGl0rAFkiWCFVBCt3uDqvJP+76VoByArBCqkiWCENdK0AZIVghVSFdpcVwSob0rWy8QXSAPxHsEKq6FghLVwaCiALBCukKrRgNX/+fLNhwwatkCZmrQBkgWCFVIUWrARdq+zQtQKQNoIVUiX3WMl9ViFxNVi5+lRgUXStAKSNYIXUMWeFtEiwklfdAEBaCFZIHcEKaaJjBSBNBCukLrRgtWDBAl0hCxwHAkgTwQqpC+0uq0WLFukKWWGIHUBaCFZIXWgdqy+++MKsXr1aK2TBh0F8AG4gWCF1IV65QNcqWxwHAkgLwQqpCzFY0THJHseBANJAsELqQpuxEi52rNq0aaMrPxBuAaSBYIXU1a5d2zRo0ECrMPBDPXvyNeDFzP4r/DoX/eAYGGkiWCEToR0HEqzswGWhfpLfXyNGjDAFBQVmm222MQMGDNjko0uXLv+/DySNYIVMtG7dWldhYHjdDgRcfxSGKQlM8lHeDF1hJ0v+WX4dIEkEK2TCt/md8vCN3A7ydeBYyG1FA5WEqYr+3pJ/XjpYQFIIVshEaMFq+fLl5ttvv9UKWSJYuatooMqHhCuOBZEUghUyEVqwEhX9k3XWfP0aMWflnsIjvDivzCBgIykEK2QixGDFnJUdXAu4ISs8tpPuUtxfN/n3SQcMiBvBCpmQP32Ghh/o9qBbYb/CY78kv1azZ8/WFRAfghUyUbduXVO/fn2twrBkyRJdIWvcwm6vwi5VGl8j/rCDJBCskJnQjgO/+uorXSFr/EC1U+EsVVodRfl1QPcScSNYITOhBatly5bpyg0+f30IVvYpnKVKG78WEDeCFTJDsEKW6FTYQYJNml2q4ghWiBvBCpkhWCFLBKvscRM6fESwQmYIVsgST4RlS479bLik85NPPtEVEA+CFTITWrD673//a3788Uet7Of714cuSTbk8y7zVNKtAnxEsEJmQrzLiq6VPeQHPMeB6ZLPd5bzVEAaCFbITJ06dUzDhg21CgPByi78gE+PfK55+TFCQLBCppizQpaYr0mH3KJOqEIoCFbIFMHKbsxZIV9p3aIO2IJghUwRrJAlglVyCofUbT9ubd26ta6AeBCskCmCld1C6FgxZxU/+bzKVQoufG5D+x6E5BGskKnQvqnxvkD4TkIVT/4hZAQrZCq0Kxc4CrQPASA+8rl07fd0586ddQXEg2CFTHEUiKxxA3s8JFTx5B9AsELGatWqZRo3bqyV/5ixsg8D7PmTW9RdDVXMWCFuBCtkLqRvbHSs7EOwyo/cUWXDO/8qg2NAJIFghcwRrOwVyqPozFlVjgQql++ooluFJBCskLmQvrmtWrXKrF69WivAXRKqXH+RcqdOnXQFxIdghcyF9qdGjgPtQ8eqYmSeyvVQJTgKRBIIVsgcVy7YK5TQyzsDc+fCbeq54igQSSBYIXN0rJA1Bthz41Oo6t+/v66AeBGskDmClb1C+doQrMrnU6gSzFchKQQrZG7zzTc3TZs21cp/dKzsQ7Aqm2+hStCxQlIIVrBCSF0rgpWdGGAvGaEKqBiCFawQUrBy6UXMoR3TYlM+hirBMSCSRLCCFehYIWt0rDbla6gSdKyQJIIVrBDSlQsEK9iOUAVUHsEKVqBjZaeQvi6zZ8/WVdh8DlWiX79+ugKSQbCCFQhWQPZ8D1Vy0zq3rSNpBCtYgWBlr1C+NqFfueB7qBJ0q5CGgg0b6RrIVIsWLcySJUu08tv3339vatasqZXdZP4tlNAR6rfDEEKV/AFh0aJFWgHJoWMFa4TUtfruu+90BZuE2LUKIVSJ4cOH6wpIFsEK1iBY2Smkr0towSqUUCV4GhBpIVjBGiFduUDHyk4hBauQQtW9996rKyB5BCtYI6TOyKpVq3QFm4QSrAYMGBBMqJLvK3SrkCaCFazBUaCdQvq6hGDEiBFm/PjxWvmP2SqkjWAFaxCs7NS6dWtd+c/3S0IlUI0cOVIr/8mdVXSrkDaCFaxBsELWfD4KlFAlR4AhoVuFLBCsYI2qVauali1bauU3ghXSJPNUoYUqbllHVghWsEooXStmrOzkY8dKQpU8ARgaulXICsEKVgnlygU6Vvby6Wm5UEOVzFXRrUJWCFawCh0r+4TUsfKJdN9CDFXy65V7q5AlghWsQrBC1nw4DpT/hpAu3C2KUIWsEaxgFYIVsuZDsAptUL0QA+uwAcEKVgklWLl083poR4GffPKJrtwU0qtqiqNbBRsQrGAVOlbImssdq5BDlTwFGNofAmAnghWsUqVKFdOqVSut/MXwur1cDVYhvf+vODn+k1f1ADYgWME6Ifwgp2NlLxeDVWjv/yuOO6tgE4IVrBPC00yuBSu6VvaSLlVI7/8rTkIVA+uwCcEK1qFjhay5EqxCvQC0EEeAsBHBCtYhWNmHjpV9Qg9VgiNA2IhgBeuE8EN8zZo1Zv369VrBNrYHK/nfR6jiCBB2IljBOqF0RzgOtNfs2bN1ZR8JVaFeAFqII0DYjGAF6xCs7BPaUaDNQr5WoRAXgcJmBCtYKYQf5HSs7GXrUWDIF4AWev755wn6sBrBClYK4RunS6+1ad26ta7CYGOwIlTxLkC4gWAFK3GXFbJmU4jh+O/nP2xJtwqwHcEKVuIo0C4cvWQn9FvVCzFXBVcQrGAlghWyZkOHSAJVyLeqF+JqBbiEYAUrEazsEmLHKusrFyTYhX6tguBqBbiGYAUrEawQMglVoV8AWogjQLiGYAUrtWrVylSp4vcvTzpWdsvqyUBC1S+4WgEuIljBWr5/Q6VjZTcJVmnPWRGqfsFcFVxFsIK1fL9ygWCFoiTIEap+xlwVXEawgrXoWNkj1OOYtDpWEqpCuLstV8xVwWUEK1jL9x/mLt28LkIMV2k8GUio2hRzVXAdwQrWomOFrCU9wE6o2hRzVfABwQrWomNllxC7CBJ8kjoOlH83M1W/YK4KviBYwVq+/yBft26drmCzJIKVhCq5/DPpjpgr5Pc6c1XwBcEK1mrZsqWpWrWqVv754YcfdOWGEDtWIu45q8JQlfZVDjaTUBXqry/4h2AFq/k8f+JasApVnF0l+XfJr2lC1S+Yq4JvCFawms9/inUtWLVu3VpXYZEwFEcQkn8Hg+qbYq4KPiJYwWoEK9hg5MiRuqocCVUMqm9Kfm/L1QqAbwhWsJrPwcq14fWQZ2Dy6VpJR4ZQ9b8YVoevCFawGh0re4QerO677z6tciP/NxKo8u12+Ug6VcxVwVcEK1iNYAVbSMdKwlIuCkNVHLNZvmFYHb4jWMFqBCvYojAslRWu5O/J0Z8MqecawkLCsDpCULBhI10DVqpRo4aXIUTu6HJpzkqCAk+1/Rz2ZT6oaNdFPjfjx4/n2K8M8nlbtGiRVoC/CFawXtu2bc38+fO18stPP/1kCgoKtLIbwWpTEhTkg+O+3DBXhVAQrGC9ww47zMyYMUMrv6xZsybqyLnClRAIuxCqEBJmrGA95qzs4fPXAsmQQEWoQkgIVrAewQpwkwQqLgFFaAhWsB7Byh50rJAr+bVCqEKICFawns/vqHPt9nUgV9ysjlARrGC9rbfeWlf+oWMFHzGsjpARrGC9li1b6so/zFjBN/379ydUIWgEKzjB166Va8HK52NZ5E8CFUeACB3BCk4gWAF2Y1gd+BnBCk7w9TjQteF1ZqxQGjpVwM8IVnACHSs7EKxQEobVgV8QrOAEXztWHAXCdcOHDydUAUUQrOAEgpUd6FihKAlUI0aM0AqAIFjBCRwFAnZhWB0oGcEKTmB43Q50rFCIYXWgZAQrOKFFixamShX/frnSsYKLGFYHSkewgjN8PA50MVjRtQqbdKoIVUDpCFZwho/HgQQruEQClbyyBkDpCFZwBh0rIDsSqhhWB8pHsIIzfOxYuTa8jjDxBCCQO4IVnEHHyg4cBYaHJwCB3BGs4AxmrOzQunVrXSEEPAEIVAzBCs6gYwWki9fVABVHsIIzmLGyA0eBYZBAxetqgIojWMEZzZo1M1WrVtXKD8xYwUY8AQhUHsEKTvGta8VRIGzDE4BAfghWcIpvc1Z0rGAbngAE8kOwglPoWAHJ4QlAIH8EKzjFt44Vw+uwBU8AAvEgWMEpdKzsQLjyC08AAvEhWMEpzFgB8eIJQCBeBCs4hY6VHehY+YEnAIH4EazgFGasgPjwBCAQP4IVnNKkSRNTrVo1rdy3fv16XbmFjpX7eAIQSAbBCs7xqWvlarDiRcxu4wlAIDkEKzjHpzkrV4MV3MUTgECyCFZwDh2r7HEU6CaeAASSR7CCc3zqWP3444+6cgvByj08AQikg2AF59CxAiqOJwCBdBCs4BxmrLJHx8otPAEIpIdgBefQsQJyJ50qQhWQHoIVnEPHKnt0rNzQv3//6ANAeghWcE7jxo1NjRo1tHKbyx0rwpXdpEvFXBWQPoIVnORL18rVpwIFwcpePAEIZIdgBSf5MmfFjBXiRqgCskWwgpOaN2+uK7cRrBA3Of6jmwhkh2AFJ7Vo0UJXbmPGCnHiWgUgewQrOIlglT1exGwXXqwM2IFgBSdxFJg9Olb2kEDFi5UBOxCs4CRfOlYbNmzgfYHIi4QqhtUBexCs4CRfgpVw+coFZIsnAAH7EKzgJF+OAoWrx4F0rLLHBaCAfQhWcFK1atWiG9h9wJULqAyeAATsRLCCs3gyMFt0rLLDi5UBexGs4CyeDMwe4Sp9vFgZsBvBCs6iY5U9glW6pEvFXBVgN4IVnEXHCiHhCUDADQQrOMuXjpXL1y3QsUoPnSrADQQrOIujwOzxWpt08AQg4A6CFZzFUSBCQKgC3EKwgrPoWGWPo8Bk8WJlwD0EKzirYcOGpkaNGlq5i2CFkkig4sXKgHsIVnCaD8eBHAWiOJ4ABNxFsILTfDgOpGOF4ngCEHAXwQpO8yFYcd0CimJYHXAbwQpO4ygwe4Sr+DCsDriPYAWncRSYPYJVPBhWB/xAsILTCFbwgYQqhtUBPxCs4DSOArNHxyo/8vljWB3wB8EKTqNjlT1ea5MfCVWEU8AfBCs4zYeOlctPBSI/PAEI+IdgBafVrFnT1K9fXys3ud6xIhhUDk8AAn4iWMF5rh8HMrweHp4ABPxFsILzXD8OZHg9LPL54glAwF8EKziPjhVcwhOAgN8IVnAewSpbdKxyx7A64D+CFZzHUWD2CAvlY1gdCAPBCs5zvWPFdQv+Y1gdCAfBCs7jKDB7HAeWjmF1ICwEKziPo8Dscft66RhWB8JCsILzmjZtajbbbDOt3EPHyl8MqwPhIVjBCy4fBxKs/CSBilAFhIdgBS+4fBzoQ7DCpiRQMVcFhIlgBS+43LHy4alAOla/kM8Fc1VAuAhW8AIdq2wRrH4hoYrPBxAughW8wIxV9pgn4hJQAAQreIJghaxJoOISUAAEK3iBo8DshXz8Jf/tDKsDEAQreIGOVfZCviSUYXUAhQhW8ALBKnuhzhZxCSiAoghW8EKdOnVM3bp1tXILL2F2V//+/QlVADZBsII3XO1aMWPlJglUHAECKI5gBW8QrLIVWrAiVAEoCcEK3nD1yUBfgpUI5VhM5qq4BBRASQhW8AYdK6SBS0ABlIVgBW80bdpUV27xKVh16tRJV36SQMUloADKQrCCNwhW2fO9k8NcFYDyEKzgjSZNmujKLT5dt+Dz3BFzVflZtWqVmT9/vnnppZeivy5btkz/DuAXghW8QccKSWGuquIWL15srr32WtOxY8foVn65a65t27amQ4cO0V8bNWpkCgoKor8W7l933XVm6dKl+m8A3FSwYSNdA05bsWKF2WqrrbRyxz777GNeffVVrdzXpUsXM2vWLK3cJ4GK9wDm7sknnzQPP/xw9CFdqsr43e9+Z4499lhz1FFHmWrVquku4AY6VvBGvXr1zOabb66VO1avXq0rP/g2wM5cVW7uvvvu6A8JRxxxhBk/fnylQ5V48MEHTa9evaJO1p133qm7gBsIVvCKi8eBvgUrn47MmKsq38SJE6NjvN///vdm7ty5uhuPjz/+2AwcONCce+65ugPYj2AFr7g4wP7999/ryg++BBHeA1i2Rx55xBx66KGmT58+0UB6kq6//nrTs2dP89VXX+kOYC+CFbxCxyp7Eqxk2Ntl8t/AEWDJnn32WXPkkUdGR3UzZ87U3eRNnTrVdOvWzXz77be6A9iJYAWvuNix8i1YCen2uIxQ9b+WLFlihg4darp27WqmTZumu+l66623zBVXXKEVYCeCFbziYsdqzZo15qefftLKD9LxcTVccbXC/xo3blw0R3XzzTfrTnbGjBljZsyYoRVgH4IVvOLqJaE+dq1cPA6UQMUra37x4osvRsd+gwcPNosWLdLd7F155ZVeXawLvxCs4BVXLwn1MVi5OKfEEeDPvvnmG3PBBReYgw46KLNjv7LMmTMnCleAjQhW8Iqrwcq3JwMLufRknYQqX55ozIcMiR988MHRrek2e/rpp3UF2IVgBa9wFGgfFwKLhD/XB+7z9cMPP5gLL7wwutbgjTfe0F17vfzyy+ajjz7SCrAHwQpeoWNlHwlVtr8SxvXrIfIl1ybIq4j+/Oc/644bpk+frivAHgQreKV27drRy15d43PHStg8bxX6U4AjR46MLvqUDpBrCFawEcEK3uGSUDvJUZttnSEJfKE+BShBSgKVy//9BCvYiGAF7/BaG3vJD3GbwlWoTwHKkZ8MqKd5c3pSvvjiC10BdiBYwTt0rOwm4cqGQOPSE4txkaF0GU6XIfW1a9fqrtsIVrANwQreIVjZT0KNXDiZ1dOCNs98JUVuTZculVyn4JPPP/9cV4AdCFbwDkeBbih8WjDto0H5/2vTLeJJ++CDD8xxxx0XvedPLv70DR0r2IZgBe/QsXJH4fC4BJ00juVCC1V33HFH1KX6+9//rjv+IVjBNgQreMfFjlWowapQYfdKjueSCljSGQslVC1evNj07dvXDBo0yPujspo1a+oKsAPBCt5xsWMV4lFgSWT2SgKWBKC4bkIvDFShXKvwxBNPRNcoTJgwQXf8tuOOO+oKsAPBCt6hY+U+6WBJ90oCkfy1ok/wyf+9BKoNGzZEgUrqEFxzzTXmN7/5jVm4cKHu+I9gBdsUbPzGs0HXgBfkMfLNN99cKzcMHjzYjB07ViuURo64xKxZs6K/isK9wuAV2hUK4quvvjLnnntuMF2qQltuuaVZsWKFVoAdCFbwUv369c1///tfrewn8zD33XefVkDuZs+ebYYNG+bEi5Pjtt9++5lXXnlFK8AOHAXCS64dB3IUiMqQLudhhx0WZKgSHAPCRgQreMm1AXaG11ERP/zwgznrrLPMGWecYdasWaO74dltt910BdiDYAUv0bGCr956662oS3XrrbfqTrjk6UfANgQreMm1jtV3332nK6B0f/3rX6NQJVdShK5FixamXbt2WgH2IFjBS651rL799ltdASW79NJLzUknncRN46pr1666AuxCsIKXXOtYrVy5UlfApuQur2OOOcaMGjVKdyA6dOigK8AuBCt4iY4VfDBt2rTo6G/y5Mm6g0L777+/rgC7EKzgJTpWcN3o0aPNkUceaRYsWKA7KNS+fXvmq2AtghW85OL7AglXEF9//XX0Cp8//vGPuoPiDj/8cF0B9iFYwUsuvi+Q40DMmTMnOvrjFv6y9erVS1eAfQhW8NJmm21mGjVqpJUb6FiFTV42LaFq7ty5uoOSdOvWzey7775aAfYhWMFbDLDDFSNHjjSnnHKKWbVqle6gNHSrYDuCFbzFADtst3btWnPqqaeaESNG6A7K0qxZM4IVrEewgrcIVrDZhx9+GD31d8899+gOyiOhaqutttIKsBPBCt7iKBC2mjlzZhSqnn32Wd1BLo499lhdAfYiWMFbdKxgIxlS536qipNQ1alTJ60AexGs4C06VrBN4ZD6mjVrdAe5Ovvss3UF2I1gBW/RsYItGFLPz6BBg8xBBx2kFWA3ghW8RccKNmBIPT9169Y1Q4cO1QqwH8EK3qJjhawxpJ4/OQLccccdtQLsR7CCtxo3bmwKCgq0sh/Byi8Mqedv2223ZbYKziFYwWsuda04CvQHQ+rxkCNA115NBRCs4DWXghUdK/cxpB6fjh070q2CkwhW8JpLA+x0rNzGkHq8LrnkEl0BbiFYwWt0rJAGhtTj9Yc//MF0795dK8AtBCt4jY4VksaQerzatWtHtwpOI1jBa3SskCSG1OMnoapBgwZaAe4hWMFrrl0Sunz5cl3BdkOGDGFIPWZ9+/Y1J554olaAmwhW8Jprl4R+/fXXuoLNTjjhBHPbbbdphTjIH4IuvvhirQB3EazgNTpWiNMXX3xhDjnkEDNp0iTdQVwkVO2www5aAe4iWMFrrnWsCFb2mjdvnunWrZt57rnndAdxkbu/uLMKviBYwWv169c31atX18p+HAXaacaMGaZHjx7m7bff1h3E5aCDDjI33XSTVoD7CFbwnkvHgXSs7DNhwgTTs2dPs2TJEt1BXKSjfOONN5ratWvrDuA+ghW859JxIB0ru1x//fXRk2rr1q3THcRJQtXuu++uFeAHghW8R8cKlSHD1Oeee65WiNsVV1xhevfurRXgD4IVvOdSx4pgZYfTTjvNXH311VohbieffLK59NJLtQL8QrCC9whWqIhjjjnG3HXXXVohbvvuuy/D6vAawQrec+kokBmrbHXs2NFMnjxZK8StVatWZuzYsWarrbbSHcA/BCt4j44VctG2bVszZ84crRA3efLv7rvvZlgd3iNYwXsMr6Msy5YtMw0bNjTz58/XHSThnnvuMYceeqhWgL8IVvCeSx2r7777zvzwww9aIWnvvvuuadSoEYE2YePHjzfHH3+8VoDfCFbwHu8LREmeffZZs/POO2uFpMhMVb9+/bQC/Eewgvfq1q1ratWqpZX9CFbJe+CBB0zXrl21QlKuu+46M3jwYK2AMBCsEASeDEQh+WEv9yghWVdeeaUZNmyYVkA4CFYIAk8GQvzpT38y5513nlZIihz/XXLJJVoBYSFYIQguBSs6Vsm44IILoi4KkvXSSy9x/IegEawQBK5cCNvQoUPNtddeqxWSUKdOHfPBBx+YAw44QHeAMBGsEASXOlaff/65rhAH6Z7cfPPNWiEJEqYWLlwYXbIKhI5ghSC41LH697//rSvka8CAAWbcuHFaIQl9+vQxs2fPNo0bN9YdIGwEKwTBpY4VwSoeJ554YnQxJZJz9tlnmwkTJpiqVavqDgCCFYJAxyosxx57rHnwwQe1QhJGjBhhbrrpJq0AFCJYIQguday++OILs3btWq1QUUcccYR59NFHtULc5PfS3/72NzN8+HDdAVAUwQpBcO21NnStKkde8vvkk09qhbh17tzZPPXUU6Z37966A6A4ghWCIK+0kVfbuIJgVXEdO3Y0M2fO1ApxO/3006NQteuuu+oOgJIQrBAMBtj9tc8++5g5c+ZohTgVFBREs1S33367qVGjhu4CKA3BCsFggN1P0kGZO3euVohTu3btoi6VPP0HIDcEKwSDjpV/5ELKt99+WyvE6be//a2ZPn266datm+4AyAXBCsGgY+WXbbbZxsyfP18rxKV58+bmtttuM4888ohp1aqV7gLIFcEKwaBj5Q/54b948WKtEJd+/fpFt6ifccYZugOgoghWCAYdKz80aNDALF26VCvEQWapJk6cGN1Uv9122+kugMogWCEYLnWs1qxZY7788kutUKhOnTrm66+/1gpxGDp0aNSlklcAAcgfwQrBcClYCbpWm6pWrZpZtWqVVsjXAQccYKZNm2ZuvPFG07BhQ90FkC+CFYLB7evukgte169frxXyUaVKleg9f9Kl6tGjh+4CiAvBCsGgY+Wmrbfe2qxevVor5KNr165m1qxZ0Xv+qlatqrsA4kSwQjDkKKl+/fpa2Y+rBIzZbbfdzGeffaYVKks6fldffbV5+umno1f/AEgOwQpBcalrFfrFl4cccoiZN2+eVqisnj17Rl2qCy+8UHcAJIlghaC4NGcVcrA6/vjjzXPPPacVKkO6szfccIN54oknzN577627AJJGsEJQXOpYfffdd2bhwoVaheP00083Dz/8sFaojF69ekVdqnPOOUd3AKSFYIWguDbAHlrX6tJLLzV/+ctftEJFyY30Y8eOjYLpzjvvrLsA0kSwQlBcu3IhpGAlx1ajRo3SChXVp0+fqEs1ePBg3QGQBYIVguJaxyqU4e3777/fDBs2TCtURLNmzcy9995rJkyYYLbffnvdBZAVghWCQsfKPlOnTo1e/ouKO+KII8wzzzxj+vfvrzsAskawQlBc61jJ8LoMsfvqlVdeia4DQMVddtllUSht37697gCwAcEKQXGtYyV87VotWLAgel8dKqZt27Zm8uTJZuTIkboDwCYEKwTFtY6V8DFYLV++3Oywww5aIVcnnnhidHv6b37zG90BYBuCFYJSUFDgXNfKxwH2hg0b6gq5kPf6jRkzxkycODF6dyIAexGsEBwG2LMl761D7vbZZ5+oS3XuuefqDgCbEawQHIJVdqTbsnr1aq1QHrmTSp7669Kli+4AsB3BCsFp1KiRrtwgTwW+9dZbWrlrt912M5999plWKIu85++OO+6IblGvW7eu7gJwAcEKwXEtWAm5Udtlhx56aDCXneZLPlfSpTrttNN0B4BLCFYIjovBavbs2bpyzymnnGJmzpypFcpy9tlnR6Fqjz320B0AriFYITh0rNIzfPjw6HUrKFuVKlXMLbfcYm666SbdAeAqghWC42KwWrFihXn11Ve1csNdd91lLr/8cq1QGrnP68knnzRDhgzRHQAuI1ghOC4GK/HSSy/pyn4zZsxgRigHRx55pJk+fbrp3r277gBwHcEKwXE1WL344ou6stv7779vDjvsMK1QmmHDhpkpU6aYbbbZRncA+KBgw0a6BoLw9ddfmwYNGmjljnr16pnPP//c1KhRQ3fss3LlSq4HKEf16tWjWSq5owqAf+hYIThyR9Bmm22mlTtkzsr240AJfyhd+/bto3kqQhXgL4IVgsScVfzatGljfvrpJ61Q3NFHHx2FqkMOOUR3APiIYIUgEazi1bFjR/PJJ59oheLOP/9889hjj5lWrVrpDgBfEawQpIYNG+rKLfK03T/+8Q+t7LD//vubOXPmaIWiqlatau68804zevRo3QHgO4IVguRqx0pMmjRJV9nbfffdrQt6tmjcuLGZPHmy+f3vf687AEJAsEKQXA9Wy5cv1yob8mRl27ZtvXg5dBLk0k85+jviiCN0B0AoCFYIksvBaunSpZl2rRYuXBh1qubPn687KGq//faL3o14wAEH6A4qavHixeb22283f/jDH8xJJ51kunXrZs4888zoWPX111/XfwqwE/dYIUjyTVu+Ubtqzz33NP/85z+1Ss/cuXOj28K//PJL3UFRhx9+ePTkHypu2bJl5rbbbovei1neuzEHDhwYfcjvA8A2dKwQJJc7VkL+1H7HHXdolY6nn346uiqAUFWyE088kVBVCWvXrjXXX3+92Xfffc2IESNyeuG4/Nrfa6+9zKhRo3QHsAfBCkFyPViJNIPVhAkTonkhuVkd/0teTzNx4kStkKvx48dHgercc881H3/8se7m7tJLLzU9e/Y0b7/9tu4A2SNYIUg+BCvpWl133XVaJePHH3+Mfuj17dvXrF+/XndRlATcpL8OvvnXv/5l+vTpYwYMGGDmzZunu5UzderU6Ag2l04XkAZmrBAkOc5q0qSJVu6Se5KeeeYZ07lzZ92Jj8xwXXDBBeb555/XHRQnL8bu0KGDVsjFrbfeaq688krzxRdf6E585NdqEr8XgIogWCFI8su+ShU/GrZylCLhaostttCd/N11111RqPrvf/+rOyjuq6++cvai2Sx8+umn5pxzzjGPPvqo7iTjvffeM+3atdMKSB9HgQhSQUGBNz8UX331VXPGGWdolZ/vv//eDBkyxJx22mmEqjJIMCdU5U6un+jRo0fioUrIi67ff/99rYD0EawQLB/mrAo98MADZujQoVpVjjz1J/cFySPvKB1N/ooZO3ZsNAP17rvv6k7ydt11V8IVMkOwQrB8Clbi5ptvji5UXLFihe7k5sMPPzSDBw823bt3t/Ylz7YgVFWM/HqUbuq6det0Jx3yoIU8xUq4QhYIVgiWb8FK3HjjjaZLly7RO+rKI09RyTUBBx54oBk3bpzuojSEqtxJWJejP/n1mBW5vf344483n3zyie4A6WB4HcE6/fTTzV/+8het/CMzQBKyZLi9efPmplmzZtEVDfKneDmWee211/SfRHn4Npm7adOmRcfS8uojG5x66qnRwxhAWghWCNZll11mrrjiCq2AkvEtMndyg7rce2abBx980JxwwglaAcniKBDB8vEoEPEiVOVGXksjc3o2hioh92bJuwiBNBCsECyCFcpCqMqN3BslT/3ZPKcn/xslXAFpIFghWAQrlIZQlZu5c+eaY4891onb+eXVQ//+97+1ApJDsEKwCFYoCaEqNy+88EIUqubPn687dlu9ejUvykYqCFYIFjdno6g2bdoQqnL01FNPRaFKXlPjkkmTJukKSA7BCsGiY4VCcufSokWLtEJZHnvssShUuTgMPm/ePPPKK69oBSSDYIVgVatWzdSrV08rhOr888+P7l5C+f72t79FoUreKemqKVOm6ApIBsEKQaNrFbZ7773XjB49WiuURd5H+bvf/c7541LXji/hHoIVgkawCteMGTNM//79tUJZJICefPLJWrnts88+0xWQDIIVgkawCk/t2rXNG2+8Ybp166Y7KItcU3DKKadoBaA8BCsEjWAVlr333tt88MEHZvfdd9cdlOX22283gwYN0gpALghWCBrBKhwnnnhidPfS1ltvrTsoy0033WTOPPNMrfxRt25dXQHJIFghaASrMAwdOjS6HHLzzTfXHZRlzJgx5pxzztHKL/vuu6+ugGQQrBA0gpX/rrjiCnPjjTdqhfJcc8010RUUvtprr710BSSDYIWgEaz8NnbsWHPppZdqhfJICL3ooou08tOuu+6qKyAZBCsEjWDlp1atWplHHnnEDB48WHdQnssvv9xcdtllWvlpp512Mk2aNNEKSAbBCkEjWPmna9euZvr06ea3v/2t7qA8V111lRk+fLhW/uJpUKSBYIWgEaz8MmTIkChUtWvXTndQnj//+c/mkksu0cpvDK4jDQUbeJ07AiePX69cuVIruGizzTaLBtQlWCF31113nTnvvPO08ttWW21l3n//fdO0aVPdAZJBxwrBo2vltvbt20ddKkJVxUgQDSVUCXl5NKEKaSBYIXgEK3fJHJWEKpmrQu5uvfVW84c//EGrMEiwAtJAsELwCFZukmsB5Mk/blKvGLmC4qyzztIqDHJ31WGHHaYVkCyCFYJHsHJLvXr1zPjx46Mn2VAxd955pznjjDO0CgdPiCJNBCsEj2Dljv322y86+uvXr5/uIFf33HOPGThwoFbhkAcbOAZEmghWCB7Byg0SpiRUSbhCxdx///3m1FNP1SosEqp+/etfawUkj2CF4DVs2FBXsJUc+8nxnxwDomLk5dMhd/h69+6tKyAdBCsEj46VvaTT8Oijj3r//rqkTJo0yfTp00er8MiFoMxXIW0EKwSPYGWnE044wTz99NPmmGOO0R1UhDwxKZ/DkJ100km6AtJDsELwCFZ2qVKlihk9erR58MEHTevWrXUXFTF58mTTq1cvrcLUsmXLoLt1yA7BCsEjWNlD7ht65plnzPnnn687qKipU6fS5dtIQpW8xgZIG+8KBDaqVauWWb16tVbIglwFIC8EZkC98uSpyR49emgVroKCAvP222+bnXbaSXeA9NCxAjaia5UdCVLjxo2LPghVlSedPkLVz6RbRahCVghWwEYEq2wcfPDBUSAI8eLKOD333HOmW7duWoGhdWSJYAVsRLBKn8xRSaiSuSpU3pw5c8whhxyiFSSsd+/eXSsgfQQrYCOCVXrkST954k+e/JMnAFF5b775punYsaNWEHSrkDW+qwEbEazSIU+ryd1Uod+vFIcFCxaYPfbYQyuIvffe25xyyilaAdkgWAEbEaySd/HFF0e3qPPetvz95z//MTvssINWKDR48GBdAdkhWAEbEaySU79+fXPfffeZUaNG6Q7ysWLFiujyS2xq//33p1sFKxCsgI0IVsk44IADoruV+vbtqzvIx7p167j0shR0q2ALghWwEcEqftI9kFC1zz776A7yVb16dV2hKBngJ7zDFgQrYCOCVbwuv/xyc/fdd5u6devqDvJVp04dXaE4ulWwCa+0ATb65ptvuPU7JnKNAu/6i1eTJk3Ml19+qRWK6tKlS3RBKmALOlbARltuuSXHLDH4y1/+QqiK2bbbbkuoKgPdKtiGjhWg5EkreYwdlTN79mxz0EEHaYU4yPvu3nvvPa1QXNeuXaN70QCb0LECFHNWlScdFUJVvPbdd19CVTnoVsFGBCtANWzYUFeoCGl6E0rjJe+7e+2117RCSXr06GF++9vfagXYg2AFqMaNG+sKuWKSIH49e/Y0zz//vFYozaBBg3QF2IVgBSg6VhVDqIqfvENx6tSpWqE0vXv3NkcddZRWgF0IVoDiOCt3hKr4nXrqqWbSpElaoTTy9O55552nFWAfghWgCFa5IVTF7+yzzzb33HOPViiLXOex1157aQXYh2AFKIJV+T766CNdIS4XXnihueWWW7RCWdq1a0e3CtYjWAGKYFW2Rx991PzqV7/SCnG44oorzJ///GetUB4JVbwhAbYjWAGKYFW6ESNGmGOOOUYrxOH66683l112mVYojzwtOWDAAK0Ae3HzOqCWL1/Ok4ElkEAl3SrEZ9y4cVxuWUHc7A9X0LECVIMGDUyVKvyWKKpVq1bm2muv1QpxeOCBBwhVFXTOOecQquAMfooARXAcuKmLLrqIuaoYPfbYY+bkk0/WCrlo06YNA+twCsEKKIJg9QuZaaGzEh95WTCvYKk4CVUtWrTQCrAfwQoogmD1MzkSlWsAEI85c+aY7t27a4Vc9erVy5x55plaAW4gWAFFEKx+JkeABxxwgFbIx+uvv246duyoFXIlXaorr7xSK8AdBCugCIKVMbvvvjvdqpi8//773BJeSXLH1w477KAV4A6CFVAEwern16vUqVNHK1TWokWLTPv27bVCRZx22mncWQVnEayAIkIPVoceeqjp37+/Vqiszz//3Gy77bZaoSIkjEq3CnAVwQooIvRgJd0q5Oebb74xzZo10woVJXNVTZo00QpwD8EKKCLkYNW7d+/oigVU3g8//MC77PJw/vnnm6OPPlorwE0EK6CIkIPVWWedpStUVo0aNXSFiurQoQNPAcILBCugiFCDlcxVHXjggVqhMmrWrKkrVJTcmyZzVdWrV9cdwF0EK6CIUF/CLMeAqLz69eubNWvWaIWKkk5V586dtQLcVrBhI10D2EjC1fLly7Xyn1wE+tJLL2mFipKLLJcsWaIVKurII480U6ZM0QpwHx0roJjQjgOPP/54XaGitttuO0JVHuTpv1GjRmkF+IFgBRQTUrBq0KABx4CVtPPOO5uFCxdqhcoYPXq02WWXXbQC/ECwAooJKVhJqGratKlWyNU+++xj3n33Xa1QGcOGDTN9+/bVCvAHwQooJqRgddhhh+kKuerUqZOZO3euVqiMgw8+OOpWAT4iWAHFhBKspFPFhaAVI0H0hRde0AqVIcfP1157rdlss810B/ALwQooJpRgJe8FRO6OOeYYM2PGDK1QWRKq9thjD60A/xCsgGJCCVZHHXWUrlCeE0880UyePFkrVJa8i3LAgAFaAX4iWAHFhBCsqlWrZo477jitUJZTTz3VPPjgg1qhsmQ2TbpVgO8IVkAxIQSrbt266QplGTJkiLnnnnu0QmXJi6llWJ1X1iAEBCugmBCC1U477aQrlOb88883t912m1bIh4QquaICCAHBCigmhGAll1uidJdddpkZM2aMVsjHmWeeaU477TStAP8RrIBiZP5Iji58RseqdFdccUX0gfwdeOCB3FeF4BCsgBL43rUiWJXs6quvjrpVyF+dOnWiYfVatWrpDhAGghVQAp+DVbt27bicsQQSAi6++GKtkK+bb77Z7L///loB4SBYASXwOVhts802ukKhG264wVxwwQVaIV8jRozgvioEi2AFlMDnYNW4cWNdQUhnRV4IjHjIvV/Dhw/XCggPwQooAcEqDLfffrsZOnSoVshX165do88pEDKCFVACgpX/7rjjjugqAMSjbdu2ZuzYsVwCiuARrIAS+BysmjRpoqtwyW3qgwYN0gr5ql27dtSp+tWvfqU7QLgIVkAJGjZsqCv/hN6xuv/++6M5IMRHQlWXLl20AsJGsAJK4HPHSi5ADdXEiRNNv379tEIcrrzyStO3b1+tABCsgBL4HKxCNWnSJNOnTx+tEIeBAweaSy65RCsAgmAFlIBg5ZdHHnnEnHDCCVohDocffng0rA5gUwQroAQ1a9aMXskB9z3++OOmV69eWiEO7du3j+aqqlThRwhQHL8rgFLQtXLf1KlTzdFHH60V4lC3bt2oU9WmTRvdAVAUwQooBcHKbU899ZTp2bOnVoiLdKo6duyoFYDiCFZAKXwNVosWLdKVv5599tloBgjxuvrqq81JJ52kFYCSEKyAUhCs3DRr1qzo1SqI11lnnWUuvPBCrQCUhmAFlIJg5R6ZqeKiyvgdd9xx0cuqAZSPYAWUwtdXv3z88ce68otc/slMVfw6dOhgxo0bpxWA8hCsgFI0a9ZMV37xsWMlA9Vc/hk/efefvKx6q6220h0A5SFYAaXwNVgtXbrUrFy5Uiv3XXPNNebMM8/UCnGRFytLqNpxxx11B0AuCFZAKXwNVmLu3Lm6cttFF10UfSB+cvx38MEHawUgVwQroBQ+B6vXXntNV+6SLpV0qxC/MWPGcK0CUEkEK6AUW265palVq5ZWfnG9YyXzVDJXhfide+650QeAyiFYAWXwtWvlcrA66qijoicAET/pUkm3CkDlEayAMvgarD799FPz7rvvauWOTp06mSlTpmiFOMk8FdcqAPkjWAFl8HnO6plnntGVG3bbbTfzwgsvaIU4tWvXLnoCUJ4EBJAfghVQBp+D1RNPPKEr+2277bZm3rx5WiFOckeVdKrkzioA+SNYAWXwOVjJO/VceDqwQYMGQbw4OivSqZLb1QHEg2AFlMHnYCVs7lqtWbPGVKtWzXz99de6g7jJ+/969eqlFYA4EKyAMvgerB5//HFd2eVf//qXqVmzplm/fr3uIG4XX3yxOeuss7QCEBeCFVAG34OVPBk4bdo0rewwffp0XqOSsNNOO82MGjVKKwBxIlgBZfA9WAmb7oQaO3as6dGjh1ZIwtFHHx3NVQFIRsGGjXQNoATVq1c369at08pPb775ZnSdQZb++Mc/mtGjR2uFJBx44IHmxRdfNAUFBboDIG50rIByNG/eXFf+yrJrtXbtWtO7d29CVcJ+/etfm7///e+EKiBhBCugHKEcBy5btkyr9Hz44YemY8eO5qGHHtIdJEHuqnr44YdN06ZNdQdAUghWQDlCCFZLly41DzzwgFbpmDlzZnQ05foLoV0wadIks8suu2gFIEkEK6AcIQQrcf/995vVq1drlax7773XHHrooearr77SHSRFAnPXrl21ApA0ghVQjlCClQywjxkzRqvkjBw50pxyyilaIUnXXXedOemkk7QCkAaCFVCOUIKVuPbaa80777yjVbzkFTpdunQxI0aM0B0kSZ6yHDZsmFYA0kKwAsoRUrBauXJlIl0r6VJJqJJwheT179/fXHPNNVoBSBPBCihHSMFKyKzV5MmTtcoPXar0HX744dEMG4BsEKyAcoQWrIQcCeaLLlX69txzT/Pkk09qBSAL3LwO5KBKlSomtN8qxx13XKXul5IgJaGKQJWuli1bmk8//VQrAFkhWAE5aNGihVmyZIlW4ZBwdcMNN0T//eWRIHXfffeZ8ePH6w7SIq9dkhvsAWSPYAXkYK+99jKvv/66VmFp27atufrqq03nzp1NvXr1dPdnixcvji76nDp1amxzWag4eZdl1apVtQKQJYIVkIOePXtG4SF08qLmwnC1fPnyxK5mQO6++OIL07hxY60AZI1gBeRg4MCB5s4779QKsMMHH3wQdRQB2IOnAoEchPhkIOz28ssvE6oACxGsgBwQrGATOZbef//9tQJgE4IVkAOCFWwxYcIEc8QRR2gFwDYEKyAHBCvY4KabbjJ9+vTRCoCNCFZADghWyJq8Fujss8/WCoCteCoQyMH69etNtWrVtALSJYFKulUA7EfHCsiBXL7YqFEjrYD0yNEfoQpwB8EKyBHHgUibDKnLsDoAdxCsgBwRrJAmuU6B2/4B9xCsgBwRrJAWufhTLgAF4B6CFZAjghXSIO/9k1fVAHATwQrIUatWrXQFJEMekpCXKgNwF8EKyBHBCklbt26drgC4imAF5Kh169a6AuLHlYKAH7ggFMjRd999Z7bYYgutgPjwbRjwBx0rIEd16tQxDRo00AqIB6EK8AvBCqgAjgMRJ0IV4B+CFVABDLAjLoQqwE8EK6AC6FghDoQqwF8EK6ACCFbIF6EK8BvBCqgAghXyQagC/EewAiqAGStUFqEKCAPBCqgAOlaoDEIVEA4uCAUqqHbt2ub777/XCigb32KBsNCxAiqIrhVyRagCwkOwAiqIOSvkglAFhIlgBVQQHSuUpaCggFAFBIxgBVQQwQqlqV69uvnpp5+0AhAighVQQQQrlKRWrVpm7dq1WgEIFcEKqCCCFYrbcsstzapVq7QCEDKCFVBBDK+jqAYNGpgVK1ZoBSB03GMFVEKVKlUYUIZp2rSpWbp0qVYAQMcKqBSOA9GyZUtCFYD/QbACKoFgFbZtttnGfPrpp1oBwC8IVkAlEKzCtf3225uPP/5YKwDYFMEKqAQG2MPUrl07s2DBAq0A4H8RrIBKoGMVnl122cW89957WgFAyQhWQCUQrMKy5557mnnz5mkFAKUjWAGVQLAKx7777mv++c9/agUAZeMeK6AS1qxZY2rWrKkVfNWhQwfz4osvagUA5aNjBVTC5ptvbpo3b64VfHTwwQcTqgBUGMEKqKRf/epXuoJvjj76aDNz5kytACB3BCugkghWfurbt6957LHHtAKAiiFYAZW07bbb6gq+GDJkiLnvvvu0AoCKI1gBlUTHyi8XX3yxueWWW7QCgMohWAGVRLDyxzXXXGNGjRqlFQBUHtctAJW0bNky06hRI63gqttvv92cfvrpWgFAfghWQB7q1atnvvnmG63gmgceeMCcdNJJWgFA/jgKBPLAALu7nnjiCUIVgNgRrIA8MGflplmzZpmePXtqBQDxIVgBeSBYueeNN94wnTp10goA4kWwAvKw66676gou+Oijj8zuu++uFQDEj2AF5GHPPffUFWz35Zdf0mEEkDieCgTyVLduXbNy5UqtYKM1a9aYGjVqaAUAyaFjBeSJrpW9WrdubeTPjoQqAGkhWAF5IljZqWPHjmbx4sVaAUA6CFZAnghW9unTp4954YUXtAKA9BCsgDwRrOxyySWXmAkTJmgFAOlieB2IAQPsdhg3bpwZOHCgVgCQPjpWQAzoWmXvr3/9K6EKQOYIVkAMDj/8cF0hC1OmTDG/+93vtAKA7BCsgBh07dpVV0hTtWrVovf+HXnkkboDANlixgqIScuWLc1//vMfrZC07bbbzjz00EO8ogaAVehYATHhODA9BxxwgJk+fTqhCoB1CFZATORCSiSve/fu5tFHH406VgBgG4IVEJMOHTroCknp1atXFKqaNGmiOwBgF4IVEJNtt93W7LffflohbkOGDDEPP/ywqVWrlu4AgH0IVkCMeDowGVdddZW55ZZbtAIAexGsgBh169ZNV4hD9erVzb333msuuugi3QEAu3HdAhCzXXbZxbzzzjtaobLatGkTvaKGsArAJXSsgJgRBPK3//77myeeeILPJQDnEKyAmBEG8nPsscdGr6jZeeeddQcA3MFRIJCAvfbay7z++utaIVfy5B9D6gBcRscKSMDAgQN1hVzx5B8AH9CxAhJC1yo38uSfDKn3799fdwDAXXSsgITQtSqfPPkn81SEKgC+oGMFJIiuVekOPvhgc+ONNzKkDsArdKyABI0YMUJXKOrMM880Tz31FKEKgHcIVkCCjjzySHPhhRdqhWrVqplbb701+pA1APiGo0AgYevXrzeHHHKIeeGFF3QnTHIj/Q033BAdAQKAr+hYAQmrWrWqGTNmjGnUqJHuhKd3797R0R+hCoDvCFZACvbee2/z0EMPaRUWmTP729/+Zpo1a6Y7AOAvjgKBFM2aNct06dJFK781b97cXH/99VG3CgBCQbACUvb++++b9u3ba+UnOfKTeSqZqwKAkHAUCKSsXbt25r333vM2XBVepUCoAhAighWQAQlXMnN1wgkn6I77ZDj/zjvv5CoFAEHjKBDImAx2jx492rz55pu64x65r2vUqFF0qQAEj2AFWOD777831157bRSwZO2Syy+/3PzpT3/SCgDCRrACLCJdKwlX0sWy3Z577hl1qbp37647AACCFWAhCVZyqaitL3A+/fTTzVVXXWXq1aunOwAAQbACLHbPPfeYu+++27z88su6ky25m0oCVb9+/XQHAFAUwQpwwAMPPBAFLLlgNCvHHHNMdPS344476g4AoDiCFeCQhx9+2Nx1113m6aef1p3kde7cObqbqlevXroDACgNwQpw0OOPPx4FrCeffNL89NNPuhuvPfbYwwwZMsQMGDBAdwAA5SFYAQ5btGiRmTFjxv9/rF69Wv9O5W2//fZRh0pC1Wabbaa7AIBcEKwAT8j9V1OmTIk+pk2bZlasWKF/JzctW7Y0gwYNikLVVlttpbsAgIogWAGekkF3ua6h8GPBggX6dza1++67m1NOOSX6qFWrlu4CACqDYAUEYt26dWbZsmVm+fLl0V/l6oRmzZqZLbbYQv8JAEC+CFYAAAAxqaJ/BQAAQJ4IVgAAADEhWAEAAMSEYAUAABATghUAAEBMCFYAAAAxIVgBAADEhGAFAAAQE4IVAABATAhWAAAAMSFYAQAAxIRgBQAAEBOCFQAAQEwIVgAAADEhWAEAAMSEYAUAABATghUAAEBMCFYAAAAxIVgBAADEhGAFAAAQE4IVAABATAhWAAAAMSFYAQAAxIRgBQAAEBOCFQAAQEwIVgAAADEhWAEAAMSEYAUAABATghUAAEBMCFYAAAAxIVgBAADEhGAFAAAQE4IVAABATAhWAAAAMSFYAQAAxIRgBQAAEBOCFQAAQEwIVgAAADEhWAEAAMSEYAUAABATghUAAEAsjPk/4asLHWYsIU0AAAAASUVORK5CYII=;" vertex="1" parent="1">
          <mxGeometry x="350" y="286.81" width="252.87" height="303.19" as="geometry" />
        </mxCell>
        <mxCell id="rraX06ucM7AwQiWW7n5B-7" value="" style="shape=image;verticalLabelPosition=bottom;labelBackgroundColor=default;verticalAlign=top;aspect=fixed;imageAspect=0;image=data:image/png,iVBORw0KGgoAAAANSUhEUgAAAqsAAAL1CAYAAADgn612AAAAAXNSR0IArs4c6QAAAARnQU1BAACxjwv8YQUAAAAJcEhZcwAAEnQAABJ0Ad5mH3gAAFy7SURBVHhe7d0L/Nfj/f/xK1GIpcgh6luhNUURM8a/sjCnObPJOjhsxPhlK4zfqs1vRuZ8mIlO04a2YnLIocIoK2pTSMk3lU4q0jn8vd693vqW6nt6v6/rel/X4367vW+f63p/vpFv+X6f39f7dV1XjS+/YgAAAAAPbaOvAAAAgHcIqwAAAPAWYRUAAADeIqwCAADAW4RVAAAAeIuwCgAAAG8RVgEAAOAtwioAAAC8RVgFAACAtwirAAAA8BZhFQAAAN4irAIAAMBbhFUAAAB4i7AKAAAAbxFWAQAA4C3CKgAAALxFWAUAAIC3CKsAAADwFmEVAAAA3iKsAgAAwFuEVQAAAHiLsAoAAABvEVYBAADgLcIqAAAAvEVYBQAAgLcIqwAAAPAWYRUAAADeqvHlV3QMAIAVy5cvN6+88oqZNWvWRletWrXKvWrXrm122203s++++359bbfddvpPBhAawioAwIoJEyaYMWPGmNGjR5unnnpK72ajcePGG4XXslfdunX1owAUEWEVAJCrZ5991gwePNgMHTpU79iVVmFbt25t2rZt+/UFoBgIqwCA3Fx11VXmtttu05lfygZXAizgL8IqACAXP/7xj80jjzyis2IgwAL+IawCAHIhj97ff/99nRXXD3/4Q3P88ceb4447zhxwwAF6F4AthFUAQC5q1Kiho3CUlJQk4bVjx47m6KOPNnvssYe+AyAvhFUAQC523313s3DhQp2FqV27duaYY45Jgqtc2267rb4DICuEVQBALlq1amWmTJmis/BJOJfgetRRRyXB9aCDDtJ3AFQHYRUAkIsOHTok+6rG6ogjjjAnn3xychFcgaojrAIActG/f39z8cUX6yxuxx577NfBtVmzZnoXQEUQVgEAuZg9e7Zp1KiRziCkpzUNrXKxQAsoH2EVAJCbU045xTz55JM6Q1lyDGwaWuXzVKdOHX0HQFmEVQBAbv785z+bn//85zrDluy9994bVVwBbEBYBQDk6tBDDzUTJ07UGcoji7HOO+8806lTJ7PPPvvoXSBehFUAQK6orlZN/fr1k8Aq1+GHH653gfgQVgEAuaO6Wj2nn356ElrPPPNMvQPEg7AKAMjdiBEjksCF6jnssMO+rrbutttuehcIG2EVAGBFjx49zO23364zVEfDhg2/Dq2tW7fWu0CYCKsAACuWLl2anGo1adIkvYMs/OQnP0lC60knnaR3gLAQVgEA1tAOkJ/OnTubX/7ylxztiuDU7PMVHQMAkKsWLVqY7bff3rzwwgt6B1mZPHmyGTJkiFm9erVp27atqV27tr4DFBuVVQCAdYMHDzY9e/Y0CxYs0DvIUsuWLZMqa7du3fQOUFyEVQCAEzNnzjR33HFHciEf0scqoVV6hYGiIqwCAJyaPn26efrpp5Nr7NixZsWKFfoOsiKB9Q9/+IPZdttt9Q5QHIRVAIA3JKj+61//Mq+++qpZuXKlWbVq1WZflyxZYubMmWPmzZunvxLlad++fRJYOQ0LRUNYBQAU1hdffJGE1rlz5yaXjD/88EPzzjvvJNe0adP0IyF23nnnJLB2795d7wD+I6wCAIIlYTYNrnK9++675j//+U/0e71ecMEFSWht0KCB3gH8RVgFAERHDiiQdoOXXnopucaNG6fvxENOvpLA+sMf/lDvAH4irAIAoie9r9InK5eE2JjC6w033GCuu+46nQH+IawCALAJaRkYM2ZMsjuBvIa+kOvMM880999/v9l11131DuAPwioAAFshOxCkwfXFF180r7/+ur4TFtkloH///qZVq1Z6B/ADYRUAgEp4+eWXzZNPPmn++c9/mrffflvvhmHvvfc2AwYMMMcee6zeAdwjrAIAUEVykIGEVgmvsmVWKAYNGmQ6d+6sM8AtwioAANUkhxlIYE0rrrLbQNHJTgFXX321zgB3CKsAAGRowYIFX1db5fXzzz/Xd4rnyiuvNLfffrvOADcIqwAA5GTGjBlm5MiRyTVq1Ci9WyznnHOOeeSRR3QG2EdYBQDAgqlTp5qnnnoqCa6yu0CRtG/f3owePVpngF2EVQAALJs8eXISWiW8yiEERUBghSuEVQAAHPr3v/+dhNbBgweb999/X+/6icAKFwirAAB4YNmyZUlgHTJkiBk/frze9Q+BFbYRVgEA8Myjjz6ahFbZUcBHBFbYRFgFAMBTsm1U3759vdy3lcAKWwirAAB4bNKkSUlgHTFihN7xB4EVNhBWAQAoAF+rrARW5I2wCgBAQUiVtXv37ua1117TO3445ZRTzBNPPKEzIFvb6CsAAPBcmzZtkirm6aefrnf8IMfK9ujRQ2dAtgirAAAUSO3atc0//vEPc+mll+odP0ibwt13360zIDu0AQAAUFAPPfSQufDCC3Xmh7/+9a/mxz/+sc6A6iOsAgBQYDNnzjTNmjXTmR+kf1X6WIEsEFYBAAhAjRo1dOSHF154wRxzzDE6A6qOnlUAAALgW+3pjDPO8PrYWBQHYRUA4IUPPvggqQ42bdrUdOjQwQwcOFDfQUX5FFg/+eQT07lzZzNlyhS9A1QNYRUA4IU0nEpoHTNmjOnWrVsSWmWMivMpsE6bNs386le/0hlQNYRVAIAXxo4dq6MNJKhSZa08nwLrM888Y37961/rDKg8FlgBALxQ3gKh3r17mz59+ugMFeHToqvHHnvMnHXWWToDKo7KKgDAOXn0Xx45F5+wWjmlpaU6cu/qq68277//vs6AiiOsAgCcq0hYFRJYK/qxMKZx48bm5Zdf1plbElQlsAKVRVgFADhXmQAqPawE1oo76qijzMMPP6wzt4YNG2ZuvPFGnQEVQ1gFADhXmfApH8uCq8o577zzvAmJstjq2Wef1RlQPsIqAKBwpB2ALa0q55prrjGXXnqpzty69tprzYoVK3QGbB1hFQDgXFUWAsk+rLQDVM69995rjj/+eJ258+abb5qbbrpJZ8DWEVYBAM5VJXTSDlA1t956q9lnn3105o6E1QkTJugM2DLCKgDAuapWSAcNGkR1tZIOOOCAJLC6tnr1aqqrqBDCKgCgsKiuVs3ZZ5/txZ61sjvA4MGDdQZsHidYAQCcq85JS02aNDGjR49OXlE555xzTnKylEtS6X3llVdMvXr19A6wMSqrAIBCk+oqOwNUjbQDtGzZUmduTJ06lXYAbBVhFQDgVBY9p9K7isqThVZ//OMfdeaOhNWJEyfqDNgYYRUAUHhSWWWhVdXIVlY+9K/++c9/1hGwMcIqACAILLSqut69e5v27dvrzA0Jq1RXsTmEVQCAU1lVROVUK6qrVSeB1bUhQ4boCNiAsAoACAYLrapOKquu2wFeeOEFHQEbEFYBAMEYO3asjlAVrtsB3nrrLarj+AbCKgDAqSzDifStEnaqx3U7gOy5CpRFWAUABIVWgOpx3Q4wfvx4HQHrEVYBAEGhFaD6Lr30UtO4cWOd2TVu3DgdAesRVgEAQaEVoPp23333JLC6MGHCBLNu3TqdAYRVAIBjeQRLwmr1SVht3ry5zuyiFQBlEVYBAMGhb7X66tat66y6SisAyiKsAgCCQ99qNiSsHnjggTqzh7CKsgirAIDgSGWVVoDqq127tpPqKm0AKIuwCgAIEq0A2ZCwevDBB+vMjg8//NDMmTNHZ4gdYRUAECRaAbJz4YUX6sgeWgGQIqwCAIJEG0B2LrjgAtOiRQud2UErAFKEVQBAkOhbzc4OO+xgvbpKZRUpwioAIFj0rWZHqqslJSU6yx9hFSnCKgDAqdLSUh1lj77V7NSvX99qdXXt2rVm4sSJOkPMCKuOffLJJ+a+++4z55xzjqlRo4Zp2rSp6dChg7nlllvMG2+8oR8FAKgK2gCydd5555lttrEXHehbhSCsOnT77bebgw46yHTv3t089thjyT35wiqPrXr27Gnatm1r9t133+Qn2WeeeSZ5HwBQcfStZku+J5188sk6yx+tABCEVUf69u1revToYWbNmqV3Nu/99983Dz30kDnhhBNMly5dqLYCAJwirMI2wqoDUkXt06ePzipu8ODB5ogjjkiqrrNnz9a7AICtYZFVtk466SSz00476Sxf7733nlm8eLHOECvCqgPXXHONjipvzZo1ST9rx44dzSuvvKJ3AQBbwiKrbDVs2DAJrLZQXQVh1bJRo0Ylj/ar69133zWnnnoqFQMAKAc9q9mjFQA2EVYte/HFF3VUffJoRHYOILACwJbxNTJ73/3ud3WUP3YEAGHVsiyqqpsisALA1lFdzVbz5s3NXnvtpbN8UVkFYdWyPMKqkMD68ccf6wwAUBY/0GfvgAMO0FG+Pv3002RPcsSLsGpZXmFVHHrooToCAJTFIqvs2QqrgmJM3Airli1ZskRH2ZPHXL169dIZACBFG0D22rRpo6P8LVq0SEeIEWE1MP369TMDBgzQGQBAEFazd/DBB+sof4TVuBFWA3TBBRfwyAtAYdgIkvLvILBmy2ZYpQ0gboTVQF111VVm3bp1OgMAIHuNGjXSUb6orMaNsBqoN954w9x11106AwCwI0D2bIVVKqtxI6xatssuu+gofxJWFy5cqDMAALLVuHFjHeWLymrcCKuWNWnSREf5mzlzprn77rt1BgBxo5c/e7QBwAbCqmU2w6qQ6uq0adN0BgD+sbXwiQVW2aMNADYQVi2zHVZlX1eqqwBAWM0DlVXYQFi1rKSkREf2SHV1+vTpOgMAv9isrBJYs0VlFTYQVi2zXVlNPf300zoCACAbVFZhA2HVspYtW+rILsIqANAKkLXdd9/d1KxZU2f5Wbt2rVm9erXOEBvCqmX777+/1e2rUhJWaQUA4Bvb4ZGwmr06deroKF8rVqzQEWJDWHXgsMMO05Fd//rXv3QEAHEirGbPVlhduXKljhAbwqoDrsKqnGoFAD6xHR5LS0t1hKzsuOOOOsoXYTVehFUHCKsA4AaV1ezRBoC8EVYdIKwCwHr0rBYfbQDIG2HVgb333tvsueeeOrNHfiqdOHGizgDAPcJq8VFZRd4Iq44cfPDBOrKLsAogdgTWbFFZRd4Iq460adNGR3ZNnjxZRwDgHgueio/KKvJGWHXEVWX1rbfe0hEAuOeiykllNVvsBoC8EVYdcVVZJawC8MmYMWN0ZA9hNVu0ASBvhFVH5CQrW/+Dl7V48WLz0Ucf6QwAgOqhDQB5I6w6RCtAOD799NOkQpRec+bM0XcAbImrCufYsWN1hCzUqlVLR/mishovwqpDtAIUm1Sp+/bta44//nhTt25d06FDh6+vffbZx+y3336me/fu5t1339VfAaAsHsejMqisxouw6hCV1eK66667zOGHH2769OljRo0apXc3NmPGDHPfffeZI444Igm1ADbmol9VEJKLicpqvAirDrmqrE6ZMkVHqIpzzjnHXHHFFWb69Ol6Z+uWLFmShFqpuALYgMfxqAwqq/EirDpEG0DxSFB97LHHdFY5UkWqUaOGzgBQWUVlUFmNF2HVoW222ca0bt1aZ/YsX77czJw5U2eoqNdee63KQbWsTp066QiIl8vASFgtJiqr8SKsOkYrQHH87W9/01H1DB061Fx//fU6A+I0cOBAHQEVQ2U1XoRVx1hkVQzLli3LLKyK//u//zMjR47UGRAf18esUl0tHiqr8SKsOkbfajFMnDjRLFiwQGfZkMC6bt06nQHxkKBIZRWVRWU1XoRVxwirxSBhNWvSAyuBFYiND0GVymrxEFbjRVh1TDaTb9asmc7soWe1cvIIq0L6V1evXq0zIA6DBg3SEVBxtAHEi7DqARfVVXn8/M477+gM5ckrrE6bNi0JrEAspKLpQ1WTymrxUFmNF2HVAyyy8ptUPiVU5oWwiph069ZNR0DlUFmNF2HVA2xf5bfZs2frKB/PP/+8mTBhgs6AcMlJbq4OAtgUldXiobIaL8KqB1q0aKEju9577z0dYWs+/PBDHeXnueee0xEQJllU1bdvX50BlUdlNV6EVQ/st99+OrKLsFoxeVdWBWEVIZOKqm+P/13v84rK++KLL8zatWt1hpgQVj3hIrASVivGRlgdPXp0rn2xgAtSTe3QoQMV1cB9+eWXOsofu6fEibDqif33319H9ixZssQsWrRIZ9gSG20A4uWXX9YRUCzShyrBNK2gytW0adPk1ZceVeSHsIq8EVY9QSuAv2xUVoUcEgAUhYRTCaM1atRIqqcylgqq3JfL9wVMLLDKjjyet2XNmjU6QkwIq55wUVkV06dP1xG2JOtjVrdk3LhxOgL8JFXSNKDKq4RSgMoq8kZY9QSVVX998sknOsqXbCU2Y8YMnQH+kFAq1VO5CKjYFGEVeSOsesJVZZWwWr6lS5fqKH/0rcInEkxD7T2lDSA7NtsACKtxIqx6gsqqv2xVVsUrr7yiI8CdsiGVUIfyUFlF3girHmH7Kv/Inn42N6KmbxUuSfU0XSxFSEVF2QyrLLCKE2HVIy5aAT799FMzf/58nWFTNlsAhPSt2lrQBaQkmKY9qbFsNUUYzw5tAMgbYdUjrloB2BFgy2y2AKRoBYBNsjeqPPJnP1RUFW0AyBth1SMssvKPi7A6ceJEHQH5SR/5c7oUqouwirwRVj3CIiv/2G4DELRlIG9STY3pkf+W0AqQDdoAkDfCqkeorPrHRWV13rx5OgKyJ4unqKYiSyywQt4Iqx6hsuofF2GVyiryItVUNvVH1mgDQN4Iq55h+yq/0AaAEKSr/VlEhTzQBoC8EVY946IVYPny5eajjz7SGcqisoqik4DKav/No2c1G1RWkTfCqmdoBfCLi8qq9GQtWbJEZ0DVSTVVLiBPhFXkjbDqGRZZ+cVFZVWwyArVIX2pNWrUoJpaDiqr2bDZBsACqzgRVj1DZdUvrsIqrQCoirQ3VVb8A7ZQWUXeCKueobLqFxdtAIKwisqSgEpvauVQWc0GYRV5I6x6xlVllS/am0dlFb6TR/4SUtmSqvJKS0t1hOpgNwDkjbDqIReB9cMPP9QRynIVVl1VdFEcUkFNH/nzwyZcorKKvBFWPeSiFWDhwoVm1apVOkPKVWjcbrvtdARsLA2pcvHIHz6wGVZZYBUnwqqHXLUCzJ49W0dIuaqsElaxKameShWVkJodKtLZoA0AeSOsesjVIitaATb2+eefm3Xr1unMLsIqykoXT9GXmi3CajZoA0DeCKseclVZJaxuzFVQFbVq1dIRYiYhVfZLJaTmg7CaDcIq8kZY9RBtAH5wGVaprMaNkIoioQ0AeSOseojKqh8Iq7Ap7UklpNpFdbX6WGCFvBFWPSTfrPbdd1+d2UNldWOEVdiQru6nJxVFRRsA8kZY9ZSLsEpldWOEVeRJgilbULlHZbX6aANA3girnuJgAPdkNwBXWGAVJgmo6aN+eSWkukdYrT4qq8gbYdVTLsLq4sWLzYoVK3QGKquoKgmhEkz79OmThFKpnqYBNfZH/V27djW9e/c2AwYMSF6bNGmi76CoCKvIG2HVUyyyco+wisqSkCq9pxJOJZj27ds3CadUUE0SSkePHp2EVAnxElrldebMmUlodYXKavXZbANggVWcCKueIqy6R1hFZaQ9qISfzZOQ2r59e51tTEKrq8BaWlqqI1QVlVXkjbDqKRcLrAQ7AmzgMqzutNNOOkJRSCUVmydV1S0F1ZQEVhctAfxwUX2EVeSNsOopWWDTuHFjndlDZXUDl2G1Tp06OkIR8Jh/66SqWhEV/Tj4hd0AkDfCqsdctAJQWd2AyipQfdKnWl5VNSUfZ7u6yg8a1Wezsrp27Vqr/z74gbDqMbavcouwiopiRfs3SfCsTFBNuaiu0gpQPbbDo8ttBeEGYdVjhFW3aANARUlYJbBuIIGzKkFVuKiuonpstgEIwmp8CKse48hVt1yFVelX5lCA4unSpYuO4iXbUclWVPJaHVUJudVBZbV6qKwib4RVj7morC5dutQsW7ZMZ3FzFVapqhaTq9XsPpBwmu6hmsXnoF27djqyg7BaPbbDqu1KLtwjrHqMvVbdchVW6VctLglsMQXWsiE1y2qo/HNpBSgO2gCQN8Kqx3bccUfTsGFDndlDK8B6hFVUlgSsGNoB8gqpZdkMq2PHjtURqoI2AOSNsOo5Flm54+oLIm0AxZYeJRoi+e+SntQ8Q2rKZlilDaB6CKvIG2HVcyyycofKKqpKwlxIgVX+e9KQaitE2u5bRdXRBoC8EVY956KyunDhQh3FjQVWqI6iB9b0Ub9UzWRsu4fU5ueOgwGqh8oq8kZY9ZyLsLpo0SIdxY3KKqpLAmvv3r11VgwSEm096i8PrQDFQFhF3girniOsukNYRRakh9Xm4/OqkIAqv0cJHT79Xl2HZVQMbQDIG2HVcy56Vgmr69EGgKykj9R9CqwSBCWYplVUm4/dfURlteqorCJvhFXP1a1b1zRo0EBndhBW16OyiixJULW9SGlzpC1Bfh8SniWg+lzxtbnIirBadbbDI2E1PoTVArDdCkBYXY/KKvJQtifURlAsW0GVCliRTtqy+ftkr9WqI6wib4TVArAdVlevXs2Rq1+hsoo8lQ2tEiizDGbyz04DahEqqFtSxN9zjOhZRd4IqwXAIis3CKuwQYKkBMo0WFYluKbhVH59ukiqqAG1LJu/f9oAqo7KKvJW46svbHY7o1FpDz/8sDn//PN1Zsfrr79uDjvsMJ3FqV+/fqZXr146s+dvf/ubOffcc3WGWKV7f6avpaWlyatIezmzrsj6qGnTptaCJN8Oq+aQQw4xb775ps7yN2HCBNO2bVudIQZUVgugefPmOrKHyiqVVbglQVQu6TFNt79KL6mahlA5rQiqq/6z3QZg+98H9wirBfCd73xHR/YQVllgBQAVQRsA8kZYLQCptDVq1EhndhBWqawCPrBZWeXY1aohrCJvhNWCsF1dJawas3btWh3ZRWUVQJGwGwDyRlgtCMKqfWvWrNGRXVRWgQ1KSkp0lD/2Wq0aKqvIG2G1IAir9rmqrBJWgQ1YYOU/wiryRlgtCMKqfa4qq7QBAG4QVquGNgDkjbBaEIRV+1yE1Vq1aiUXgPWorPqPyiryRlgtiAYNGpjddttNZ/kjrLppA6CqCrhFYK08KqvIG2G1QGxWVxcuXKijeLmorNKvCrhFWK08KqvIG2G1QGyGVTl28OOPP9ZZnFxUVgmrgFuE1cojrCJvhNUCoW/VLheVVdoAALfYvqryaANA3girBUJYtYvKKhAfKquVR2UVeSOsFojtsLps2TIdxYnKKuCezd0AUDWEVeSNsFogjRs3thpmPvvsMx3FicoqEJ8xY8boCBVFGwDyRlgtGJvV1eXLl+soTuwGAMSJVoDKsR0ebYdjuEdYLRibYZXKKvusAjEirFYObQDIG2G1YKis2kNlFXDPRXAkrFYObQDIG2G1YAir9rDACogT21dVnOzJTVhF3girBUMbgD0ssALco7LqNxf9o4TV+BBWC+bb3/622WYbO39sVFZpAwBcI6z6zUVwJKzGh7BaQLaqq1RWWWAFxEjCKoG1YgirsIGwWkD77ruvjvJFZZXKKuDaoEGDdAQf0QYAGwirBdSoUSMd5Sv2sEplFXDLZYWTwwEqhsoqbCCsFpCtsBp7GwCVVcCtgQMH6gi+IqzCBsJqAVFZzZ9sx7Ju3Tqd2UNlFVhPKqp9+/bVmX1sX1UxtAHABsJqAVFZzZ+Lqqqgsgqs57qqygKriqGyChsIqwVEZTV/LvpVBWEVWB9UXVZVBT2rFeMiOLp46gW3CKsFRGU1f64qq7QBIHYSErt166Yzt6iuls9FG4CrYgLcIawWUM2aNU3Dhg11lp+YK6suwmqtWrWSC4hVnz59TIcOHXTmHmG1fFRWYQNhtaBoBcgX21YBdklIdf3of1OE1fK5qKwSVuNDWC0oWgHyxbZVgB3y2L9p06Ze9oiyI0D5qKzCBsJqQVFZzZeLyiphFTGRqqVUU+XytYJJZbV8hFXYQFgtqD333FNH+aKyag9tAIiF9Kb6Wk0ti7BaPtoAYANhtaDq16+vo3xRWbWHyipCJ1tSSUj1rTd1SySsEli3jsoqbCCsFtSuu+6qo3zFGlaprALZkQqqPO6XLakIf2EhrMIGwmpB2aqsxtoGQGUVqD4Jpmlfqu+P/LekqL9vW2gDgA2E1YKispovdgMAqkeqqEXoSy0POwJsHZVV2EBYLSgqq/lin1WgamTxVI0aNZyf7Q87CKuwgbBaUFRW80VlFagcCacSUouyeKqi6LHdOtoAYANhtaBq165tpRJHZdUeKqsoorKLp0Ik/30E1i2jsgobCKsFZqO6SmXVHiqrKJIQFk+h+qiswgbCaoHZ6FslrNpDWEVRpPulxhJSCeNbRmUVNhBWC8xGZZU2AHtoA4DvQn/kj8ojrMIGwmqBUVnND5VVYGMSUGN95M/2VVtGGwBsIKwWGJXV/FBZBdaTcCqP/GPeiooFVltGZRU2EFYLjMpqfqisAhuqqbGHNXpWt4ywChsIqwVmI6xSWbWHyip8QTX1m6iubp6LNgAXX5/hFmG1wNi6Kj9UVhGrdDsqwtnGqK5uHpVV2EBYLTAqq/lx8ZM7YRUupdVUQhkqgwVWsIGwWmD16tXTUX6orNpDGwBckfP8qaZuHTsCbB6VVdhAWC0wG5U4Kqt21KpVK7kAm6SKKiE1tPP880CQ3zzCKmwgrBaYjbAqX4hWrVqls3jYrqxSVYVtaTWVx/4Vw+dp82gDgA2E1QKz1eMYY3XVdlilXxW2SIWQamrVUF39JiqrsIGwWmC2Ak6Mfau22wAIq7CBRVTVw+ftmwirsIGwWmBUVvNDGwBCkz72L7L27dubrl27miZNmugduEYbAGwgrBZYjRo1rIQcKqv5o7KKvITw2F/C6ejRo5NrwIAByauLwMqOAN9EZRU2EFYLzkbIobKaPyqryEMIj/179+5tZs6cmVRVUxJUy85toWf1m1yEVfl3fvnllzpDDAirBWcjrFJZzR+VVWRNqqlFfuwvYVQqqNK+sDnt2rXTkT30rH6TizYAQXU1LoTVgqOymg92A0BRpY/9ixys0kf9W6ueuupbpbq6MReVVUFYjQthteCorOZj5cqVOrKDNgBkoeiP/SWcyiN/WURVHhdtAILq6sYIq7CBsFpwVFbzYTusUllFdRX9sb/0plZ24ZSr6io2oA0ANhBWC46wmo8VK1boyI7tt99eR0DlFP2xf3m9qVvDjgDuUVmFDYTVgqMNIB+2w+p2222nI6Diiv7YP62munqkXxX0rG6MyipsIKwWHJXVfNgOq7Vq1dIRUDFF3uRfKqJVraaW5aKySs/qxqiswgbCasFRWc0HlVX4TEJqUTf5TxdRFamauimqqxsQVmEDYbXgqKxmT774rl69Wmd2EFZREUXvT00f+2elpKRER3ZRXd2ANgDYQFgtOCqr2bNdVRWEVZSnyP2pWT323xS7AbhHZRU2EFYLjspq9lyEVXpWsTUSUIvanxrCY/9NsSPABq7Cqu1TBuEWYbXgqKxmz/Yeq4LKKrakyAuppJqa5WP/TbmqrNKzugFtALCBsFpwVFazRxsAfFHUhVRSRZWQGlI1tSzC6ga0AcAGwmrBUVnNHmEVPijqQio5KjXkoCoIqxtQWYUNhNWCs9HrSGU1f/SsIlXkFf8SUgcMGKCz/LlcYEVgXY/KKmwgrBacjYocldX8UVmFKGpQDXERFSqGBVawgbBacDYqcvJFwfa+oy4RVuGCBFTZmqpoFbt071QXVU4qq+65agOI6XsSCKuFZyvkxFRdpQ0AthVxa6p0EVXWe6cWBWF1PVeVVcJqXAirBWcr5MTUt8rWVbCpiEE1raby2B+EVdhAWC04WyEnprBKGwBsSXtUi0Ieu/tWTXXZCgB3bQBr1qzREWJAWC04W5VV2gDyRViNjwRV6VEtCqmmsohqA9oA1qOyChsIqwVHZTV79KzChm7duunIbz5WU31QWlqqo7ixwAo2EFYLjspq9qisIm8S/IqwPRXVVJSHyipsIKwWHJXV7BFWkTffj1At0kp/Vz2rtAGsR1iFDYTVgqOymj12A0DMWOmPymCBFWwgrBZczZo1zTbb5P/HSGU1X/SsxsXHFewSTuWRP72pqAwqq7CBsBoAG0GHntV8UVmNi09hNV1AJZePIdpXtAGsR1iFDYTVANgIOlRW80VYjYsvoTCEBVQEbLfYDQA2EFYDQGU1Wy7Cqo1WDiDFI//qo7K6HpVV2MB3yABQWc2Wi7DKF964tGvXTkd28cgfWXMVVllgFRfCagCorGaLsIq8uQiKAwYMYM9UZI42ANhAWA0AldVsEVYREulL/fLLL03Xrl31TlhKSkp0BBdoA4ANhNUA2Air7LOaL77wxsVGdTMNqfSlIk+EVdhAWA2AjTYAKqv54gtvfPJqBSCk2sMiK3f4mhkXwmoAqKxmZ926dU4a9/nCG58sq6sSfKUnNcaQykKxOLHAKi6E1QBQWc2Oi6qqIKzGp0uXLjqqOulDlZX9snAq1J5UYHP4mhkXwmoAqKxmh7AKW6SyKo/sK0tCabqyX15Z3Y8Y8TUzLoTVALAbQHZchdVVq1bpCDGRR/YSOMt7lL1pQJU5j78RM8JqXAirAbARVqU/KIYeIVdh1dW/F+5J8JQQmm7WL2E0DaZySR8qARXYGD2rcSGsBsBGWBUxtAK4Co0utsuCX+RxvlwSStNgSjgtH5+jOFFZjQthNQC2wmoMrQCuQiNhFQAqjrAaF8JqAKisZoc2AADwH2E1LoTVAFBZzQ5tAADgP8JqXAirAaCymh0qqwDgPznAxdVRr7CPsBoAKqvZcRUa58+fryMAlcECq3ixI0A8CKsB2HbbbXWULyqr+Zk+fbqOAAAVQStAPAirAaCymh1XYfW9997TEYCioKrrFmE1HoTVANCzmh1X/41UVgGgcgir8SCsBoDKanaWLVumI/sIrABQcYTVeBBWA0BlNTsuA/l//vMfHQEAysMCq3gQVgNAZTU7LiurI0eO1BEA39Gv6h6V1XgQVgNAZTU7hFUAKAbCajwIqwGgspodl2FV9lp9+umndQYA2BrCajwIqwGgspod14H8H//4h44AAFvz6aef6gihI6wGwNahAFRW89e/f38zZswYnQHwFT2r7n3yySc6QugIqwGgDSA7rsOquOuuu3QEoDwffPCBjhAbKqvxIKwGgDaA7PgQVqUVoFevXjoD4CMqq+4RVuNBWA0AldVsyJ59vuzb169fP9OtWzezdOlSvQNgc6isxos2gHgQVgNAZTUbPlRVyxo4cKDp0KGDGTFihN4B4IuSkhIdwRUqq/EgrAaAymo2fAurYtKkSeb00083nTt3Nn//+9/N2rVr9R0AgspqvKisxoOwGgBbYVX2tFu3bp3OwuNjWE0NGTLEnHXWWaZFixbmoosuMg8++KCZOnWqvgvANnpW3aOyGg/CagBshVURcnW1CP9t77//fhJUJbC2bNnStGrVivCKqI0dO1ZHiA2V1XgQVgNga59VEXLfahFPQ5kyZcpG4bVNmzbmiiuuSFoGFi5cqB8FhMvVvsRUVterWbOmjuyjshoPwmoAqKwiNXny5GSfVmkZaNq0qTnxxBPNTTfdZF577TX9CCAc9Ku6V6tWLR3ZR2U1HoTVANgMqzHstRoK+bN6+umnzTXXXGOOPPJI07x5c3PxxRcn/a+zZs3SjwKKy2VYpbK6Xu3atXVkH5XVeBBWA0BlFRXx3nvvJce5ys4C8o22ffv2pnfv3uaFF14IeuEcwuXyaGLC6nouK6uE1XgQVgNAZRWV9eWXXyYLU37729+ajh07Jt94O3XqZO6//37z9ttv60cBfnO1uIqguoHLyqr8kM33pDgQVgNAZRXVNWfOHDN06FBzySWXmAMOOMC0bdvWXHnllWbYsGFm3rx5+lGAP6QFwGVlFeu5rKwKqqtxIKwGgMoqsvbGG2+YO++805x99tlJFUmqr3379k1aBnw5khZxkxPeXKGyuoHLyqpgkVUcCKsBoLKKPMmWXhJS+/Tpk4RWOWZSQqyEWQm1gAulpaU6sq9du3Y6ApVV2EBYDYDNfVYJq5C2AGkPkDYBaReQtgFpH5A2gtmzZ+tHAfmRFgCXlVVsQGUVNhBWA0AbAFySBVmyMEsWaMnj0WOOOSZpGWB7LOTFdVCVnTSwHpVV2EBYDQBtAPDF559/bkaPHp20DBxyyCGmV69e7C6AzMkPQy4RVjdwXVklrMaBsBoAKqvw0ccff2z69euXhNbLLrssOV0LqC75QcglFldtzHVllTaAOBBWA0BlFT5btWqVuffee80PfvCDpF0AqA7XVdUuXbroCII2ANhAWA0AlVUUgVRaZSHWBRdcYD766CO9C1Sc66qqoAVgYyywgg2E1QBss802pmbNmjrLV8iV1Z133llHyNOAAQOSLbBGjBihd4DyyQ4Arquq0gJAWN0YlVXYQFgNhK3qasiV1fr16+sIeZs6dao5/fTTzc0336x3gK3zYasqWgC+icoqbCCsBsJWWA25slqvXj0dwZarr77aXHzxxToDNs+Hqqro2rWrjpCisgobCKuBsHUwQMiV1V122cXUqFFDZ7Clf//+5uSTT9YZ8E3dunXTkTvy+J+dAL7JdWV1wYIFOkLICKuBoLKaDVoB3Bg5cqT58Y9/rDNgA3n8P2bMGJ25I73W+CbXlVUOH4kDYTUQ9Kxmg1YAdx555BFz11136QxY//jfh6pq7969qapugevKquwywi414SOsBsJWWF25cqVZu3atzsJDZdWtK664gjPf8TUf/i5ISPVhyyxf+bCLCtXV8BFWA2ErrIrFixfrKDxUVt2TStrjjz+uM8RKHv37sKiKx/9bV7duXR25Q1gNH2E1EDbDqjx2CRVh1Q9/+MMfzLp163SGGPnw+F9W/7Ov6tYRVmEDYTUQhNVs0Abgh3HjxiWBFXGSx+7Sr+qSPP6nqlo+wipsIKwGgrCaDSqr/pCw+uabb+oMsfDlpKrRo0frDFsjC6y23357nblBWA0fYTUQ9KxmgxW//pAVvuPHj9cZYtGhQwcduSMVVb4WVJzr6iphNXyE1UDYOhRAhFxZ3W+//XQEH/z3v//VEWLgw+N/qajSp1o5rsMqXyfCR1gNhM2NmUMOq/vvv7+O4IOpU6fqCKHzYfW/VFQJqpXnOqzK9ySqq2EjrAbCZs9QyG0Ae++9t9lhhx10Bte++93v6gghk2qq68f/svKfs/+rxodFVlRXw0ZYDYTNU0RCrqwK19XVX/ziF2b48OHm3//+t5k2bZqZP3++WbVqlVmzZo1ZunSpmTt3rnnvvffM5MmTzWuvvWaeeeYZ8+c//9lcf/31pnPnzkllqFmzZlZbQ/Jy00036Qghc71NlYRUVv5XnQ9h9a233tIRQlTjy6/oGAXWqVMnM3ToUJ3lq127dl6c1Z2XM8880/zjH//QmV1Z98tJsJXHY/L60UcfmXnz5m30mo59+zJw9tlnm0cffVRnCJkEVZcnVcn/b6z8r54LL7zQPPTQQzpz4/zzzzdDhgzRGUJDWA3EBRdcYK0y0KpVq6AfuVx99dXm5ptv1pkdBx10kBk1apTZY4899I5dEli3FGTLvq5YsUJ/RT5OOOGE5JLqMsInIdVlVZWgmo2rrrrK3HbbbTpzQ3ZvkOpqnTp19A5CQlgNRPfu3c19992ns3w1bNjQzJkzR2fhGTZsWFLZs0nCcc+ePXXmr08++eTr4Prpp59+45L3t3ZPfOtb30oueXQor9KXevjhhyeX9AwjDvJ0xmWfKkE1O7IwTnZycE0KNvQdh4mwGogePXqY22+/XWf5kv5Y6aEMlTwytx2aXn/9dXPYYYfpDAibLKhq2rSpzuwjqGbriSeeMKeeeqrO3DnxxBPNyJEjdYaQsMAqEDZ3A1i9erX57LPPdBYeqRzb3hCcDcgRC4JqeKSNyQdPPfVUsjAV4SGsBsLmbgAi5O2rxJFHHqmj/NWvX980aNBAZ0C4JKjSoxoe+WHbl69hjz32mI4QEsJqIGyfzRz69lU2w2qjRo10BIRNgqqrnUQIqvk6+OCDdeSWhFU5qhlhIawGwnZlNfSwesghh+gof6xeRQxkMRVBNVytW7fWkVtSvR88eLDOEArCaiAIq9naa6+9dJS/kPt/AUFQDd8BBxygI/fuuOMOs2TJEp0hBITVQNhuAwi9Z1UWWdmybNkyHQHhIajGoWXLljpy79133zV33nmnzhACwmogqKxmq1atWmbXXXfVWb6orCJE6Xn/BNU4SGXV1tfMipDqqoRWhIGwGggWWGXPVnWVsIrQpKv+CarxkN77k08+WWfuSRuABFaEgbAaCLauyp6tvtWVK1eadevW6QwoNgmoso8qQTU+J510ko78IKc6vvzyyzpDkRFWA0FlNXs2+1ZjCP8Inxy5yRGq8ZLK6j777KMzP1BdDQNhNRD0rGbP5o4AhFUUWdqfKmfEu0JQdW+HHXbwqhVA/P3vfzdDhgzRGYqKsBoIwmr2dtppJx3lj21WUFQDBw50+thfEFT94VsrgLjhhhvMvHnzdIYiIqwGgq2rsmfzc0plFUUjIVWqqS6PTxUEVb9IZbVNmzY688O0adOSwIriIqwGgspq9mx+TqmsoijKhlSX1VRBUPVTly5ddOSPe+65xzz++OM6Q9EQVgNhu7Iq3n//fR2FicoqsEH6uN+HkCoIqv6SsNq4cWOd+UOqqytWrNAZioSwGgjblVUxc+ZMHYWJyipil+6XWqNGjeRV5j4gqPqtXr16XlZXJ0yYQDtAQRFWA0FlNXs2P6ezZs3SEeBe+qhfKqky9glBtRgkrO68884688eNN97I358CIqwGgspq9mx+Tgmr8IFP/aibQ1Atjn333dfL6qq4/vrrOTmwYAirgaCymj0qq4iFbObvUz/q5hBUi0f+PrkopJTn1VdfNT179tQZioCwGgjpKatVq5bO7Ai9slqzZk0d5Y+wCtvK9qPKZv6+9KNuTteuXQmqBXTIIYeYq666Smd++dOf/pRcKAbCakBsV1dDr6yuXr1aR/lbtWqVWbBggc6A/Ejl1Nd+1M2RoDpgwACdoWh69OiRtAT4SKqrUmWF/wirAbH9uGXRokVm2bJlOguPBEibqK4iT2k/qly+PurfVO/evQmqBdegQQNvq6vStyqBlf5V/xFWA+KiNyjk6qrNyqogrCIPElJ970fdHAmp0kuL4uvevXvSc+wj+leLgbAaEBeLrKZOnaqj8FBZRZGVDak+96NujvSnyuN/hEPaAXxF/6r/CKsBcVFZnThxoo7CQ2UVRSTVSN828a8MCaq+VuFQdT/60Y/M+eefrzP/XHbZZWb48OE6g28IqwFxUVkNOaxSWUVRbLqyv4iaNGlCUA3cr371K1O/fn2d+eWLL74wnTp1Mk899ZTegU8IqwGhspotKqvwXRpSi7Kyf0skqEqPKkE1bK1btza/+93vdOaflStXJoE15Pa2oiKsBqROnTo6skd2A3jzzTd1FhYqq/CVLJQKIaQKCaiyZzNBNQ6y2EoCoa+WLl1qjjnmGOtf/7F1hNWA7Lrrrjqy64033tBRWObPn68jO+TfZ7uai2JJ90iVq+ghVUhAZbP/+Eh1VX7Q8pV8LW7RooXO4APCakBchdVQK6uzZ8/WkT1UV7E5ZUNqkbaf2hrZQ5WgGicJqj63A4jS0lLTqlUrncE1wmpAXIXVCRMm6CgshFW4lvakhhRShYRU9lCNm7QCSEuAz6ZMmZL8vwf3CKsBcbXKcvz48UG2Anz44Yc6soewChHKwqlN0Z+KsqS6KouufJY+1YBbhNWAuKqsilGjRukoDNI7unDhQp3ZQ1iFVBxDC6kifewvK/8BIQWWu+++29StW1fv+CkNrGvWrNE7sI2wGhDCanZctAAIwmq8JJwWeZ/ULUn3T+WxPzbnqKOOMvfee6/O/CWB9fjjj7e+8BbrEVYD4jKsyjejd955R2fF56IFQBBW4yPfBKWSKo/9QyPVVB77ozznnXeeufHGG3XmL/l/9fTTTw/qe11REFYD4jKsipCqqx999JGO7CKsxkUeLcpVxGNRt0bO9aeaisq45pprzJVXXqkzf7322mvmpJNOMo8++qjegQ2E1YC4DqvyKGfRokU6K7a5c+fqyC7CahykQiOP/OU1JGlI5TQqVMXtt99ufvKTn+jMX++//74599xzTa9evcznn3+ud5EnwmpAdtllF1OzZk2d2ffuu++afv366azYXFVW5dQUHjGFLa2mhkJCqYRTedxPSEV1DR061PzgBz/Qmd/k+92xxx6b7IiDfNX48is6RgD22GMPs2DBAp258corr5jvf//7Oism6aH661//qjO7hgwZYs4//3ydISQSUoteTZXqqWjXrl0STFndjzzI37NBgwbpzG8777yzufjii5N+VlkwhuwRVgNzwAEHmLfffltnbpx66qlm2LBhZtttt9U7xeMyVFxxxRXmjjvu0BlCUdSgKqGBYAoXZB/W3/zmNzorhjZt2iT/rxx55JHmiCOOMPvss4++g+ogrAbm6KOPTiqbrskWH4MHDza777673imOZcuWmW9961s6s0++wL366qs6QwhkAZXPZ6GXlYbSLl268Egfzt13333en3S1NbLIUHbFQPXQsxoY14usUs8++2xSYS1i/+Xzzz+vIzf+/e9/J4EZ4fB9g3+pnqZ9pyyQgk8uvfRS89BDD+mseCSsylOV6dOn6x1UBWE1ML6EVTFu3LjkG95VV11lJkyYoHf95zqsrlu3zkycOFFnCEFpaamO/JEGVHm4Jq8y5zE/fCR7ED/88MM6Kx5p//npT38azG45LhBWA+NTWBVy2sdtt91mDjvsMHPWWWeZBx54wEydOlXf9Y98UZFv3K4RVsMiPZ8+kEAqldOyARUoAln0KoUE+V5SRFK8kdAtxQhUHj2rgbnpppuSzZV916xZs2TVZIsWLZL+UFlNmb5K4G7QoEHS77rddtvpr8ifPHqX39N//vMfveNOx44dzXPPPaczhEAeB9o+SlXCKIujEJJPPvnEXHvttUkvaxFJ/+0999yjM1QUYTUw/fv3T7bQCIXsHZsGV3kte216b7fddjO1a9fWX1lxElKlp/Dpp59OLl9I60Tbtm11hhDI3zMJrHmeWEVARQzkyYCE1iKe1f/ggw+aCy64QGeoCMJqYIYPH27OOOMMncVHqrNlA2waYsvOV69enZxAkl7PPPOM/mq//O///q/57W9/qzOERNpN0tBa3eAq4bSkpCQJpyyKQkz++9//JoF15MiReqcY5PuQPDlr3bq13kF5CKuBeemll7zpj0P1HHjggV60JCBfaWBN92BNF2PJvU0roxJK5V4aSqmcAib5we/WW281n376qd7x32WXXWbuvvtunaE8hNXATJkyxbRq1UpnKDqplJ922mk6AwBsjizclcAqj9iLYMcddzRvvvmmad68ud7B1rAbQGB82w0A1SOPuAAAWyenN8qaDWnrkkNpfLdixQrv91/2CZXVwKxdu9bUqlVLZwhB586dC3NGNgD4QCqssm2iPG301Z577mlmzZplddeboiKsBmjvvfc2c+fO1RlCIKef7LvvvjoDAJRHelglsP7tb3/z9jRF+V6911576QxbQhtAgAg14dlvv/2STaUBABUju8PIufyya8Bf/vIXc8opp+g7/vj44491hK0hrAZINtxHeI444ohkO6vly5frHQBAebbddlvTqVMn88QTTyQ/9Pfo0cM0bNhQ33WLI1grhrAaICqr4brhhhvM0Ucfbe68806zZMkSvQsAqIjDDz882TVAqq1yktQJJ5yg79h3yCGHsDdyBRFWA0RYDZtsd3LllVcmG0pfd9115u2339Z3AAAVUb9+/eTo06eeesrMnDkzKQDYDq7nn3++jlAeFlgFSB5zyCNjxEF2fzjrrLPMcccdl1w06wNA1SxdutSMGDHCPP7448lrHnbeeWdz4403JgcDoGIIqwFauHBhcm4+4iMbTaehVS6q7ABQdXKKoLQMlH2dM2eOvls5LVu2NB07djS/+MUv+NpcSYTVQMkqyGXLlukMsSobXOX4VgBA9SxevDgJrQsWLNjomj9/fvJ9Vyqncu20007Jq2wnKSFVDi5A1RBWA3XwwQebSZMm6Qww5qijjvo6uMoiAwAAioCwGijpYfz73/+uM2Bjsgo1Da4dOnTQuwAA+IewGqhevXqZfv366QzYshYtWnwdXOXi6D8AgE8Iq4G6//77zSWXXKIzoGIaN268UXCtW7euvgMAgBuE1UA9//zz5thjj9UZUHm77bbbRsGVLbEAAC4QVgP1/vvvszUGMsOWWAAAVwirAdtmm20Mf7zIw+mnn/71JduzAACQF8JqwPbbbz8zY8YMnQHZ22effb4OrewqAADIA2E1YMcff7wZNWqUzoB8fe973/s6uO6///56FwCA6tlGXxEg+gph07hx48zVV1+dnNJy9tlnm6FDh5qVK1fquwAAVA1hNWDNmjXTEWDPunXrzLBhw0ynTp2S4HrVVVeZl156Sd8FAKByaAMI2PDhw80ZZ5yhM8AtOe5VWgR+8pOfsA0WAKDCCKsBmzRpkjn44IN1BvihYcOG5mc/+1lyEVoBAOUhrAZsyZIlpn79+joD/EJoBQBUBGE1cHJc5qeffqozwD9paL3yyivNLrvsoncBAFiPBVaBKykp0RHgp7lz55o+ffqYI444wtx///16FwCA9QirgSOsoijeeecdc8kll5hjjjnGPPHEE3oXABA7wmrgfAqr2223nWnVqpU5/PDDTfPmzc1uu+1matasqe8C640ePdqceuqppkePHnoHABAzelYD169fP9OrVy+duSHVsp///OemZcuWSWDdlPTULl68OFkQlr6m448++sh88MEHZubMmcm1bNky/VWIQZs2bcybb76pMwBAjAirgXv00UfNueeeqzP7pBexd+/eOqu+jz/+OAmtZQNs2fHq1av1IxEKWYA1Z84cnQEAYkNYDdz48eOTM9tdOPLII82//vUvndkhldithVn+uheTtATceuutOgMAxISwGrh58+Y528PyxhtvNNdcc43O/FBaWpqE1mnTpn3j4n8Fvz300EOmW7duOgMAxIKwGoHtt9/eyeNx6Tst0r6Z77333mZD7OzZs/Uj4FLHjh3Nc889pzMAQCwIqxH49re/nYQum4477jjz7LPP6qzYVqxY8Y0Am14SyGEPX64AID6E1QhIcLRdkeratasZMGCAzsK1cOHCzYZYudasWaMfhazw5QoA4kNYjcDFF19s+vfvrzM7rr32WvP73/9eZ3GShV1pcJUN799+++3kkkVgqDx2BQCAOBFWI/C73/3O/OY3v9GZHXfddZe5/PLLdYayli5dulF4Ta8ZM2boR2BzTjvtNDN8+HCdAQBiQViNwODBg02XLl10ZsewYcPMmWeeqTNUhLQNpMF10zC7bt06/ag4yUI9OdlKDgkAAMSFsBqBsWPHmvbt2+vMDumRldXbyIbsVLC5ICunf4WucePG5oEHHkh6rwEA8SGsRkB6J5s2baozOx555BFzzjnn6Ax5kR7ONLiWvebPn68fUVz16tUzP/3pT81FF11kDjzwQL0LAIgNYTUC8ke8zTbb6MyOe++911x66aU6g22LFy/+RiuB9MTKDy6+H0l7wgknJJf0qDZq1EjvAgBiRViNRJMmTZLTm2y54YYbzHXXXacz+GTu3LlfH0Fb9ijadOziS8KPfvQjc8oppySvu+++u94FAICwGo3/9//+n3n55Zd1lr+rrrrK/PGPf9QZiiQ9klYOPJAKbdlrc/eWL19uateuvcVLTlCrU6eO2XvvvZPtp9LXsmMAALaEsBoJ6f37y1/+orP8xXIoAAAAyJfdRkY4U1JSoiM7Pv74Yx0BAABUHWE1ErbD6qJFi3QEAABQdYTVSNgOq7NmzdIRAABA1RFWI2E7rMr+n1988YXOAAAAqoawGgnbYVV8+OGHOgIAAKgawmokZPugXXfdVWd2EFYBAEB1EVYjstdee+nIDsIqAACoLsJqRGxvvk5YBQAA1UVYjQiVVQAAUDSE1YjYDqtsXwUAAKqLsBoR22F1xowZOgIAAKgawmpEbPesvv322zoCAACoGsJqRGxXVuVQgHfffVdnAAAAlUdYjYjtsCqorgIAgOogrEbERVidOnWqjgAAACqPsBqRHXbYwdSrV09ndlBZBQAA1UFYjYzt6iphFQAAVAdhNTKEVQAAUCSE1cjY3r5qxYoV5oMPPtAZAABA5RBWI8OOAAAAoEgIq5EhrAIAgCIhrEaGsAoAAIqEsBoZ2z2rgrAKAACqirAaGReVVQ4GAAAAVUVYjYyLsLpkyRIzb948nQEAAFQcYTUyderUMd/61rd0Zg+tAAAAoCpqfPkVHSMS3/nOd8w777yjMzvuuece0717d50B8JnsjZzuj7zpPslZ7ZvcpEkTHVVsDCBehNUIHXPMMWb06NE6s+Pyyy83d911l84AuDZw4MAkeJaWlpoxY8Yk97IKolmSwJqGVnktKSn5xr10DCBMhNUIderUyQwdOlRndkhAfuGFF3QGwDYJpIMGDUpefQyl1ZEG1nbt2pn27dsTYIHAEFYj1LNnT3PLLbfozA5Z2DV37lydAbBFKqhpSI2NBFcCLFB8hNUI3XrrreaXv/ylzuyRXQF22WUXnQHIW4cOHaIMqVtCeAWKid0AIuRi+yrBjgCAHfKYn6D6TfL56Nu3b/K5adq06defo9DaIoDQEFYjRFgFwiaP/gmq5ZPPUdng2qdPH4Ir4CHCaoTq16+vI7s4yQqwQ6qHqJy06lq24grAD4TVCLkKq1RWARRBWnGVK93iC4A7LLCK0IoVK5KTrGxr0KCBWbBggc4A5EWqgwSsbHXt2tV06dIlWZwFwC4qqxHacccdTe3atXVmz8KFC82MGTN0BiAvrHLPnlRYqbYCbhBWI+WqFeC1117TEYC8DBgwgMCaE2kR6NatW3LR1wrYQViNFGEVCJcEVXlkjfyU7WsltAL5IqxGylVYHTdunI4A5Em2YaLCmr+yoZXWACAfhNVIuQqrb7zxhlm9erXOAORJFgWNHj2awGqBhFZZ2CbtAYRWIFuE1UjVq1dPR/bRCgDYI0F15syZSXAltOZPFl9JaOWAASA7hNVIuaqsCloBAPukJYDQao8cMECVFcgGYTVSsuepK1RWAXfS0Nq7d29Ca87S1gCqrED1cChApB5++GFz/vnn68wuDgcA/CGBatCgQckrgSo/cpgAC96AqiGsRuqll14y7dq105l906dPN/vuu6/OAPhAAqtcY8eOTYIr4TV7UtGmFQOoHMJqpOQxYLNmzXRm35AhQ5xVdgFUTBpepfJKcM0OVVagcgirkVq3bp3ZbrvtdGZf9+7dzT333KMzAEVA5TVbElilygpg6wirEdt7773N3LlzdWbXIYccYiZOnKgzAEVEeK0+aQuQBVgAtoywGrHvfe97Zvz48Tqzb9WqVaZ27do6A1B0ElwlsKZtA4TXipHqKrszAFtGWI3Y2WefbYYNG6Yz++RkHendAhAuqq8VQx8rsGXssxqxRo0a6cgN+eYFIGwSwuQxt/xwKgs7pT4iY6kkynsSzgho60N9hw4dCPPAZlBZjdgDDzxgfvazn+nMPvlGJd+0ACBtIZAr9iosC6+AjRFWI/bmm28mC51cWrp0qalbt67OAGCDmFsIWHgFbEBYjZhsX7XDDjskr67885//NCeffLLOAGDr0gAbw96vBFZgPXpWI7btttuaww47TGduyElaAFBRaQ9s2f7XUE+E6tu3L2EV+AqV1chdccUV5q677tKZfRKWX3/9dZ0BQNWF2jZAhRWxI6xGzvUiKzF8+HBz2mmn6QwAsjFw4MCkXUACbNERWBEz2gAid+CBB+rInb/+9a86AoDsSHuAtAmkW2UVuVWAlgDEjMpq5JYvX558AV+0aJHecWPSpEmmdevWOgOAfKSLs+S1iG0CVFgRIyqrkatTp44Xj+CprgKwIT0pShZoFfHEKCqsiBGVVZgnn3zSnHLKKTpzY8899zTjx483jRs31jsAYIdUWSUEFqm3VcI2J38hFlRWkexz2qpVK525MW/ePHPPPffoDADsSU/TK9I2WBzNipgQVpHwoRXg7rvvNm+99ZbOAMCutEVALhn7TIIqgRWxIKwiceqpp+rInRUrVlBdBeBc2Uqrz1VWCaqyPReBFaEjrCJx6KGHmo4dO+rMnT/96U9m6NChOgMAdyS0+r4QS3ptJbACISOs4mtnn322jty6+uqrzTvvvKMzAHAr3a/V19YAdghA6NgNABuRCuvEiRN15s6PfvQj8/jjj+sMAPwgoVD2afXx0Ts7BCBUVFaxEddHr6aeeOKJpFoAAD6RsOprWwALrhAqwio2ImG1bdu2OnNLvikQWAH4Jl2A5VtgTRdcAaEhrOIbfKmuCgmsN998s84AwA8SVH0MrPIDPtVVhIaeVWyWL72rKelflT5WAPCJBEPfHr/7GqSBqqKyis268sordeQH2Qe2SEchAoiDj8GQdgCEhsoqtqhnz57mlltu0ZkfqLAC8JGPFVaft9sCKoOwiq06/vjjzahRo3TmhwceeMBcdNFFOgMAP/gWWGkHQChq9pEVLMAWtG7d2gwfPtwsX75c77j3z3/+09SqVcscffTRegcA3Ntll13M0qVLTWlpafLqmvwe5PdEdRVFR2UV5RoyZIjp3LmzzvxxzjnnmBtuuMHsv//+egcA3PNt2z0OC0DRUVlFuaS6KpXVV199Ve/4YcqUKUkP62677Zb8HgHAB2klc+zYscmra5MnT06OjAWKisoqKuzEE080Tz/9tM78ctlllyVVVnnkBQA+aNq0qTf9q3LqFoEVRUVYRYVJH9Zxxx1npk2bpnf8IidvSWD94Q9/qHcAwB2fFlyx2ApFxj6rqLCSkpJkJf62226rd/wihxiccMIJSa/YkiVL9C4AuCHBsEuXLjpzSwIze6+iqKisotIGDx7szRfgLWnevHlysEH37t31DgC44dOCKxZboYhYYIVKk8VMNWvWTB4p+erjjz82Tz31lHn++efNzjvvbFq2bKnvAIBdsuBq0KBBXmxnxVZWKCIqq6gy2Zj/wQcf1JnfTjvttKTSyhdpAC741L9KdRVFQ88qqqx///6mY8eOOvPbiBEjkm8UP/vZz5ItrwDAJp/6V+ldRdFQWUW1SQgcM2aMzvy30047mSuuuML8/Oc/N40bN9a7AJA/X7azorqKIqGyimqT3tUiPV7/7LPPzO9///uk9/byyy83r732mr4DAPnyZfsoqqsoEiqryEzRKqxlSU9rp06dzFlnnaV3ACAfvuwOQHUVRUFYRaaKHFjFoYcemoTW888/PznGFQDy4EM7QO/evZPgDPiOsIrMFT2wir322isJrXK1adNG7wJANnzYHUCqqlJdBXxHzyoyV7Qe1s356KOPzC233GIOPvhgc95555mRI0fqOwBQfT7sDiBBmd5VFAGVVeQmhAprWYcffrg599xzzTnnnGP23ntvvQsAVee6HUAKCz4f8AIIwipy9dOf/tT85S9/0VkY5ASYNLQec8wxehcAKk9+oJcf7F1ioRV8x3GryNUZZ5xhdthhh+TY01CsWrXKTJw40QwePNiMHTvWrFy50uy7777JfycAVIaExNLSUjNp0iS9Yx9HsMJ3VFZhxfDhw5PgGipZkCWVVqm4HnHEEXoXAMrnw2IrqqvwGQusYMXpp58edF+ULMi64447zJFHHmlOOOGEZNHC4sWL9V0A2DIfFluFtL4A4aGyCqsmT56cVCCnTZumd8JVv379JLiml8wBYEtcLrbq2rWrGTBggM4AvxBWYd2sWbPMBRdcYF544QW9Ez6CK4DyuD7ZilYA+IqwCieWLVuWBNZhw4bpnXgQXAFsicvqqlRWpcIK+IaeVTix8847m8cee8zcdNNNZrvtttO7cZBe1ocffjg50nX//fdPXmVOjysAOQLVFdndBPARlVU49/LLL5vrr7/evPTSS3onTun2Me3atUv2bz3ooIP0HQAxcVldpRUAPiKswgtr165NAuvNN9+sd9CmTZskvB533HFJuwCAOLg8KIBWAPiIsAqvjBgxIgmtU6ZM0TsQadX1pJNOMieffLLZc8899R0AIXJVXWVXAPiIsArvzJs3LwmsDz74oN7Bpg499NAktB522GHJ1aBBA30HsEOCVBqmygtV6WPlTV+xZbJXc7du3XRmF60A8A1hFd6SsCqhVcIrtk6qMGlw/e53v5u8cvwrsiChScKoHAkqj6ezqvZJGEqvkpKS5MlBGpAISuu5qq7KAS4cvwqfEFbhtalTp5rrrrsuaQ9A5Rx44IFfB1hZrLX77rsnFdi6devqRwDfJOFUVoVnGUwrKw2uEmLT/skYA6yr6qrsSCB7vgK+IKyiEPr3759sczV9+nS9g6qqXbt2Elw3vRo2bJgEgvSSPlnEQUKpbEYv4chXEmBlp4w0yMYSXl1UV+VzHPLx2CgewioKY/78+Ulgve222/QO8iS7Ech55dIbu99+++ldhEZWnRfxXPhYwqurU63oW4VPCKsonBdffDEJraNGjdI7yJtsnXXqqacmjyRr1aqld1FkLrdHykMaWOUHrDTAhsJFdZWwCp8QVlFYd999dxJaZ8+erXeQt5YtWyaBVS6OiS2u0ILqlqTVV+l7LXLwkv/fbLdosN8qfEJYRaFJtUEC65/+9Ce9AxsaN25sLrjgAnPttddSaS2gGjVq6CguRW0dcPHDBfutwieEVQThqaeeSkJr7Ee22nb44YcngVVaBFAM8gOePFZGsSqvLloBiAfwxTb6ChTaiSeemGy3I8e1ysp22DF+/Hhz2mmnmUsuucTMmjVL78JnRVxMlRf5XMjiJQmCUm2W6mW6r6xvJFjb5uPnAXEirCIoPXv2NOPGjTP/8z//E+2jThfuv/9+84Mf/MCMHDlS78BXLJrZMgmv0h8q4VWudKcEH0KbLByzjR9s4AvaABCs119/3dxxxx1m6NChegc2yJ64F154oc7gIxePlIvOh35X239u9K3CF1RWESw5dvThhx82Tz75pDn22GP1LvJ20UUXJe0Y8JecUITKSVsGpNqaVl1ttwzYDsj8QANfUFlFNKRCcOedd5pJkybpHeRp0KBBpnPnzjqDb1xtNh8iW1VXF39mRAT4gLCKqKxevTppDZDQOmfOHL2LvMiRjS4WhqBiCKz5kL/zUr3OOrhKddf2FlYcDgAf0AaAqMi5+L169TKvvfaa+dWvfmW22247fQd5OP74480bb7yhM/hGwqr8QEEYyVYaKn1bpAUUFWEVUWrUqJHp169fsnOAbLtUs2ZNfQdZWrNmTbLYaunSpXoHvpEqIBXw/JQNrrLTgMyrysUPFdX5/QJZIawiaocccoi57777zMSJE83ll19utt9+e30HWZEeYR41+01CkARWqqz5kgVZElzl8nU/V8BHhFXgK61btzZ33XVXElp79Ohhdt55Z30HWbj99tvNiBEjdAZfSXVVehTTSivBNR9SrUz3c5VXn0OrHLYCuMYCK2Azpk2bluwXKteSJUv0Lqrj+9//vnnllVd0hiKQUCWX7OxAFTBf8sOB7FiytR8QpBor4damtE0EcInKKrAZzZs3T/YKlUrrr3/9a45wzcCUKVN0hKKQoCKLsNJqaxHO0C8q+aGgvAVZ/MCAWFFZBSpg9uzZ5oEHHkgqTKWlpXoXlTVjxgzTrFkznaGoJExJH7KEJwJUPuQHhXTvVpF+zl0gJsA1wipQCZ999pl55JFHkuu5557Tu6ioyZMnm4MOOkhnCAHBNXzstQrXCKtAFb388stfB9dFixbpXWzJ2WefbR599FGdIUQE1zClC+4AVwirQDXNnz//69D66quv6t1s1a9f3+y///5mhx120Dtb9vnnn5vly5cnVWB5Tcfr1q3Tj7DrwAMPNOedd5655ppr9A5iIMFV2mbkleBabIRVuEZYBTL0zDPPJKH1xRdfNLNmzdK7Fde2bVvTokWLJJjut99+ySVjCavVJUfNbi7ErlixwqxcuTJ5LXtt7d63vvUtU7du3eRKx2Vf69WrZ/bYY4/k2mmnnfR3gFhJYE3DK8G1eGSXAllcB7hCWAVyIjsJyLGu48ePT6733ntP39lYx44dzRVXXJEsppCgB4QsDa6yfyftAsVAWIVrhFXAkjlz5iThVc7K//DDD5MdBnr27GlOPPFE/QggPmnFVV4Jrn4irMI1wioAwAtUXf1EWIVrHAoAAPBCegiBLOjh2Fd/8EMDXCOsAgC8JEG1bHDt3bs34RWIEG0AAIDCSVsG2GEgf9ICIK0AgCuEVQBAoUloFRxIkA/CKlwjrAIAgsJCrWwRVuEaYRUAEDTCa/WkvcOAK4RVAEBUCK+VQ1iFa4RVAEDUCK9bR1iFa4RVAADKILxujLAK1wirAABsRezhlbAK1wirAABUggRX2d9VXmMIroRVuMYJVgAAVIKEN9nKSU7WkldO1ALyRVgFAKCKZA/S9DjYUENr7D27cI+wCgBANUm1lUorkA96VgEAyFi3bt3MwIEDdVZ8RAW4RGUVAICMSYU15NYAwCbCKgAAOUhbA6SvtejoW4VLhFUAAHIkVdbevXvrDEBlEVYBAMhZnz59ksBa1LYAKqtwibAKAIAFRQ+sgCuEVQAALJH+1S5duuisOKiswiXCKgAAFqUV1iIhrMIlwioAAJZJYC1SO0BpaamOAPsIqwAAOFCkfViprMIlwioAAA5IUCWsAuUjrAIA4Ei7du105DcJqwRWuEJYBQDAEbaxAspHWAUAwJFBgwbpyH9jxozREWAXYRUAAAc6dOhQqAA4duxYHQF2EVYBALBIej+LFlQFPatwpcaXX9ExAADIkQRUCapFNXPmTPpsYR2VVQAALOjWrVuhg6oYOHCgjgB7qKwCAJAjqab27ds3mAVKVFdhG5VVAAByklZTQwmqQv576F+FTYRVAAAyJo/LmzZtGuRjcwmqtAPAJsIqAAAZSRdQSUU15Ooj21jBJnpWAQDIgATUmCqO9K7CFiqrAABUQ58+fUyNGjWiezQeUh8u/EZYBQCgCtK+VFnpHyNaAWALYRUAgEpIQ2rofanlYUcA2ELPKgAAFSAhVaqohLQN6FuFDVRWAQDYirQnNfZK6ubw+YANhFUAADYhi4cknEpIjbUntSIIq7CBsAoAgJJH/bJPqlyxre6vChZZwQbCKgAgamlATR/1syVTxVFZhQ0ssAIAREFCqYSr0tLS5DW9UHXt27c3o0eP1hmQD8IqACBosZ0sZRsxAnmjDQAAECyCav6oTiNvhFUAQJAkRBFU80dYRd4IqwCAIBFU7SCsIm+EVQBAcGQjf/ZHBcJAWAUABEEqqWzkbx97rSJv7AYAACgUeeyc7oUqQUnGPIp2h+2rkDfCKgDAibKhMw2bsgeqKBs+0zGB1E+EVeSNsAoAyEXZMJo+KqYKGiaiBPJEWAUAVEsaSgmk8Zo5c6Zp0qSJzoBsEVYBABWWBlF6RVEWYRV5IqwCALZIVtgTTFEe6VmV3lUgD4RVAMDXCKeoigEDBpiuXbvqDMgWYRUAIkY4RRYIq8gTYRUAIpMGVHlFMaRBsF27dhv1hsoPGYMGDXL+g4b8/iSwAnkgrAJABCSYSqiRcINikAAo4bS8iqUE1Q4dOjgNrIRV5ImwCgCBSqtuVFCLQ0Jfly5dKr1YyXVg5WAA5ImwCgCBoYpaLBWtoJanT58+pm/fvjqzS1oTZPsqIA+EVQAIhIRTCSuEVP9JJTKtoGa5P2nTpk2dVVeJE8jLNvoKACgwqabKY2CCqt+keioVSHlkLuOsN9KXAOyKy55ZhI2wCgAFJyGhW7duOoNvJJRKOJXKoyxCyvOkJzbmR4gIqwBQcFS0/CMBVYJpGlBthcis2woqg7+HyAthFQAKzlU4wcY2Dagyd8FVdZWwirwQVgGg4CSs8vjXjTSgSh+qy4Balsu+VSAP7AYAAIFwuRI8JhJIs9hqKk8u/i707t072T4LyBqVVQAIhCzioSUgH2kF1fUj/opy8fegtLRUR0C2CKsAEAgJKPI4WipchNbqkTAqn0f5fBYloJYllV/bqOojL7QBAECAJDikBwQQIipGwqiEPJcr6rMif+6y765N8nnjyFXkgbAKAIGTPkI5fpXQukFaJQ0lnG6O7b7VtLIPZI2wCgCRkGqbhNaYqq1pS0TZKxYuFlkRKZAHwioAREgCq1xjx45NAk1I4VUCqfSYxr6dl5xqJsfw2iSV1Zh+IIAdhFUAQDDhlb7JDSSo2j6Gl7CKPBBWAQDfkAbWogXYoq3az5P82dleZCU/KMRe0Ub2CKsAgAqTAJS+yr6aaYj1IchKRY8FPhuz3bfKDwvIA2EVAJCJNMiWDa9SlRXpPK/gRJ/q5kllNf1zsYGwijwQVgEA1mwaWuU1HaeV2k2l98r2Qsq4pKQkeQ1166ks2F5kxZGryANhFQCAQNleZCVVVamuAlniuFUAAAJlu+K8uco4UF2EVQAAAkUPL0JAWAUAIGA2q6tUVpEHwioAAAEjrKLoCKsAAASMvlUUHWEVAICAtWvXTkdAMRFWAQAIGJVVFB1hFQAAZIawiqwRVgEACBjbV6HoCKsAAASOHQFQZIRVAAACZzOslpaW6gjIBmEVAIDA2V5kBWSJsAoAADJDGwCyRlgFACBw7LWKIiOsAgCAzFBZRdYIqwAABI7dAFBkhFUAAJApAiuyRFgFACBw7AaAIiOsAgAQONthlcoqskRYBQAAmSKsIkuEVQAAIkArAIqKsAoAADJFZRVZIqwCAIBMlZaW6gioPsIqAAAAvEVYBQAAmaINAFkirAIAEAEWWKGoCKsAACBTVFaRJcIqAADIFGEVWSKsAgAQAdoAUFSEVQAAkDmqq8gKYRUAAADeIqwCABCBkpISHdlBZRVZIawCAADAW4RVAACQOSqryAphFQCACLAbAIqKsAoAAABvEVYBAIgAlVUUFWEVAAAA3iKsAgAQASqrKCrCKgAAESCsoqgIqwAARILAiiIirAIAAMBbhFUAACJBZRVFRFgFACASNsMqwRhZIawCAIDMEVaRFcIqAACRaNeunY7yR1hFVgirAABEggCJIiKsAgAQCVthlVCMLBFWAQCIhIRIG0GSsIosEVYBAECmCKvIEmEVAICItG/fXkf5KSkp0RFQfYRVAAAiYmNHABuBGPEgrAIAEBEbj+gJq8gSYRUAgIhIkMwzsNKviqwRVgEAiEyelc8uXbroCMgGYRUAgMjYPMkKqK4aX35FxwAAIBJNmzY1H3zwgc6yM3PmTFoBkCkqqwAARCiPx/V598MiTlRWAQCIkFRVpbqapdGjR7MTADJHZRUAgAhJBbRr1646qz755xFUkQfCKgAAkerdu3dmj+3lnwXkgbAKAECkJKhm0bsqFdUsq7RAWYRVAAAi1qdPn2pVRSWoSq8qkBcWWAEAANOtWzczZsyYSm1nJZVZ2aoKyBOVVQAAYAYMGJBcFe1hlcf+VFRhA5VVAACwEamwyjV27NiNKq0SZOXKcmEWUB7CKgAAALxFGwAAAAC8RVgFAACAtwirAAAA8BZhFQAAAN4irAIAAMBbhFUAAAB4i7AKAAAAbxFWAQAA4C3CKgAAALxFWAUAAICnjPn/TmDKPM3tJLwAAAAASUVORK5CYII=;" vertex="1" parent="1">
          <mxGeometry x="678" y="290" width="274.58" height="304.34" as="geometry" />
        </mxCell>
        <mxCell id="rraX06ucM7AwQiWW7n5B-8" value="" style="shape=image;verticalLabelPosition=bottom;labelBackgroundColor=default;verticalAlign=top;aspect=fixed;imageAspect=0;image=data:image/png,iVBORw0KGgoAAAANSUhEUgAAAngAAAL6CAYAAACl7yvpAAAAAXNSR0IArs4c6QAAAARnQU1BAACxjwv8YQUAAAAJcEhZcwAAEnQAABJ0Ad5mH3gAAGR4SURBVHhe7d0JvJXT/sfx1TyPmkuFogGRSCkiY4ZKMsRFrnANmee/6Zqumcwhc1xDg4xlSEVIlFKhmUpSNHca//f3+B1NZ9h7n/2sZz3P+rxfr/066/fsXNepzvme35qKbfofAwAAgMQorh8BAACQEAQ8AACAhCHgAQAAJAwBDwAAIGEIeAAAAAlDwAMAAEgYAh4AAEDCEPAAAAAShoAHAACQMAQ8AACAhCHgAQAAJAwBDwAAIGEIeAAAAAlDwAMAAEgYAh4AAEDCEPAAAAAShoAHAACQMAQ8AACAhCHgAQAAJAwBDwAAIGEIeAAAAAlDwAMAAEgYAh4AAEDCEPAAAAAShoAHAACQMAQ8AACAhCHgAQAAJAwBDwAAIGEIeAAAAAlDwAMAAEgYAh4AAEDCEPAAAAAShoAHAACQMAQ8AACAhCHgAQAAJEyxTf+jYwAArFi5cqWZO3euWbp0qWncuLGpU6eOvgMgGwh4AIDQvf/+++bDDz80H3/8cRDsFi9erO/8pWzZskHQ22OPPczxxx9vOnXqROgDioCABwAIzciRI839999vhg0bpk9S16NHDzNgwABTuXJlfQIgVQQ8AEAovvvuO9OqVSutMtOxY0fzwgsvBN09AKkj4AEAsm758uWmadOmZuHChfokc/vss4/5+uuvtQKQCnbRAgCy7tprr81KuBPjx483/fv31wpAKujgAQCyau3ataZRo0bm119/1SdFRxcPSA8dPABAVg0cODCr4U7QxQPSQ8ADAGTVq6++qqPsGj58uI4AFIYpWgBA1sj5djVq1NAqu+RcvAULFmgFoCB08AAAWTNq1CgdZZ9M+3755ZdaASgIAQ8AkDUzZszQUTjGjBmjIwAFIeABALJm+vTpOgrH6NGjdQSgIAQ8AEDWhN3B+/nnn3UEoCAEPABA1oQd8JYsWaIjAAVhFy0AICs2btxoSpQooVU4KleubJYuXaoVgPzQwQMAZEXY3TuxbNkys27dOq0A5IeABwDIijlz5ugoXEzTAoUj4AEAssJW8CLgAYUj4AEAskJusbCBgAcUjoAHAMgKW8Fr9erVOgKQHwIeACArbAW8tWvX6ghAfgh4AICsIOAB7iDgAQCywtYaPAIeUDgCHgAgK+jgAe4g4AEAsoKAB7iDgAcAyAoCHuAOAh4AICsIeIA7CHgAgCLbsGGDtTtiCXhA4Qh4AIAiW79+vY7CR8ADCkfAAwAUGQEPcAsBDwBQZAQ8wC3FNv2PjoFQ5OTkmFWrVm31krsk16xZo79ia7Vq1TItWrTQCkAcyCHHNWrU0Cpcl19+ubn33nu1ApAXAh7SJjvlfvrpJzN9+vTgJeO5c+cGoW3bICevjRs36j+ZnpYtWwZBTz7uvPPOwWuXXXYxderU0V8BwBULFy609nfzoosuMv369dMKQF4IeMhTXiEu96OtoxDyU758+SDo5Qa+3I877bSTady4sSlTpoz+SgC2zJs3zzRo0ECrcJ177rnmiSee0ApAXgh4CELbl19+acaOHWvGjx/vRIgrinr16gVhLzfwbTsGkH1z5swJ/o7Z0Lt3bzNgwACtAOSFgOeZRYsWmW+//dZ88803QaCTlzzzScWKFYNXhQoV/h6nUuc+q169erDWaIcddgi6iQCMmTFjhmnSpIlW4Tr11FPNSy+9pBWAvBDwEkx2teWGOfk4bty4YIzsadiwoWnfvr3ZZ599zJ577mkOP/xwfQfwyw8//GCaNWumVbh69uxpXnvtNa0A5IWAlzCTJk0yI0aMCF4y3epbdy5qe+21l+nevbs5/vjjze67765PgeSbMmVKsCHKhq5du5ohQ4ZoBSAvBLwE+Oyzz8yHH34YhDoZww3HHXdcEPbkVaVKFX0KJNN3331nWrVqpVW4jjrqKPPuu+9qBSAvBLwYkjsfc7t08pKuHdwlmz4k5PXp08faN0DANln+IUsVbOjcuXPwQy2A/BHwYuKPP/7YKtTJjjXEixzfcuGFFwYvW7sNAVu++uor07ZtW63CddBBB5mRI0dqBSAvXFXmODl77vrrrw8O/D3ppJPM008/TbiLKbnR47777gu+Cf773/+O9VE0wLZsXlUmsxgACkYHz1Gy6/XZZ58NXitWrNCnSBI5UkK6eRdccIEpWbKkPkV+fvnll2AaUD7KN/jc3ctww6hRo4LOmg3t2rUzn3/+uVYA8kLAc4wcNfDII48EL/ihdevW5s477+SIlTzI2WqPPvpoEB5kV/i2OnbsaK699tpg0T2i9fHHHwdr42zYb7/9gsPZAeSPKVpHrFy50txwww1m//33J9x5RrpSRxxxBJenb+Pxxx83Bx54oHnggQfyDHdi9OjRpkuXLkFARrRsTtFmer814BMCngPkJ9FDDjnE3HbbbebPP//Up/DNlVdeaU4//XSt/PXjjz8G5wief/75Zv78+fq0YNdddx1XV0WMNXiAWwh4EZNwJ1072YEGvPjii+bEE0/Uyj+vvPKKOeyww8zgwYP1Ser++c9/cg5khAh4gFsIeBF7+OGHdQT85fXXX/cy5EkHu1evXmbu3Ln6JH333HOPjmAbAQ9wCwEvYtWqVdMRsJmEPJmi9MWDDz4YrEEtqqFDhzJVGxHW4AFuIeBFTBaHy/ohYFuyyUDOPUw6+W+89NJLtSq6l19+WUewiQ4e4BYCXsQqVqxobr/9djN16tQg7Nk6CR7xcNVVV+W7gzQJZM2dXOGWTXJcB2ek2UfAA9xCwHNEs2bNzDXXXGO++OKL4BtU3759TcOGDfVd+EquqJOQl8QpqQULFpgrrrhCq+waNGiQjmALU7SAWwh4Djr44IPNQw89ZKZMmWJeeuklc8IJJ3DTgcck8EvIS5r+/funfAxKuoYNG6Yj2EIHD3ALAc9hFSpUMKeeemqw4F6mcGWH4AEHHKDvwidyh22STu7/7bffgoAXFjlLb8yYMVrBBgIe4BauKoshOb1/yJAhwVlhs2bN0qfIJXe87rXXXqZVq1bBR1nnuC2531cOlc59yRVxEyZMMJMnT9Zf4R45BPn555/XKt769etnLr74Yq3C8X//93/m1ltv1Qphs/F7mqtu3bqhdX+BpCDgxVhOTk4Q8mS9kXy0+RO0aypVqmROPvnk4CW3gmRq0aJFQadMgtQbb7yhT90h07UyhR937du3N2PHjtUqHPvuuy8HiFt0//33m8svv1yrcNWqVcssXLhQKwB5YYo2xsqUKRMEmtdeey1Yr3fXXXcFt2L4pmfPnmbSpEnBlF9Rwp2oWbOmOeaYY4JpcemUnn322fqOGx577DEdxdfw4cNDD3di3LhxwR3PsIMpWsAtBLyEaNq0abAQX75xfvTRR+bCCy809evX13eTS8KdBNxGjRrpk+zp0KGDeeqpp8wTTzzhzCYX6Sq+8847WsXTN998o6PwSfCHHQQ8wC0EvASSLpZcgSZdveeee8507dpV30kW6bRJuAvbueeeG6zZa926tT6J1ptvvqmjeLJ5rp/LayqTxmbA45gUoHAEvASrXLmyOeOMM4INGfKNThacuxJSskH+22yR6XAJJp06ddIn0Yn77lA6eMlks6tGBw8oHAHPEy1btgx2FUpIee+998w555xjatSooe/Gj0yfyvmAto0YMSLykPfTTz8FO37jaPbs2WbmzJlahY+AZw8BD3ALAc9DRx55pHnyySeDoCC7by+55JLgOJE4sdm925KsxZPNHDvttJM+icbIkSN1FC9ff/21juxgitYeAh7gFgKex6pWrWq6detmHnjgAfPtt98GLxnLM3nPZdLBi4psaIn6fLVPP/1UR/EiO1ttkmNvfv31V60QJtbgAW4h4OFv0sWTbp509aS798wzzzi5QUPCp9zdGyW5YeT888/Xyr64rsOz3cETdPHsoIMHuIWAhzzJ+ryzzjor2KDxxRdfmFNOOUXfiZ500FwgXTy5LSMKv//+eyzX4dnu4AnW4dlhO3QtW7ZMRwDyQsBDodq2bWsGDhwYnMFWpUoVfRqd5s2b6yha1atXN3369NHKvunTp+soHiSULl++XCt7CHh22A54UfxZAuKEgIeU9ejRw7z99ttm55131ifR2G233XQUvd69e5tdd91VK7vmzZuno3iI6u5QWW6A8Nm+KpEOHlAwAh7SIpsbHnroIa2iIdeJuaJ8+fLmzDPP1MquuF22HlUgJQjYQQcPcAsBD2mTGySOPfZYrexzKeAJ6eJFMXUdtw5eVP9/ly5dqiOEiTV4gFsIeMiIHJQclVq1aunIDXXq1DEHHHCAVvYwRZsagoAdBDzALQQ8ZOSII44wO+ywg1Z2udbBEwS8wtHBSzbba/CYogUKRsBDRkqVKhXZYcMuBryjjjpKR/bQwUuNHIq7YsUKrRAWOniAWwh4yFgUoUa4eMvG3nvvberXr6+VHatWrTJ//PGHVu6LMpASBsLHJgvALQQ8ZGzPPffUEUSnTp10ZE+cunhR7vplmjZ8dPAAtxDwkLGKFSvqCGLffffVkT1yeHAcyPqshQsXamUfYSB8BDzALQQ8ZKxSpUo6gthvv/10hG1F3Wmkgxc+NlkAbiHgIWMEvK0R8PIX9aHMdHvCRwcPcAsBDxkj4G2tRIkSpnXr1lphS1HvYqWDFz42WQBuIeAhY6VLlw6OS8FmDRs21BG2tGbNGh1Fg25P+OjgAW4h4KFI5C5WbFa7dm0dYUs5OTk6igZhIHy2Qzy/p0DBCHgoEtsBT6ZBXebaNWquiLqDZ3sDgI9s/x4zRQsUjICHIilXrpyO7JBpYZcR8PIWdQePgBe+1atX68gOOnhAwQh4KBLbHbwyZcroyE0EvLzRwUs+27/HcpNL1H+uAJcR8FAktgMeHbx4ooOXfLY7eGL27Nk6ArAtAh6KhIC3tQoVKugIW6KDl3xR/B4T8ID8EfBQJH/++aeO7CDgxRMdvOSjgwe4hYCHIrF9gKzrAY9jY/JGBy/ZNm7caNauXauVPXPmzNERgG0R8FAktjt4rm+ysN3BK1mypI7cRgcv2aLo3gk6eED+CHgoEjp4W7PdwatcubKO3EYHL9mi+v0l4AH5I+AhY3IOlUzN2MQavK1VqVJFR26jg5dsdPAA9xDwkLEoLnB3fY2b7W90dPBSQ8ALV1S/v7/++mtk4RJwHQEPGYsi4NWsWVNHbpLDV22KS8Cjg5dsUYasn376SUcAtkTAQ8Zsb7AQNWrU0JGbbH6jq1ixovN38+aig5dsUf7+Tp8+XUcAtkTAQ8Z+//13HdlDB2+zuHTvBB28ZIuyg0fAA/JGwEPGfvvtNx3Z43rAs/mNLk4BL2oEvHAtXLhQR/YxRQvkjYCHjEUR8FyforXZwYvLDloR9VQyAS9cv/zyi47so4MH5I2Ah4zRwdve8uXLdRS+OHXwiheP9ktN1P/+pPv55591ZB8dPCBvfNVDxgh425s/f76OwkcHL3Vx2YwSV1F28ObNm2eWLFmiFYBcBDxkjCna7S1YsEBH4YtTB4+Al2xRBjzxwQcf6AhALgIeMkYHb3s2O3gEvNQxRRuuKKdoxfvvv68jALn4qoeM2Q54u+66q47cZbODF6cp2qgDFh28cNHBA9xDwENGNm3aZBYtWqSVHXEIeHTw8sYUbXJFHe6EHNPyySefaAVAEPCQkSimZ5s2baojd7EGL29M0SZX1NOzuT766CMdARB81UNGogh4dPC2xi7a1NHBC48LHTzx4Ycf6giAIOAhI7anZ4XrAW/x4sVm7dq1WoWPc/BSR8ALjysB78svvzTffPONVgAIeMgIHbzt2ezeiWrVqunIfUzRJtfUqVN1FL3hw4frCABf9ZAR2wGvTp06pkGDBlq5yeb6O7HDDjvoyH1M0SbXV199paPoEfCAzQh4yIjtgHfaaafpyF22O3hxCnhM0SbT77//biZOnKhV9GQn7bRp07QC/EbAQ0ZsB7zOnTvryF02O3glS5Y0VatW1cp9TNEmk0vdu1x08YC/8FUPGbEZ8M466yxz5JFHauUumx28OHXvBFO0yTRu3DgduePll1/WEeA3Ah4yYjPg9erVS0dus9nBI+Clh4AXjhEjRujIHdJVfOmll7QC/EXAQ0ZsBbz99tsvFtOzYu7cuToKX9wCXtRTpEzRZt+kSZPMZ599ppVbBgwYoCPAX3zVQ0ZsBry4mDx5so7CV6NGDR3FAx285HGxe5dLNlsMHjxYK8BPBDykbfXq1Wb58uVahWufffbRkdtmzJgRfF5sYYo2PQS87HM54Am6ePAdAQ9ps7n+rlOnTjpy2/fff68jOwh46WGKNrvGjBlj3n//fa3c9Pbbb5tHHnlEK8A/fNVD2mwFvMaNGwevOLA5PStYg5ceOnjZNXDgQB257bbbbuNcPHiLgIe02dot2rp1ax25z3bAYw1eegh42SObieIS8BYuXBiEPMBHBDykzdbl4k2aNNGR+5iiLVipUqV0FA2maLPngQceMEuXLtXKfXIu3nPPPacV4A++6iFtP//8s47C1bRpUx25jynagpUuXVpH0aCDlx1DhgwxDz74oFbx0bt3b/P6669rBfiBgIe00cHb2pQpU8zGjRu1siNuAa9MmTI6igYBr+j+/PNPc8stt2gVPyeeeKIZOXKkVkDyEfCQNjp4W7PdvRNxW4MXdQdv2bJlOkKmLrroIjNhwgSt4unggw828+bN0wpINgIe0majg1euXDlTv359rdxme/2dYIo2PbbObUwqCXdJuf6rQYMGVs+sBKJCwEPabAQ81t/lr3r16qZYsWJaxUPUU7QEvMy9++67iTtPrnz58ua7777TCkgmAh7SImfg5eTkaBWeOO2gZYNF4ejgxdMXX3xhjj76aK2SpVWrVmbQoEFaAclDwENa2GCxtXXr1pkff/xRKzvitv5O0MGLH7mpol27dlolU48ePczdd9+tFZAsBDykhQ0WW4tigwUdvPQR8NLzwgsvmKOOOkqrZLv66qvNSSedZKZPn65PgGQg4CEtdPC2RsBLDR28eFi1apW5+OKLzRlnnKFP/PDaa6+ZQw89NDgUGUgKAh7SYivg0cHLHx289BHwCjd69Ghz2GGHmX79+ukTv8yZM8ecdtppwY7h33//XZ8C8UXAQ1psTNFyRErB4rgGj4DnNrl+TDpYn3/+uT7xl+wY7tChgxkwYIA+AeKJgIe0cETK1n766Scd2cMUbfpk6nHt2rVaIZf8wHbqqaeayy67jM/PFn744Qfzz3/+03Tr1s189tln+hSIFwIe0mKjg7fjjjvqyH0zZszQkT1M0WZm4cKFOoIYPHhwMCU7cOBAfYJtDR06NOjmyUYMbsBA3BDwkBYbHbxatWrpyG2zZ882GzZs0MoeOniZIeD9ZcGCBeaCCy4wxx9/fNCpQuHkKJW99947CHpTp07Vp4DbCHhImXyDtDGNU7t2bR25LYrunWANXmYIeH8df3LQQQeZxx57TJ8gVYsWLQqCXuvWrc2//vUv89VXX+k7gJsIeEiZrR20cengRRXwmKLNjM8Bb9q0aeYf//hHcPxJFOtGk2TNmjXmiSeeMG3btg123X700Uf6DuAWAh5SZuuQYwJewZiizcyvv/6qI788/PDDQdfupZde0ifIFjk3T3Yfd+3a1QwZMkSfAm4g4CFltjp4TNHmr1KlSk50w9JFB88+mUI87rjjTN++fYM7pBGet956y3Tv3t0ccsgh5sUXX9SnQLQIeEgZU7RbYwdt6thkYddtt91mDjzwQDNs2DB9Ahs++eQTc/rpp5t99903OE+P8xcRJQIeUsYU7daiCHhx3GAhihcvbkqWLKlVNHwIeO+8847p2LGjueGGG0xOTo4+hW1ff/11cCOG7Ly99dZbzdy5c/UdwB4CHlJGB28zmfKK4qfzuHbwRNRdvCRvLpAfvuTok2OOOcaMGTNGnyJq8kPgjTfeaPbaay9z6aWXmgkTJug7QPgIeEiZjQ5ezZo1g26P69hgkb6o1+HJQbWrV6/WKjlkR6d07Tj6xF1//PGHefDBB4OO3plnnhlM5QJhI+AhZRxyvFlUAS+uU7TChY0WSeriyRVaxx57bHAmm1yUj3h4/vnng80YsvN20KBB+hTIPgIeUiLrl9atW6dVeAh4BWOKtmimT5+uo/iSpQHXX3990LV7++239SniRnbe9ujRI9gM88wzz5j169frO0B2EPCQElsbLOJyRMrSpUt1ZBdTtEUT94D36quvBsHujjvuMJs2bdKniLPRo0ebs88+O1ind88993CkDbKGgIeUsMFiawS89LnQwYvrFO33338f3ERxyimnmIkTJ+pTJIn8Hl911VXBOr3rrruOe4JRZAQ8pIQjUrZGwEsfHbzMSFdHunbcROGH+fPnmzvvvDMIerK+cty4cfoOkB4CHlLCLRZbiyrgxXmThQsdvJEjR5qVK1dq5bb333/fdOrUKejqyC5M+EV2fMsO6f3228/07t2b42+QNgIeUsIU7dbo4KXPhQ6ecP1yeDnORQ7JPeqoo8ynn36qT+Gz5557Luji9urVy/k/v3AHAQ8pYYp2awS89BHwCvfUU08F38jlmitgW6+88oo59NBDg9237777rj4F8lZsE1uxkIKdd97ZzJo1S6vwzJw50+y0005auatOnTrWr74qW7ZsrA/qlVsW5CqtqDVv3txMmTJFKzd8+OGH5uGHHw6OzsBm8gONfD2Qrz/yUZYoVKlS5e+X/H2YPXt2cA6gfJSvH7KRJokHWuelS5cuwQ7c7t276xNgMwIeUlKqVCkr5zStWLHCVKhQQSt3lStXzqxZs0YrOxo0aGCtkxqG448/3gwePFiraH3xxRembdu2WkVHrq7q16+fefbZZ/WJf6pXrx6sM8sNcVt+lBCXCdmB+vnnnwfHygwfPlyfJlfnzp3NP//5z2CXNZCLgIdC/frrr6Zu3bpahUcW4dsOTZmQS9ylm2Zbq1atYn2XpXzzkW+4LjjrrLOCw2WjIkFdgp281q5dq0/90LBhw2AaOvfVokULfScco0aNCjYryPRm0nXo0CEIenIdGkDAQ6Fkm778hB02mX5ZtGiRVu6Sg0ij2O0r1xvFeYH1GWecYV544QWtoicbGOQWAZtWrVoVTMVKsJPjMHzQsmVLs//++5t27doFr7ADXX6uvvpqc/fdd2uVbPvuu6/p06dP8IK/2GSBQtnaQVu5cmUduY0NFplxZZNFrkcffVRH4ZPOtHSRJOhcc801iQ938sPIAw88EBzeO3nyZPP0008HnaWowp246667zLBhw7RKNvmh/JxzzjHt27fn/ESPEfBQKFvrvgh4BYvzGXjChXPwtvTaa6+FvhNRljf85z//+fvQ2kmTJuk7ydO6dWtz8803m/Hjxwed5ksuuSTSQJcX2ehz+eWXa5V8Y8eODW5AkTV6b775pj6FLwh4KJStDl6lSpV05DY6eJlxrYMn5Eoo2X2ZbdOmTTPXXnttEOzko9RJtMsuuwRBTgKdBLubbropCHouk4BXr149rfzw8ccfmxNOOMGZneywg4CHQjFFuzUCXmZc6+AJuddV1gYuW7ZMnxTNBx98EHTqJNhJ5046eEkjfw7lZoVBgwYFwVWmYmVKNi5kw5hMX/pIwp2EvJ49ewahD8lGwEOhbE3R0sErGB28cMguy9NOOy3jTt7o0aODBfy77767OfLII4O1dnHYDZ4u6XrJFKxMMw8YMCA4e61kyZL6brxIwJNjWHz1xhtvBNO2Mn0r07hIJgIeCkUHb2uswcuMix28XLL4XgKadKa++uorfZo3OUxX1jPdcsstwW5F2YkruzNlQ0ES5Qa7r7/+OpiCtXFkUtjkv0E6rL6TDRiyEUMCrxwQjWThmBQUSn5K37Bhg1bhkbUx9957r1bukm/s8g3Pti+//NLKcTVhkd/bK6+8Uiu3ySX/VatW3eolwe+7776z9gNP1CTYyTd+eSUh1OVFjqzp27evVn6To59kh7esqURCSMAD8jN//nz5AcDK63/BSf+tbrv00kvz/P8f9ut/P2Hr/4N4euihh/L87+Ll1ut/wW7T/36ACf7u++Duu+/O8/Pg6+uwww7b9NFHH+lnB3HGFC0KZLNbwRq8grHJAmFK4lRsKqSrzM7SzUaMGBGsz7viiivM77//rk8RRwQ8FMjm3aeswctf8eLFTbVq1bSKJ1c3WcAE03JyP69PwW5Lcmm/LIHAZvfdd19wldzzzz+vTxA3BDwUyGYHj4CXv7h37wQdPPfITljZBSxHney444761E+yvnXq1KmmcePG+gRyDI7ca3vSSScF608RLwQ8FMhmBy8uU7QrVqzQkT3Vq1fXUXzRwXNHq1atgh2UcpadXFCPvzRr1syMGTMmmKLEZnLry+GHH25efPFFfYI4IOChQHTwthdFwEtCB4+A54Zzzz03uHni1FNP1SfYUv369c3gwYOD7iY2W7hwoTn99NNjsxMeBDwUgk0W21u5cqWO7GGKFkUla+vkgGI5iDkJf57CJF+LpLspV9lha3Lc0RFHHKEVXEbAQ4HYZLE9Al5m6OBFp1u3bubDDz8MDnJG6m6//XYzdOjQ4BBsbDZ8+HBTp06doKsHdxHwUCA6eNuLIuAlYQ0eHTz75O/U/fffH0w5tmjRQp8iHccdd1wwpX322WfrEwgJdxLyPv/8c30C1xDwkK/58+dbucEiFx28/NHBQ7qOPvpo88knn5hLL71UnyBTtWrVMk899VTwkjE2O+CAA8ycOXO0gksIeMiXze5d+fLlY3FxeRThTrAGD6kqV65ccDfu22+/bfbZZx99imyQLp5086Srh81kCvu3337TCq4g4CFfHJGyvagCHsekIBWy+F26dux0DI+EGVmXJ+vz8Bc5WUB2HUdxwgDyR8BDvjgiZXt08DJHwAuPdL8lcLz//vumbdu2+hRhkh22cki0TIXDBGvxTjvtNLNx40Z9gqgR8JAvNlhsj4CXOaZowyGH8krXjiM97JNDomUq/LHHHjMNGzbUp/6SzuYNN9ygFaJGwEO+OCJlewS8zNHBy75bbrklOP6E2yii9a9//Svo5slH3z300ENm8uTJWiFKBDzky2YHr2LFijpyG2vwMkcHL3t69uwZTIndeOON+gRRkw6edPKko+dz4JavkXKYNqJHwEO+2GSxvSgWEcuuSNllHHd08IquXbt2wb2g8pIx3CNr8qSbd+edd5oqVaroU78MGTJER4gSAQ/5Yg3e9qLo4CVhelbQwctcgwYNggOLpWsn3Tu475prrgmCXq9evfSJP+bNm2dGjhypFaJCwEOe5C+ozd1QTNHmLykBT9DFS58cVDx27FgOLI6hPfbYw7z88stm2LBh5thjj9WnfpgyZYqOEBUCHvJks3sn6ODlLwnr73IR8FKXu85OOnfSwUN8HXPMMeatt97yKuh9//33OkJUCHjIk+2ARwcvf0nq4DFNWzjW2SWXT0GPDl70CHjIk80NFoIOXv6YovUD6+z84UPQo4MXPQIe8sQUbd6Yoi0aOnjb22mnncxtt91mvvrqK9bZeSbJQS+Kr5XYGgEPebLdwWOKNn908JKpRYsW5t577zXffPONuf76603dunX1HfgmN+jJGXpJ2XVbo0YNHSEqBDzkiQ5e3gh4RUMHz5jWrVubRx99NAh2l19+ualataq+A9/JGXqy6/a7774LjlmJ8/VnSfq6FVcEPOSJgJc3Al7R+NzBO+CAA8yAAQPM+PHjzfnnn0/YRb7keBU5KFmCntyOEcebMZo0aaIjRIWAhzwxRZs31uAVjY8B79BDDzUDBw40Y8aMMb1799anQOHkJozce27jNn173HHH6QhRIeBhO3LI8aZNm7Sygw5e/piijSdZVzV48GAzYsQIc8opp+hTIDPbTt/utttu+o6bOnbsqCNEhYCH7dju3om4dPCiuIuWgBcf7du3D6bW5IgI2RnZrVs3fQfIjtzp22nTpplRo0aZm2++2bkwdd1115lGjRpphagU22S7VQPnvfHGG9bP4dqwYYMpXtz9nzd23nlnM2vWLK3sWL9+vSlRooRW8SaBZ+jQoVolQ8uWLYMjLuQlAQ+Iwg8//GA+/vhj89FHHwUf//jjD33HLlmSIF1rRI8OHrZju4NXoUKFWIQ7YXuKVnZYJiXcibJly+oo3urXr2/OO+888+6775rJkycHHRXCHaIkU7ayXk9+QJ8xY0bwUerdd99df0W4ypUrZ1599VXCnUPo4GE7cnSDnKhvS+3atc2vv/6qldtkKtlmyNtll13M9OnTtYq/M8880zz//PNaxUu9evWC7sSRRx4ZdOvisqwAmDt3bnCQ9rhx44KPs2fPDl7Z0LlzZ3PIIYcEa0733HNPfQoXEPCwnZNOOim4B9MW2U7/008/aeW2YsWK6ciO/fbbz3z55Zdaxd+5555r+vfvr5X7ZPpVQl3uKykdSEDkBr21a9eadevWBR9zX9vWuc9kbV3jxo3/fsFdBDxsR6aaxo4dq1X49tprL/Ptt99q5a6cnBzr3+ClW/Tee+9pFX8XX3yx6devn1Zuki7E8ccfHwQ6ObsOAOKINXjYDocc523NmjU6sidpp8G72gGT88bkjDrZ+Tpx4kRz0003Ee4AxBoBD9uxvckiLgFPOni2JS3guXZMSqtWrcwjjzxipk6dGtwyIeuIACAJCHjYiu3unYjLYnU6eEXnSgdPjru57777gvWNF1xwARf9A0gcAh62EsUhx3Tw8peka8qECwFPDoaVYHfZZZdxHyyAxCLgYSuLFi3SkT0EvPwxRZtdcvyPrK+rUaOGPgGAZCLgYSu///67juxhijZ/TNFmz7PPPmsuvfRSrQAg2Qh42MrixYt1ZA8dvPwR8LJDpmXlkGUA8AUBD1uJIuDFpYPHGryii2KKVm6gOOecc7QCAD8Q8LAVOnj5Y4q26KLo4Em4Y5csAN8Q8LCVKNbgMUWbt5IlS5rKlStrlQxRBLxu3brpCAD8QcDDVpiizZ/tDl7Swp2wPUUrU9xymDEA+IaAh60wRZs/2x08uT4raWx38HbffXcdAYBfCHjYCsek5M92wEtiB892wGvTpo2OAMAvBDxshQ5e/mxP0Saxg2d7ijaJIRkAUkHAw9/+/PNPs2HDBq3sYYo2b0zRAgAyRcDD36KYnhVsssgbU7QAgEwR8PC3KKZn5Rt+qVKltHIbHbyiI+ABgB0EPPyN9XcFY5NF0dleg7d69WodAYBfCHj4GztoC8Ymi6KTgFesWDGtwjdjxgwdAYBfCHj4Gx28gtHByw6b07QEPAC+IuDhb1EEvDh18FiDlx02p2lnzpypIwDwCwEPf5NjUmyLUwePKdrssNnBW7p0aWS7wwEgSgQ8/O2PP/7QkT1M0eaPKdrsYJoWgI8IePhbFAGPTRb5Y4o2O2bPnq0jAPAHAQ9/Y4q2YHTwssN2B2/u3Lk6AgB/EPDwN6ZoC8Ymi+ywHfDmzJmjIwDwBwEPf4uig8cUbf6S2sGzPUVLBw+Ajwh4+BsdvILZ7OBVqFDBlCxZUqtkoYMHAOEj4CGwatUq61OQgg5e3pI6PStYgwcA4SPgIRDF9Kygg5e3pE7PCttTtPJnW87DAwCfEPAQiGJ6VhDw8kYHL7vo4gHwDQEPgagCHlO0eUtyBy+KgMc6PAC+IeAhwBRt4ejgZQcdPAAIHwEPATp4BduwYYNZv369VuFjDV520cED4BsCHgJ08Aq2bt06HdlBBy+76OAB8A0BDwE2WRRs7dq1OrKDgJdddPAA+IaAh0AUAa9UqVKRTNdlwnYHjyna7KKDB8A3BDwEopiijdMGC6ZosyeKDt68efOsrqEEgKgR8BCIooMXp4Bne4qWY1Kyjy4eAJ8Q8BCIIuDF6Qw8OnjZE9W0POvwAPiEgIcAU7QFo4OXPXTwACB8BDwE6OAVjA5e9kQV8OjgAfAJAQ8BOngF45iU7IlqipYOHgCfEPBgNm7caJYvX66VPeyizR9TtNlHBw+ATwh4MKtWrdKRXUzR5q1kyZKmQoUKWiUPa/AAIHwEPJjVq1fryC6maPOW5O6dYBctAISPgAc6eCmw2cFL8vo7EVUHLycnxyxcuFArAEg2Ah7o4KWADl72RBXwBF08AL4g4CGyDh6bLPKW9A5elPcPsw4PgC8IeIisg8cUbd6Yog0PHTwAviDggSnaFDBFmz1RBjw6eAB8QcADmyxSQAcve6KcoqWDB8AXBDwwRZsCOnjZU6xYMW6zAICQEfBABy8FNjt4cfq8ZCqqaVo6eAB8QcADHbwU2OzglStXTkfJFVXAW7JkiVmxYoVWAJBcBDzQwUuBzQ5elJsQbGEdHgCEi4AHOngpsBnw6OCFi3V4AHxAwEMkAU/CnSy2jwumaLMryoBHBw+ADwh4iGSKNm4bCejgZRe3WQBAuAh4iKyDFyc2O3g+rMGjgwcA4SLggQ5eCujgZRdr8AAgXAQ80MFLAWvwsotdtAAQLgIe6OClgA5edkXZwfv555/Npk2btAKAZCLggQ5eCjgHL7ui/m+kiwcg6Qh4oIOXAqZosyvKKVrBOjwASUfAAx28FDBFm1108AAgXAQ80MFLAR287Io64NHBA5B0BDzQwUsBa/Cyiw4eAISLgAcCXgpsBTwJPnG6wi1TrMEDgHAR8MAUbQpsTdH6MD0r6OABQLgIeJ7buHGjycnJ0coeOnh58yXg0cEDgHAR8DwXRfdO0MHLmw/r70TU/53y537RokVaAUDyEPA8F8X6O0EHL29M0dpDFw9AkhHwPEcHLzWswcsuFwIe6/AAJBkBz3N08FJDBy+7ol6DJ+jgAUgyAp7n6OClxuYxKT5w4b9zxowZOgKA5CHgeY4OXmqYos0uFwLeDz/8oCMASB4CnucIeKlhija7XJiiJeABSDICnueimKKVEFOiRAmt4oEOXna5sos2qh9wACBsBDzPRfENLm7dO8EavOxy5b+TLh6ApCLgeS6KDl7cAt6GDRuClw1M0dpFwAOQVAQ8z9HBK5yt7p1gitYuAh6ApCLgeY4OXuFsrb8TTNHaRcADkFQEPM/RwSscHbzsY4oWAMJFwPMcAa9wBLzso4MHAOEi4HkuiinaSpUq6SgebE7R+hLwihcv7kTIW7FihZk3b55WAJAcBDzP0cErnM0Oni9r8ET58uV1FC26eACSiIDnOTZZFI4OXjgqVKigo2gR8AAkEQHPc3TwCscavHDQwQOA8BDwPEcHr3B08MJBwAOA8BDwPEcHr3CswQsHU7QAEB4Cnufo4BWOKdpwuNLBmzVrlsnJydEKAJKBgOc5OniFY4o2HK4EPEEXD0DSEPA8RwevcHTwwuHKFK0g4AFIGgKe5+jgFY67aMNBBw8AwkPA8xwBr3B08MJBwAOA8BDwPMcUbeEIeOFgihYAwkPA89jGjRsj2T3IFG3e5H5WefmCDh4AhIeA57EouneCDl7eSpQooSM/uBTwli1bZhYsWKAVAMQfAc9jUay/K1OmjClVqpRW8WCrg+dbwHNpilbQxQOQJAQ8j7H+LjV08MLhUgdPfP311zoCgPgrtul/dAzPTJs2zTRv3lwrOxo1amRmz56tVTzcc8895qqrrtIqPJUqVQqmCn0xaNAg06NHD62id+KJJ5r//ve/WgGFW79+vVm6dGlaL/nBWmYFZP2zfMx9bVtv2LAhODYpv1e1atXM7rvvHrx23XVX07Rp0+AZkIuA57FvvvnG7LPPPlrZ0bJlSzN58mSt4uGOO+4w119/vVbhqVq1qvnjjz+0Sr4PPvjAHHnkkVpFb+eddzYzZszQCj6Trr2syZw/f37wym+8ePFi/Sfc0KxZM7PffvuZrl27Bi/fZgWwNQKexz777DPToUMHrexo27at+eKLL7SKh1tuucXcfPPNWoVnhx12ML///rtWyTd69Ghz4IEHauWGuXPnmh133FErJI10xfILa1vWixYt0n8ivqSjJyGvW7du5oADDtCn8AkBz2Mff/yx6dy5s1Z2yL/vww8/1CoepHsnXbyw1apVyyxcuFCr5Bs/frxp06aNVm4YMmRI8E0R8SLfxrYNbHmNffr7taV//OMf5v/+7/+CqVz4g4DnsSimyOSbp3wTjRNZfyfr8MJWt27d4JuQL6JYA1qYG2+8MejYwh2y2186qz///PPfH7cNbvIRBatTp04Q8i644AJ9gqQj4Hls2LBh5rjjjtPKjlNPPdW89NJLWsXDJZdcYh566CGtwlO/fn3zyy+/aJV88s1aNt245OijjzZvv/22VrBh3rx5wZ+FbUNc7sckTJe65IQTTgi+BsuRVUg2Ap7HotjFeO6555onnnhCq3iQn3gfe+wxrcLTsGFDM2fOHK2ST9Yb1qxZUys3+NZFDduff/6ZZ3Dbciw36sAu+UHm5ZdfNlWqVNEnSCICnsfkSIiTTz5ZKzsuv/xyc++992oVD3369DFPP/20VuHZaaedzMyZM7VKPpl6c+0sPPHuu++ao446SivkR3aa5hXYtny2fPly/dVwzcEHH2wGDhwYTN0imQh4HpM2vSy+temmm26ysiM1m84880zz/PPPaxWeJk2amJ9++kkrP8jdu659CbroootMv379tPKXbEjYNrBtGeJY9xZ/cqrBK6+8EvxwieQh4Hns2WefNWeddZZWdshmhSuuuEKreJB1g/KTbth22223YOOBT+Rmk5UrV2rlhqQH7TVr1gTT4/LaNsRtGebksF0k35577hmEvBYtWugTJAUBz2P9+/cP1sTZ9Pjjj5vzzjtPq3jo2bOneeONN7QKj+wonTJlilZ+qF27tvntt9+0cod8w7O9fCFTS5YsCcKabEbIDW6547yeMW2KbclZeYMHD9YKSUHA89ijjz5qLrzwQq3sePHFF81pp52mVTzIF7+hQ4dqFR65cmjSpEla+UGmhly9uk4Cnuwy33fffYOung1bdtcKCmlbPpPDe4GieuCBB4ITA5AcBDyPPfjgg+bSSy/Vyg75KVECU5x06dLFvPfee1qFp1WrVmbChAla+UGurotL11JCntwOIB/lUOq87gfNfcnOUJl6XrFixXYft30mO03priFqcoPLxIkTuc82QQh4Hrv77rvN1VdfrZUdcouF7dsziuqwww6zcvtG69atg9sdfCL3Zo4bN04rAFGS8z779u2rFeKuuH6Eh+SYA9tkUX3c2Po8+XgxuIvHpAC+krWnSA4CnscIeKmxdRCrHBniGwIe4I4vvvgiWC6AZCDgeYyAlxpbAc/HDl6FChV0BMAF33//vY4QdwQ8jxHwUkPACw8dPAAIBwHPYwS81BDwwkPAA9wiO8SRDAQ8j9kOeKVKlTJlypTRKj4IeOFhihZwhxxbxI0WyUHA85jtq4ji2L0TbLIIDx08wB1nn322jpAEBDyP2e7gEfAK5mMHr1KlSjoCEKUePXpwk0XCEPA8RsBLja2roHwMeJUrV9YRgKjIdXw27tuGXQQ8jxHwUkMHLzwEPCBaV155pfnqq6+0QpIQ8DxGwEsNAS88TNEC0WjevLm5+eabgysrkUwEPI8R8FLDJovw0MED7OratasZOHCgmTx5srnpppv0KZKIgOcxAl5q6OCFh4AHhG+PPfYwV111lRk/frwZMmSIOeWUU7z8gdI3/A57jGNSUkPACw8BD8iuHXbYwRx++OHm2muvNYMGDTJz58413333nbnrrrtM69at9VfBB8U2/Y+O4ZmOHTuaMWPGaBW+Sy+91Nx///1axccuu+xiZs6cqVV4TjvtNPPiiy9q5Yfff//d1KxZUysA+ZGD4uWWifxe8vdo1113NU2bNtV/Ar4j4Hls//33N19++aVW4bvhhhvMv//9b63iY6eddjKzZ8/WKjxnnHGGee6557Tyg3SR43i7CfxRsmTJ4M9o2bJlt/qY17Mwf03p0qX1/xGQGgKex/bZZx/zzTffaBU+mSKQdSBx06hRo2CaI2y9e/c2AwYM0Mof8k0sJydHK2AzCTXy52PLwJPuONN/LncsAQ+IIwKex/bcc08zadIkrcL36KOPmvPPP1+r+Nhxxx3NL7/8olV45Jqgp556Sit/yPTSokWLtILrJPDI8TaFveQauvxC07bj/N4vVqyY/lsBpIuA5zE5B2natGlahe/55583p59+ulbxUa9ePbNgwQKtwnPuueeaJ554Qit/NGnSxMyYMUMrhKlatWqmTp06pnbt2nmGslRe5cqV0/81AC4j4HnM9jfWN9980xx//PFaxYd8Q1y4cKFW4ZHupnQ5fSM7+7799lutkK4tQ9uWr7yesY4L8AcBz2O21pbl+uCDD4Lt+3FjawrxoosuMv369dPKH506dTKffvqpVsglnWPZFbllQCO0AUgVAc9jdevWNb/++qtW4fvss89M+/bttYqPGjVqmMWLF2sVnosvvtg8+OCDWvnjuOOOM8OGDdPKL3IOoIS43Nduu+329ziu50YCcAMBz2O2gkuuCRMmmFatWmkVH9WrVzd//PGHVuG57LLLzH333aeVP+T8v5dfflmr5JEDrLcMcVu+pCMHAGHgJguPcVVZarjJIlyycD8p5BaBI488Mjjz8a233jLTp08369evN1OmTAmuiJKL3WW39IEHHki4AxAqAp7HbAe8ChUq6CheCHjhivN1ZfJDi9zr2b9//+BMSbmZ47333gsO9D722GODW1AAIAoEPI/RwUsNAS9ccQx4Rx11lHn88ceDY4YGDhxo+vTpY/bee299FwCiR8DzlCy9lKkjm+LawduwYYOOwkXAi4crrrjCvPvuu+a8884z9evX16cA4BYCnqeimJ6N66n0tjp4vp7aH5eAJwFcNoPcc889+gQA3EXA85Rc8m5TXLt3wlbAs9UpdE0cAl6bNm2CjnevXr30CQC4jYDnKTZYpM5WwLP173GN67to5U7UcePGaQUA8UDA8xQbLFJHBy9crnfwxo4dqyMAiA8Cnqfo4KXGZleNgOeeBx54wOy1115aAUB8EPA8RQcvNTYDnq9TtK4GvG7duplLLrlEKwCIFwKep+jgpYYOXvhcDXjXXXedjgAgfgh4nqKDlxoCXvjkz4ZrR8TIdWP77ruvVgAQPwQ8T9HBS43N0OXrFK1wrYvXo0cPHQFAPBHwPGX7HDw6eIXztYMnXAp49erVMyeccIJWABBPBDxP0cFLDQHPDpcCnnTvqlatqhUAxBMBz1MEvNTYDHhM0bqB6VkASUDA8xSbLFJDB8+OKlWq6ChazZs3NwcddJBWABBfBDxP0cFLDR08O1yZEm3btq2OACDeCHieooOXGjp4dlSrVk1H0SLgAUgKAp6n6OClhoBnhysdvE6dOukIAOKNgOcp28ekEPAKxxRttHbaaSfTrFkzrQAg3gh4nmKKNjV08OxwYYr2gAMO0BEAxB8Bz1NM0abGZuhiijZahxxyiI4AIP4IeJ6ig5capmjtcKGD17p1ax0BQPwR8DxFBy81TNHa4coaPABICgKep+jgpYaAZ0fUAW+HHXZw6jYNACgqAp6nbAa8MmXKmJIlS2oVL0zR2hH1FG3jxo11BADJQMDzlM2AF9funaCDZ0fUHTymZwEkDQHPUzbPwYvr+jtBB8+OEiVKRDpFSsADkDQEPE/Z7OAR8FLjcwdPRNnFI+ABSBoCnqeYok0NAc8eAh4AZA8Bz1N08FJjM3T5PEUrotxowQ5aAElDwPMUHbzU0MGzJ8oOnuz0BoAkIeB5ig5eagh49hDwACB7CHieIuClxmbAY4o2uinasmXL6ggAkoGA5ymmaFNDB88eOngAkD0EPE9xDl5qCHj2EPAAIHsIeJ6ig5capmjtiXKKloAHIGkIeJ5iDV5q6ODZE2UHjzV4AJKGgOcpOnipIeDZQwcPALKHgOcpOnipsRm6fJ+ijbKDt2zZMh0BQDIQ8DxlM7jQwUsNU7QEPADIFgKep9avX6+j8LEGLzW+d/CinKJdvny5jgAgGQh4nrLZLSLgpcb3Dp50ekuXLq2VXXTwACQNAc9TTNGmhoBnV926dXVkFwEPQNIQ8DxFBy81TNHaRcADgOwg4HmKDl5q6ODZVadOHR3ZxRo8AElDwPMUmyxSQ8Cziw4eAGQHAc9TtsJEyZIlY31LAFO0dhHwACA7CHieshXw4ty9E3Tw7IpqinbhwoU6AoBkIOB5ioCXGpuhi4AXXQdv/vz5OgKAZCDgecpWmIjzBgvBFK1dBDwAyA4CnqdsbbJgijZ1dPCim6Il4AFIGgKep+jgpcZ2V23t2rU68lNUHbx58+bpCACSgYDnKVsBjw5eenwPeMWLFze1a9fWyh75+8BGCwBJQsDzFB281BDw7GOaFgCKjoDnKTp4qbEd8HJycnTkLzZaAEDREfA8xSaL1NDBs4+ABwBFR8DzFFO0qSHg2ccULQAUHQHPU0zRpsbW5ykXAS+6Dt6kSZN0BADxR8DzFB281NDBs4+ABwBFR8DzkM2uFGvw0kPAi26K9scff+TzDyAxCHgesrXBQtDBSw8BI7oOnqCLByApCHgeooOXOgKefQQ8ACg6Ap6HCHipsx3wOAfPmPLly5vKlStrZdfkyZN1BADxRsDzkM2AxxRteujg/YWNFgBQNAQ8D9HBSx0BLxpRBTw6eACSgoDnITZZpI6AF41ddtlFR3bJYceLFy/WCgDii4DnITp4qdu0aZOO7CDg/aVJkyY6so9pWgBJQMDzEGvw3EXA+0tUHTzx2Wef6QgA4ouA5yE6eO4i4P0lyg7e559/riMAiC8CnodsBbwyZcroCKki4P2FDh4AFA0Bz0O2NlmULVtWR0gV5+D9Rc7Bq1WrllZ2LV26lN20AGKPgOchOnjuooO3GV08AMgcAc9DBDx3EfA2i3IdHgEPQNwR8DxEwHMXAW8zOngAkDkCnodsBTzW4KWPgLdZlB28mTNnmgULFmgFAPFDwPOQrU0WdPDSR8DbLMoOnuC4FABxRsDzEFO07iLgbRZlB0+MGjVKRwAQPwQ8DzFF6y4C3mY1atQwVapU0cq+Dz/8UEcAED8EPA/RwXMX5+BtLcou3pQpU8zcuXO1AoB4IeB5iIDnLjp4W4t6Hd4nn3yiIwCIFwKeh7jJwl0EvK1FvQ6PaVoAcUXA8xAdPHcR8LYWdQdvxIgROgKAeCHgeYiA5y4C3tai7uAtXLiQQ48BxBIBz0MEPHcR8LYWdQdPfPrppzoCgPgg4HnIVsBjDV76CHhbq1+/vqlcubJW0SDgAYgjAp6H6OC5i2NStrf//vvrKBqyk/bXX3/VCgDigYDnIa4qcxcdvO1FHfDWrVvHbloAsUPA8xAdPHcR8LbXtm1bHUXn3Xff1REAxAMBz0OswXMXAW97UXfwxDvvvBPsqAWAuCDgeYgOnrsIeNurXr262XXXXbWKxrJly+jiAYgVAp6HCHjuIuDlzZUuHgDEBQHPQ1xV5i4CXt5cWYf3888/awUAbiPgeYgOnrskfG/cuFEr5HKhg7d69WqmaQHEBgHPQwQ8t3EW3vZat25tSpcurVV0mKYFEBcEPA8R8NzGNG3eXOjiSQdv5syZWgGAuwh4HrIV8IoX549XJgh4eXMh4MnfHbp4AOKA78AesrXJApkh4OXNhY0W4o033tARALiLgOchWx08ZIaAlzcXOnhi1KhRZvjw4VoBgJsIeB4i4LmNgJe3evXqmYYNG2oVrVdffVVHAOAmAp6HCHhuI+Dlz5UungS8GTNmaAUA7iHgeYiA5zYCXv46dOigo2jJmXh08QC4jIDnITZZuI1z8PLXpUsXHUWPgAfAZQQ8D9HBcxsdvPztsssupmXLllpFa/LkyYQ8AM4i4HmIgOe2VatW6Qh5Ofroo3UUPQIeAFcR8DxEwHMbAa9gnTp10lH0hg4dasaNG6cVALiDgOchAp7bCHgF69ixo6lcubJW0evfv7+OAMAdBDwPscnCbQS8glWsWNF07txZq+g9/fTTZuzYsVoBgBsIeB6ig+c2Al7hXJqmFU888YSOAMANBDwPEfDcRsAr3KGHHqojN7zwwgvm008/1QoAokfA85CtgLdx40YdIR0EvMK1aNHCmUOPc9HFA+ASAp6HbAW8FStW6AjpWLlypY5QENe6eHJkyogRI7QCgGgR8Dxka5MFQSUzdPBS41rAE48//riOACBaBDwP2ergEfAyQ8BLzQEHHODMrRa5Bg8ebN555x2tACA6BDwPEfDcRsBLnYtdvPvvv19HABAdAp6HCHhuI+ClrmvXrjpyx8cff2zuvvturQAgGgQ8DxHw3EbAS93BBx/s3G5acccdd5iJEydqBQD2EfA8xCYLtxHw0nPCCSfoyB1Lly4NQh4ARIWA5yE6eG4j4KWnR48eTt1Nm+u1114zAwYM0AoA7CLgecjWAcQEvMwQ8NLToEGDIOS56Pbbbzfz5s3TCgDsIeB5aNOmTToKFwEvM3ze0ufiNK2YOXNmEPIAwDYCnocIeG6jg5e+Ll26mJNPPlkrt8jhx4MGDdIKAOwg4HmIgOe21atXW/s9SpK+ffvqyD0XXXQRu2oBWEXA85Ct8MBdtJmji5e+du3amQsvvFArt8yfPz8IeQBgCwEPoaGDlzkCXmaki1e9enWt3DJ69GjTu3dvrQAgXAQ8DzFF6z4CXmaaNm3q9FTtc889F6zJA4CwEfA8RMBzHwEvc5dddpnZfffdtXLP+eefbxYsWKAVAISDgOchAp77CHiZq1Spkrn88su1ctMee+yhIwAIBwHPQzZ3aBJUMsPnrWjOPPNMc8wxx2jlnsWLF5vWrVubnJwcfQIA2UXA85DNgCdHfiB9dD+LTqZqXfbtt98GG0LGjBmjTwAgewh4CBWdqMzweSu6gw8+2PmQJ7/PHTt2NPfff78+AYDsIOB5iA6e+wh42SHXhLVv314rd8mawe7du5sJEyboEwAoGgKeh1iD5z4+b9lRtmzZIOSVKFFCn7hryJAhQdfxwQcf1CcAkDkCnocIeO7j85Y9nTp1is2F/3/++ae59NJLg27eN998o08BIH0EPA8xRes+Al52XX311eb444/Xyn3SzWvbtm2whnDWrFn6FABSR8DzEB089/F5yz65RWLPPffUyn3r1683DzzwQBD0br31VvPHH3/oOwBQOAIeQkVQyQyft+yTA5DfeustU65cOX0SD4sWLTI33nij2X///c3DDz+sTwGgYAQ8DzFF6z4CXjgaNWpkPv/8c63i5ccffwzu2ZVr2P7973+bH374Qd8BgO0R8DzEFK37+LyFZ6+99jKjRo3SKn6+//57c9NNNwVB79RTTw26kgCwLQKeh+jguY+bLMIlhwuPHTtWq3iSNXoDBw40Xbt2NW3atDF33323mTFjhr4LwHcEPA/RwXMfn7fwyZq2ESNGaBVv48ePD3YKN2vWLDhiZcCAAcHaPQD+IuAhVHTwMkPAs+PQQw81gwcPNuXLl9cn8SZdPTli5Z///GcQ9s444wzzxhtvmJycHP0VAHxBwPMQHTz38Xmzp1u3bua9994zrVu31ifJsGTJEvPCCy+Ynj17BmHvoosuMsOHD9d3ASQdAc9DrMFzHwHPrgMPPNC8//77plevXvokWWbPnm0eeeQRc8QRRwRnAV5//fXmiy++0HcBJBEBz0MEPPcR8OyrWbOmefnll4MjSJJs0qRJ5o477jDt2rUzHTp0MHfddZeZMmWKvgsgKQh4HiLguY+AF50bbrjBvP7666Z+/fr6JLk+++wzc80115iWLVuao446ytx7773m22+/1XcBxBkBz0OswXMfn7donXDCCcGUbefOnfVJ8sl/75VXXhmsRdx3332D4Ce7jDdu3Ki/AkCcEPAQKjp4meEcvOjJQcISei644AJ94o+vv/46mLo9/PDDzS677GLOPvts88orr5g5c+borwDgOgKeh5iidZ/8HvG5i17JkiWDzQn//e9/zX777adP/SIbNJ555plgA0rjxo2Dm0D69Olj+vfvb6ZOnaq/CoBrCHgeYoo2HvjcuePEE08M1qv95z//CTZj+GzixInm6aefNueee65p0aKF2XHHHYMp7X79+rF+D3AIAc9DdPDigYDnFunmyW0REvQk3OAvv/zyi3nzzTfNxRdfHKzfq1SpkunSpYu58847gzt/+RoARIOA5yECXjwQ8NzUtGlT88QTT5gPPvggWKOGra1YsSI4OPq6664zBx10UHBLiJwzKGfvDR061MyfP19/JYAwEfA8RMCLBwKe2yTcSciTsCehD/kbPXp0cPae3Boix89Ip082rzz77LNm8uTJ+qsAZBMBD6EipGSOz108yHStTNvefPPNpl69evoUBZG1eo899pg566yzzB577GGaNGliTjnlFPPQQw8Fa/wAFB0Bz0N08OKBgBcfsvHipptuCo4XIeilb8aMGebVV181l1xySbBLt02bNuaKK64w77zzDn8PgAwR8DxkM+CJ9evX6wjp4Btb/NStW5eglwXjx4839913nznmmGPMTjvtZE4++WTz5JNPmh9//FF/BYDCEPA8RMBLXfHi0f0V4bDj+CLoZc9vv/0WnEN43nnnmd122y24P1euk/voo4+4ZQMoAAHPQwS81JUoUUJH9tHBiz+CXvbJesfbbrvNHHrooUF378wzzzSvvfYaMwXANgh4CF2cv/DK2WdRIeAlx7ZBT26EQNHNnTvXPP/88+akk04KDl2W+3PHjRun7wJ+I+B5yHYHb926dTqKHzp4yKbcoDdhwoRgx6gcF4Ls+Omnn4L7c+VKuSOOOCJYs7do0SJ9F/APAc9DTNGmLsqAxxq85KpSpYrp27dvsJnghRdeMJ07d9Z3kA3Dhw8P1uy1bNky+Cg14BsCnocIeKmLcop2+fLlOkKS/eMf/zAffvihGTZsWHCnK7JHOnjSyZOOXtu2bU3//v31HSD5CHgeIuClLsoOHgHPL3IkyOuvvx5sIjjnnHNMmTJl9B1kw1dffRUcSi1n7BH04AMCnocIeKkj4MG29u3bB10nue3h6quvNnXq1NF3kA0yLS5BT87Wmzlzpj4FkoeAh9AxRZuZZcuW6Qg+at68ufnPf/4TBD35KDWyR87WO+6448yUKVP0CZAsBDwP0cFLHR08RE06eNLJk6AnnT3p8CE7vv/+e3PiiScS8pBIBDwPEfBSR8CDK2RNnqzNkzV6crBvly5d9B0URW7Ie/bZZ/UJkAwEPA8R8FLHLlq4qGfPnsFF/CNGjDCnnnqqPkWmJOSdddZZ5uCDDzZvvPGGPgXijYDnIdsBj4OOM0PAQ2Hkuq6XXnopuL3hwgsvNJUqVdJ3kImRI0cG4fnII480t9xyS3DfLRBXxf73zd7ud3tETtb0LFy4UKvwffrpp+bAAw/UKl4GDRpkevTooZVdpUqVMmvXrtUKKNyMGTOCq7vkJdd4oegqV65sOnToYA444IDga2ft2rW3epUuXVp/JeAWAp6H5IvSb7/9plX4Ro0aZTp27KhVvLz11luma9euWtm3evVqU7ZsWa2A1CxZsuTvoDdx4kR9ijDUrFnT7LjjjqZBgwbBq1mzZubwww83u+22m/4KIBoEPA/VqlXL6h2NY8eONfvvv79W8SLrnOQA2qhIEJdvIEAm5Mt7btCT6UfYI8faHHbYYUHnT6Z8pRMI2MQaPA/ZzvQy1RhXUa7BE6zDQ1EUK1bMnHnmmeaTTz4xQ4YMMd27d9d3ELapU6eafv36mZNOOikIe+eff7754IMP9F0gfAQ8D9kOeFHuRC2qqP+/E/CQLbLUQNaUyprY3r17m+LF+fJvy/z5883jjz8edPL23nvvYAPHmjVr9F0gHPwN9xAdvNRF3cHjNgtkm2x4GjBgQHBw8mWXXWZ22GEHfQc2TJgwwdx8883BumSOZEGYCHgIHQEvc3TwEJY999zT3HfffUHQu/XWW02TJk30Hdjw9ddfB0eyyBS6TOcC2UbA8xAdvNQR8JB0sgP0//7v/4Kg98gjj5h9991X34ENsgFGunmyXg/IJgKehwh4qWMNHnxRsWJFc8EFF5ivvvrKvPzyy8FRH7Bj8eLF5uKLLw6uTJs2bZo+BYqGgOchAl7q6ODBR7169Qp2fL777rvBLlDY8frrr5tDDjnEPP300/oEyBwBz0MEvNSxyQI+O+qoo8yrr74anGV57rnncui2BQsWLDB9+vQJ1uYtXbpUnwLpI+B5iICXOqZoARMcVP7EE08EO0CvueYaU7duXX0HYZG1eZ07dzaTJk3SJ0B6CHgIHR28zBHw4BK5fuvOO+8MNmTcddddpkWLFvoOwjB+/PggXMuNOkC6CHgeooOXOgIesD25z/qqq64Kgl7//v2D67gQjlWrVgXXJcpByUA6CHgesh3w4nxiftRTtKzBg8tKly4drBcbM2ZMsEEgynubk06uOrvtttu0AgpHwPOQ7YAXZ3TwgNSccMIJZtiwYcHO2x49euhTZNMNN9xgHn74Ya2AghHwPETASx0BD0iP7LyVK7g++ugjc8opp+hTZEvfvn2DDRhAYQh4HiLgpY5dtEBm5Dy3gQMHmtGjRwdHfiB75PM5ZMgQrYC8EfCAAtDBA4qmQ4cO5tlnnw1uyDjnnHMi/zuVFN27dzcff/yxVsD2im2ineMdOaw0JydHq/DF+Y+YXCFUo0YNrewrV65csIsOSIqJEyeaZ555JnjxZ7voZsyYYXbeeWetgM0IeB4qU6aMWbt2rVbhi/MfMTlJvmrVqlpFY926dZFPFQPZJneuypVcEvT+/PNPfYpMzJ8/n8OnsR0CnofkaAMJDbbE+Y/YihUrTKVKlbSKxpIlS0y1atW0ApJl5syZf3f0Fi5cqE+RjmbNmgXXyUX9wyjcQsDzkBw8vH79eq3CF+c/YqtXrzbly5fXKhpz5swxDRs21ApIpnnz5v3d0fv555/1KVJ19NFHmzfffDOYoQEEAc9DBLzUSadTOp5Rmjx5smnZsqVWQLItWrTo747e9OnT9SlSIWcRyoHTgGAXrYfI9KlzYccft1nAJzVr1jTXXHNNcA/r/fffz323aZDzB+WuYEAQ8DxEwEudXLNWrFgxraLBUSnwUeXKlc2ll14aBL1HHnnE7L333voOCnLdddcFh0wDBDwPEfDSw2HHQHTkWKcLLrggCHpPPfWUadu2rb6D/EjI4+sGCHgeIuClh8OOgehJJ/3ss882X3zxRXBV14EHHqjvYFtyqPS1116rFXxFwPOQTDsidQQ8wC2nn366+fTTT82rr75qDj30UH2KLT366KPmhRde0Ao+4ju9h7gqKD1RT9GyyQLI20knnWRGjBhhBg0aFBwTgq3dfPPNHDnjMQKehwh46aGDB7hN7mV9++23zTvvvBOM8ZdZs2aZf//731rBNwQ8DxHw0kPAA+KhS5cuQTdPunonn3yyPvWbHB4tU9nwDwHPQwS89LCLFogXWZf3yiuvmFGjRpkzzjhDn/rr1ltvDQ6Qhl8IeB5ik0V66OAB8dSxY0fz3HPPBTtv+/Tpo0/9M2XKlCDkwS98p/cQHbz0RP35YpMFUDRydl7//v3N119/bc455xx96peHH37YDB06VCv4gIDnIQJeeujgAcmwzz77mCeffNLboHfXXXeZjRs3aoWkI+B5yHZgifsXFNbgAcnia9AbO3ZsEPLgBwKeh2wHvPXr1+sonujgAcnkY9CTgDdp0iStkGQEPA/ZDizr1q3TUTwR8IBk8ynoLV26lC6eJwh4HqKDlx5usgD84EvQe/nll81///tfrZBUBDwP2T4mhSnaoqOLB9iTG/RGjhxpunbtqk+T5Z577tERkoqA5yE6eOkh4AF+Ouigg8yQIUOCjlebNm30aTKMHz/ePPvss1ohiQh4HrIdWOK+Bi/qKVpBwAOi06tXr2AH6t13323q1aunT+NvwIABOkISEfA8RAcvPS508FiHB0RLftC78sorzeeff24uvvhifRpvY8aM4Z7aBCPgeYiAlx6maAHkatSokXnwwQfNZ599Znr27KlP4+uZZ57REZKGgOchAl56mKIFsK327dub1157LZjm3HHHHfVp/Hz44YfBOkMkDwHPQ7YDHufgFR0BD3BT7969zccffxys04srunjJRMDzEMekpIeAB6AgTZo0CXbaPv7446ZWrVr6ND7efvtt8+2332qFpCDgeYgp2vS4MEXLJgvAfeedd5755JNPTI8ePfRJfLz55ps6QlIQ8DxEwEsPHTwAqWrRooV54403zEMPPaRP4mHQoEE6QlIQ8DxkO7CwBq/oCHhAvPTt2zfYhBEXU6dOJeQlDAHPQ3Tw0sMuWgCZkGNU5F7buCDgJQsBz0MEvPTQwQOQKbnXdtOmTVq5TdbhzZo1SyvEHQHPQwS89LgQ8NhkAcRbHDp5a9asMW+99ZZWiDsCnodsH5PCXbRFRwcPiDfp5D355JNaueudd97REeKOgOchOnjpYYoWQDacc8455swzz9TKTSNGjDCTJ0/WCnFGwPMQAS89LgS8FStW6AhAnN10002mcePGWrmJLl4yEPA8RMBLD1O0ALJFwp2EPJcR8JKBgOch2wGPc/CKjoAHJIdM03bv3l0r94wePTpWx7sgbwQ8D9HBS48LAW/t2rUmJydHKwBxd+GFF+rITXTx4o+A5yECXnpcmKIVdPGA5DjkkENM7969tXKPdPEQbwQ8D9k+JoUOXnYQ8IBkOe+883TknjFjxpg///xTK8QRAc9DtgMLa/Cyg4AHJMt+++1nOnfurJVbZEnIyJEjtUIcEfA8xBRtepiiBRAWlzdbfPrppzpCHBHwPETAS0/p0qV1FC3OwgOSp1u3bqZSpUpauWXUqFE6QhwR8DxEwEuPKwGPDh6QPPXr13e2i/fNN9+wDi/GCHgeYg1eegh4AMLk8jStbLZAPBHwPEQHLz0EPABhkmnaZs2aaeWWiRMn6ghxQ8DzEMekpKdMmTI6ihYBD0guV7t4BLz4IuB5iA5eeujgAQjbscceqyO3EPDii4DnIdbgpYeAByBs7dq1M3Xr1tXKHT/++KNZvXq1VogTAp6H6OClh4AHwAY5+NhFEyZM0BHihIDnIQJeelxZg8c5eECyuRrwmKaNJwKehwh46aGDB8CG9u3b68gtP/zwg44QJwQ8D9neRcsavOwg4AHJ1qlTJ1O5cmWt3DFnzhwdIU4IeB6ig5ceAh4AW1ycpp07d66OECcEPA8R8NJDwANgS4cOHXTkDjp48UTA8xABLz0cdAzAloMOOkhH7vj999/NypUrtUJcEPA8ZDvgsQYvOwh4QPLJOjzbX6NTQRcvfgh4HqKDlx5XAt6GDRvMqlWrtAKQVB07dtSROwh48UPA8xABLz2uBDxBFw9Ivn333VdH7mCjRfwQ8Dxk+5gUAl72cNgxkHwuBjw6ePFDwPMQa/DS48omC0EHD0g+Ah6ygYDnIaZo08MULQCbGjdubGrWrKmVGwh48UPA8xABLz3y+bL9OcsPAQ/wQ5s2bXTkBtbgxQ8Bz0MEvPRxVAoAm1ybpv3555/Nxo0btUIcEPA8ZDvgxX0NnuCwYwA2sQ4PRUXA8xAdvPTRwQNgEwEPRUXA8xDHpKSPgAfAptq1a5uGDRtq5YYffvhBR4gDAp6H6OClz5WAxzl4gD9c6+L9+OOPOkIcEPA8xBq89NHBA2CbawGPDl68EPA8RAcvfWyyAGAbAQ9FQcDzEAEvfXTwANjmWsCbPn262bBhg1ZwHQHPQwS89BHwANhWqVKl4FYLl9DFiw8CnodYg5c+pmgBRGH33XfXkRsIePFBwPNQyZIldWRHEjp4FSpU0FG0CHiAX1q2bKkjNxDw4oOA5yHbAU+ut4n7FTeuBDyOSQH8QsBDpgh4HipVqpSO7In7NC0dPABRYIoWmSLgeYiAl77y5cvrKFoEPMAvdPCQKQKeh2xP0Yq4r8NzpYO3adMmpmkBj8gO/qZNm2oVvSVLlphFixZpBZcR8DxEBy99rgQ8QRcP8ItrXTyuLIsHAp6HCHjpI+ABiArr8JAJAp6HCHjpc2UNniDgAX5xrYM3bdo0HcFlBDwPsQYvfXTwAETFtYA3ZcoUHcFlBDwP0cFLHwEPQFQIeMgEAc9DBLz0uRTw2EUL+KV48eKmRYsWWkVv1qxZZvXq1VrBVQQ8DzFFmz7W4AGIEl08pIuA5yE6eOljihZAlAh4SBcBz0PSwStWrJhWdhDwsoeAB/jHtaNSCHjuI+B5yvY0LVO02UPAA/xDBw/pIuB5yvY0LR287CHgAf5p1qyZKVGihFbRI+C5j4DnKQJeegh4AKLmUhdv+vTpJicnRyu4iIDnKaZo0yMXfkexOSUvBDzAT6zDQzoIeJ6ig5c+V9bhcQ4e4CfW4SEdBDxPEfDS58o0LR08wE8EPKSDgOcp21O0BLzsIeABfiLgIR0EPE/Z7uDFfQ2eIOABiFKTJk1M2bJltYoeAc9tBDxPMUWbPlfW4BHwAH+51MX78ccfE/HDe1IR8DzFFG36qlatqqNorVy50mzcuFErAD5hmhapIuB5iina9NWsWVNH0aOLB/iJo1KQKgKep5iiTV+NGjV0FD0CHuAnOnhIFQHPUwS89NHBAxA1Ah5SRcDzlNzMYFMSpmhd6uBx2DHgp0aNGpmKFStqFT0CnrsIeJ4qV66cjuygg5dddPAAf7m0Dm/q1Klm06ZNWsElBDxPEfDSxxo8AC5gmhapIOB5ynbAYxdtdhHwAH8R8JAKAp6nbJ+GzhRtdhHwAH8R8JAKAp6nmKJNnxx0bPuA6PwQ8AB/uXYW3nfffacjuISA5ykCXmZc6eLJbRYA/FSvXj1TrVo1raI3adIkHcElBDxPsQYvM65stFizZo2OAPjIpWnan376yaxevVoruIKA5yk6eJlxpYNHwAP85to0LV089xDwPMUmi8zQwQPgAtc2WrAOzz0EPE8xRZsZVzp4OTk5OgLgI9cCHh089xDwPMUUbWaYogXgAgIeCkPA8xQBLzOtWrXSUbQIeIDfatWq5dTtOkzRuoeA5ynba/CSMkXbvHlzHUWLKVoAzZo101H0Fi9ebObPn68VXEDA8xQdvMzstttuwYHHUaODB8ClgCfo4rmFgOcp2wGvePHk/FFzYe0LAQ+AawGPdXhuIeB5ynbAK1WqlI7i77zzztNRdAh4AFxZMpKLgOcWAp6nCHiZO+2008zxxx+vVTRYgweAKVoUhIDnKdubLFy5pD9b+vXrZ/bcc0+t7KODB2DnnXc2pUuX1ip6dPDcQsDzFB28oqlfv37QyYsKAQ+AcKmLt3HjRjN58mStEDUCnqcIeEXXs2dPU6FCBa3sIuABEGy0QH4IeJ6yHfCSNkUrGjdubI444git7GINHgBBwEN+CHiekmNLbJ7nlsQOnth77711ZBcdPACCjRbIDwHPYzbvVU1iB09EFfBkrcvatWu1AuAr1wLe9OnTdYSoEfA8ZjPgJbWDt//+++vIPrp4AFwLeLNnz9YRokbA85jNi6qTGvB22GEH06pVK63sYh0eAFlPLeuBXSFflxYsWKAVokTA8xhTtNnRunVrHdlFBw+AcK2LN2vWLB0hSgQ8jzFFmx3t2rXTkV0EPACCaVrkhYDnMQJedrRv315HdjFFC0AQ8JAXAp7HbAY8WauWVC1btrR+rqCggwdAMEWLvBDwPEbAy56mTZvqyB4CHgBBBw95IeB5jICXPU2aNNGRPevWrdMRAJ/Vrl3bVKtWTavo0cFzAwHPYwS87Iki4K1fv15HAHznUhePDp4bCHgeI+BlTxRTtBs2bNARAN+5FPDka9PPP/+sFaJCwPOYbAyoWLGiVuGig5d9dPAA5Np111115AamaaNHwPOcjdssSpcubSpVqqRVMtHBAxAll26zEEzTRo+A5zkb07Q2r0SLSv369a0flUIHD0AuAh62RcDzXJ06dXQUnqRPz+ay3cWjgwcgl2sBjyna6BHwPCedp7D5EvBsr8Ojgwcgl/ywXrZsWa2iRwcvegQ8z9kIeK1atdJRstkOeHTwAGzJpS4eu2ijR8DzHAEve2weOyMIeAC25FLA++WXX3SEqBDwPGcj4LVo0UJHyVa1alUd2cEULYAtuRTwcnJyzKJFi7RCFAh4nmvTpo2OwtO8eXMdJVuVKlV0ZAcdPABbatSokY7cwDRttAh4nqtevbpp3769Vtm3xx57mMqVK2uVbHTwAETJtZ20TNNGi4AHs//+++so+3yZnhW2Ax4dPABbIuBhSwQ8mH/961+hnYfny/SssD1FSwcPwJYIeNgSAQ/B8R7XXXedVtnVtWtXHSUfHTwAUXLtLDzW4EWLgIfARRddZLp166ZVdhxxxBFmr7320ir56OABiBpHpSAXAQ9/u+mmm7LahfKpeyfKlClj9T5aOngAtuVSwKODFy0CHv4m3baXX37Z1KhRQ59kTnbOZrsjGAc2p2kJeAC2RQcPuQh42EqXLl3MBx98UOTbJ8466yxTt25drfxhc5rW9pQwAPe5FPA47DhaBDxsp3Xr1ubtt982Rx55pD5JT6dOncwDDzyglV9sdvAIeAC2xWHHyEXAQ54aNGhghg4dam6//fa0jjq5+eabzSeffKKVf8qXL6+j8BHwAGzLtaNSFi9erCPYRsBDvkqXLh0cnzJhwgTz/PPPm+7du+s72zvnnHPMxIkTg40aPitVqpSOwkfAA7At1wLeypUrdQTbim36Hx0DKZGFs9J2l/UVom3btlZ3j7rs2GOPDaa3bRg3bpyVu4QBxIvMJKxevVqraL300kvm1FNP1Qo20cFD2mT6tl27dsFaO3kR7jajgwcgak2bNtVR9FasWKEj2EbAA7KIgAcgai4FPKZoo0PAA7KIgAcgagQ8CAIekEW2Ap7cNyk3ZwDAtgh4EAQ8IItsBTy6dwDyQ8CDIOABWUTAAxA1Ah4EAQ/IIgIegKjVqVPHVKpUSatoEfCiQ8ADsshWwKtZs6aOAGB7rnTxCHjRIeABWWQr4LVs2VJHALA9Ah4IeEAW2Qp4LVq00BEAbG/XXXfVUbQqV66sI9hGwAOyqGrVqjoKFx08AAVp0qSJjqLlylpAHxHwgCyqUaOGjsJFBw9AQVyZoqWDFx0CHpBFO+ywg47C07hxY1OhQgWtAGB7BDwQ8IAsstHBo3sHoDDytah69epaRYeAFx0CHpBFNgIe6+8ApMKFLh5r8KJDwAOyyMYULR08AKlo1aqVjqJDBy86BDwgi+SGibCPSmnbtq2OACB/++yzj46iQ8CLDgEPyLIwp2nbtGljmjdvrhUA5I+A5zcCHpBlYU7TduvWTUcAUDAXAt5uu+2mI9hGwAOyLMwO3hFHHKEjAChclCFPvhY2aNBAK9hGwAOyLKyFzb169QqmaAEgVVEGvL322ktHiAIBD8iysALe6aefriMASA0Bz18EPCDLwjjGRMId07MA0hVlwHPhmBafFdv0PzoGkAXLli0LjkvJlnr16plp06ZxYCiAjBQrVkxHdk2aNMnsvvvuWsE2OnhAlsmxAHvssYdWRffII48Q7gBkLIouXsmSJQl3ESPgASHI1jTt+eefb7p3764VAKQvioDH+rvoEfCAEGTjMOITTjjBPProo1oBQGaiCHjHHHOMjhAVAh4Qgp49e+ooM3fffbd5/fXXtQKAzLVr105H9nAoe/TYZAGE5MQTT8wopP33v/8N/lkAyJbGjRubOXPmaBWuli1bmsmTJ2uFqNDBA0KS7rl11apVM8OHDyfcAcg6m1OmdO/cQMADQiJfUI899litCta6desg3B122GH6BACyp0uXLjoK36GHHqojRIkpWiBEX331lTnqqKPMkiVL9MnW5CJu2Sl7wQUXmBIlSuhTAMiulStXBudzbtiwQZ+EY9dddzU//PCDVogSHTwgRPvtt5955plngiC3pfr165vbb7/dfPnll6Zv376EOwChqlChgpVp2j59+ugIUaODB1gycuTI4GOdOnWCBc9ly5YNagCw4eGHHw5+oAzLwQcfbD7++GOtEDUCHgAAHvjuu+9CvR/2gw8+MIcffrhWiBpTtAAAeGDPPfc0e++9t1bZdfHFFxPuHEPAAwDAEwcddJCOsqdp06bm2muv1QquIOABAOCJk046SUfZc+ONN5ratWtrBVcQ8AAA8MT+++9vTj75ZK2KTjp3p512mlZwCQEPAACPnHHGGToqmuOPP97ccccdWsE1BDwAADxy5JFHFrnr1qlTJ/Pmm29qBRdxTAoAAJ6ZNm1asOHit99+0yepk3D3ySefaAVX0cEDAMAzzZo1M9dff71WqSPcxQcBDwAAD8mtFv/4xz+0Ktw111xDuIsRpmgBAPCYXDGWe5VifgYMGGB69+6tFeKADh4AAB6TrtyTTz6p1WZytt0VV1xhJk6cSLiLITp4AADALF++3CxYsMDMnz/f7LjjjqZBgwamTJky+i7ixZj/B5T1Xtz2jmWCAAAAAElFTkSuQmCC;" vertex="1" parent="1">
          <mxGeometry x="345" y="610" width="265.41" height="320" as="geometry" />
        </mxCell>
        <mxCell id="rraX06ucM7AwQiWW7n5B-9" value="" style="shape=image;verticalLabelPosition=bottom;labelBackgroundColor=default;verticalAlign=top;aspect=fixed;imageAspect=0;image=data:image/png,iVBORw0KGgoAAAANSUhEUgAAAY0AAAGiCAYAAAAbXZoyAAAAAXNSR0IArs4c6QAAAARnQU1BAACxjwv8YQUAAAAJcEhZcwAAEnQAABJ0Ad5mH3gAAGbkSURBVHhe7d33k3Rbed79xSsLBAgkcs6HnDPocMg5Z5AwlmyrXNZ/4T/BJf0iUZSrZEmkl2hxyOmQc85RiAwyICFbkrHEez5az/2efZp+5umZ3rvD3te3alX39PT0zOy91n2tO6y1rvKLy2khhBDCBvw/5x5DCCGECxLRCCGEsDERjRBCCBsT0QghhLAxEY0QQggbE9EIIYSwMRGNEEIIGxPRCCGEsDERjRBCCBsT0QghhLAxEY0QQggbE9EIIYSwMRGNEEIIGxPRCCGEsDERjRBCCBsT0QghhLAxEY0QQggbE9EIIYSwMRGNEEIIGxPRCCGEsDERjRBCCBsT0QghhLAxEY0QQggbE9EIIYSwMVf5xeWcex5COET+5V9aM0z/+Z+veH6Vq7T2K79y+bTv8nmfxxB2REQjhEPn//yf1v7xH1v72c9a+7u/6+Lxa7/W2jWv2dq1rtXar//6uTeGMD0RjRAOmZ//vLWf/rS1n/yktR/8oLUf/rCLCLG4/vVbu+ENW7vpTbuIhLADIhohHCr/9E+tff/7rX39661961v9+Y9/3Nr//b/du7judVu73vVau9GNuoBc+9qtXeMarV396r1d9arnPiiE8YhohHBoCD/xJv7n/2zt059u7bLLWvvMZ7q3QTDkM371V7tAXO1qvRGMW92qtTvfubWLLurPCUkIIxPRCOHQ4GEISf3VX7X27ne39upXt/ahD/UEOP7Nv+mPxENinMh47U53au2SS1p74ANbu8c9WrvDHXreI4QRiWiEcGhIdn/ta6199rOtvec9rb3pTT08dSF4Hve+d2t3v3sXjNvdrrVb3KK1G9ygtd/8zS4ghCaELYhohHBoyF184AOtvf/9rX384z1E9Td/c+6bJ6D8Vp5DWMqjXAfhuP/9W7vPfbqACGWFsAVZ3BfCoSGf8aMftfbNb/ZqKXmMTRCqIi5f/GJrH/xga29/e2+ee+2v/7qHvVRkhXBGIhohHBqcf0LBuGvE4CTWhZz8jDAX4fnwh1t74xt7e9/7WvvSl7oobSpGIQyIaIRwaBABiW0VUpqw00mcFGG2IPCTn2ztta9t7RWvaO3Nb27tox/tZbxEJYRTEtEI4RAhHMTiQoJxIXgq/+t/tfbd7/b8yMc+1hsh+fzne4KdsKjYSnozbEBEI4Sl8A//0No3vtHaRz7S2tve1tprXtM9EDkPyffkOsIGRDRCWBIS6xYKvutdXTCsAfH8q1/tq80jHOECRDRCOESEiqptyzBRbiHg//7fvcpKXuNzn+thK4sHeSBf+ELf48oGiSGsIaIRwqFBKGqlt7atcJz083/7t93z+Mu/7Inyt7yltU99qudA5DlCWCGiEcKhUUlw52Ro60pqx0I46jvf6XkNJbnveEdPlH/5y93jCGGFiEYIh4ZyWxsQ2sH2N35j2t1qh16IDRKt4VCSa0U6IfnEJ7p4JNcRzvEr/+Vyzj0PIRwCwkLWUPz93/dHC/GEkXaBXIbddCXMNclxITLbkuSwp3A58TRCODTK03DA0nWus9v9opTlfvvbPa/B23jve3uCnAdSwjVGcj4cLRGNEA4NOQwrwYWltG0X+F0Iv281b8LjEJb6yle6eCjNffnLu4hssnlimC0RjRAOjTLikuAEY9Wgjw3PYZ33IExGOOxd9ZKXtPbHf9zapZf2/ayyb9ViiWiEK1DmyRjYZZXB0CRAL7RhXhgXQiEk5dxvj1N7Guej1nRUXkVS3HoO6zqs5/Ca7ydctSgiGktl3UAnEOLWEqDi2lqdSR12Bw/DgUnyGde61mGd9W2L9VrT4VRB260TlfSRxRDRWCqrIQ/eBIFQs2+lsMSnxih4nfcRdkOJhtP2iIb8xqHwve/1nXKJhv2reBz2rbIpYjyORZCS2yVDKHgXZoq8CiLBCEh+Op/aqmCC4eCeehSOICAMBOHZRcx9adRqcIaYaDv21f3ZF+7v8B77+6zpIG4ETbWXclxrSrwWZk2Oe10yjD9hIBCEgnGycZ0QFaPFAIipMwhCJY4PvelN+7Ght71tfzQbjqEYF0JOnAmFk/ckoeUS9gnRWDUVROI2t2ntgQ9s7SlPae3hD+8eUpg1EY0lY/GYenwGSZLTGQtEozarM4OsvY+ESQgGsbjznVu7971bu8tdWrvZzbqgHFLc/dghGu4N0bCtx0tfun/ROIl73au1//SfWnve8/oiwDBrktNYMowTT+PTn+7i4ayF4e6mkps1p3BQj1JLexIRF/X6DJpHG97JhZgdh3GokNAwLHQIrPubrNuog5zC7IloLBmiwdgLS8lniKGfhHCWun3baUuGvuxlrb3ylV08iI7PSsJ8HBjmyhcdmnCs4u/jkebeL4KIxpIx0O0z5MjPTQa8BKiwCeGQB7EbKk+jNrZTjilxS3x8tveHs1FFCod2HXmeqxFtW55UeDLR7tkT0VgyBjixWA0rnWZma02HiisxdyWYVgx75I2otooROT2Ewj0R8iHAh7oGQj+Rz7r5zfuOvFe/+uF7RWFrIhpLxgAXApHwPitmw3IdtppwHoP9iV71qu59yJecL88RMTk/RINY8AKVQ7vGh4a+c4MbtHaHO/R2k5tkF9yFENFYMgTjGtfos8UhpzHo3ksYanM7W0wQEDujynMIWcl1MILDz82M9PyUp0EwDtXTUE13q1u1dve792q6G9+4b3sSZk9EY8lYX2G2eLvb9TUY1mRsaszP9z4VNFYNE47XvrY3eQ+CosomHsaFkcMQNrRNuetJRA4JC/quf/0uFg9+cGv3u1/3NPa1R1bYKbnLS8bgJxZ3vGNrF13Ua+w3FY2TjL9kuTLcN7yhtde9rrV3vrN7HZLkvhdOhmgofeZlEI5D8TT0Dd6E/AUv4253a+0BD+jehslHWAQRjSXD06hEpkV6Qg5jhI0YvQpbKeUlGI4QFbqSIBfKMoOO17GeCk9ZmU9kD0U03C+CQSx4Fx5vecsuJGP0m3AURDSWjHACoeBtmCnaAmLswS/MIjQlRPXWt/b2nvdceeV5uDJEglhUInxf6x/W9QWTi0c+srUnPrG1e9yj58TCoohoLBmioeJFfFpoSsnkFNjczqrz97+/tcsuu2IVOY8j/DJEo7aoJxz7Wmm96gnqL/JfF1/c2iWXdAHZpvIuHCURjSXDCBAKmw7afO40ifAL4XOGnyVkZQttXgcBUV3lGFGLAh3mc0gL2PYN0SC0Fl0SVnmNfUIYeKMPeUhr97lPz2dkk8rFEtFYMoy6eLQQFY9jzE0HzVJXZ6pi9YygMlwhKof5WNthceC+QjCHiHUZvAx7galE22UYb92kQTntYx7T2vOf34VjtUQ7LIqIxpLhaRAN20BoY3oa56NKcj//+e5pCFnZ+8pajngbHZ6F80v2Eb5bV5zAs1Ba+4hHtHbXuyaPsXAiGktmmNOobSCmYJ0QKScVrpIQt6bjXe/qj2bYS0Zoqg672mfVlJCUkKW1GIRCSbYqO15p8hiLJqKxZMqY8zKEHKbaO2jd7BXCLoRDOe7rX9/3rHLU7KEtZtsFvCwhOgsg63jdfeYNVNLd/vb9gCXnZUh6x8MIlxPRCB2CsY8ZpCohQiEhbtdcYSuLABnN84nNHCEavAuC4ZoI400dKjwJ/eHWt+6CwdtQks0zDYsnvSB0GK19GWkxfGGpr32th6je/e5eYSVMsxRce56XnW21XRYGEKdVgfI178Jqbx6HUFUIlxPRCB0z233G0AmHXXF5G7YdEbISqlkKRHtVNHYl4ut+D0/D8b4Eg3gokgjhciIaoRsooRGlnvsMCfEshKos/HOsLO9jKfkNoqE4wPoMC/p2vTZjeN8luyW+b3GLXiQRwoCIxpJhqGr1se0q9rXyuCAQYvpOBZTXIBr+tiXgXtg6xEJHwkE0di3gNrC04vthD+urvpXaei2EARGNJcMoCYkQjF2HRE6CcFjLYe2G6ip/3z5DZ7uAYBJI/7f1GfvYDdiaHeEoW4Q86EE9LLXPZHw4SCIaS4ZAMMbEQjukUJDZthXRwlRyHbtcFb0P3Av/s/AcT4uA7FrAldlai3GXu/Tt8oWmsl1IWCGisXQYJqER7RC8jILnY1t1pbgMqZzLnHH9heP8z/bnktfw2i6xXkfy+7a37VueE5EQVohoLJnyNOQyDs3TkBTmaTh/Q35j14nhXeP/42kIye3yTHDhJ3kLOwIQDM1eUwlLhfMQ0VgyRKPKPMXQCceh4O8hFmbd4vz7TtJPCY9CefG6YoSpjbc+IAxlq5B73rN7GFNtJxNmQURjyTBWZrhKXWsV8qGEqHg9JRwM6iEJ2li41q6/ZD9h9P+urrqe+n4QJed73/e+/ehWZbZZ+R1OIL1jyRANuYKhaBwawlS8oV3H93cBQXD9ldnKZ+yjYsp2+M7KuNOdegJcaCqiEU4gvWPJMFpVcluhkUPxNAr7YTFic42xu/6S3sqMCeSuxVEoSj7Dmgx7TTnBMbvYhhOIaCwZBoqhYrB4G4dY1mqjPPsezdGQVXjK9ReC42nsUjSU09rd+IY37CEqJzjOWaDDKEQ0lgwDRSwcK6pqh7dxKJ5Gbc1tl9Xb3Ga+yVlFCK69e8Dj2FUFm23OrclwjSW/cxpf2JCIxpIhEGLpjl+1iM6Mdx+iYWa7Ors163Va3BOf2Nr97te/nhv+59pvS5WY3MauVr67nne7Wz8v4w53yFkZYWMiGktGDkNYxApkXoZZ7j5Ew+9c/b22sFDN44hRxs0Jg3PD9SYaKsSsSbFOY1eiIXehzJYgW8yXXWzDhkQ0loxwiKopeY0h+4xpEweH/tznPr2iRwhFqGqOOQ35DNefcBMMIr6rnAZPQ/JbeEo+w75TIWxARGNpmNFbccxIWR8g+boqErvyNlZ/L3G4971be9KT+k6rjNqcjRnvjmh43OU6FPkhOQyrv63LsH1IKqbChkQ0lgZBIBR2UrWgTCJ2X6yKk/UCViU/5CFdPHw9xzUDQlCEgochPLXq6U2FaqlKgGvWZMwx7BcmJaKxRCwokwAnHIzXrtcGrMKQWSNwj3v0/IXErJzGXDfME5Zy/VVNEY5dLarkYdi91lkZRFmpbQinJKKxRHgaQlO2HBce2edGhTbLEyKxjcX979/zGcImZsBzXZlMtF17BQgqpna1QaFrypN7zGN6kYFkeAinJKKxNKpih8FSsWOmu6uKnXU4WpSXYeZrTYbnFvPNGaLBy1Bqy9vbVT7DxoQS3zw6J/S59iGckojG0pBHMLv9/Odb+/Snd78V9xDJV4ZMOEq1lNDUEkImRMNivl0cMKXYQC7DViHyGMJ+ckW8jhywFM5ARGNpiJ+b3Trsh9Gq9Rm7hCFTFWWLEKEpcXZrBqxMXkLpp8T3t7/dPQ1hwilzGoSZYPDgrKwvwQjhjEQ0loZSWyEpbcgu12bwdpR88jCESi66qBuzIbsq+90HKtZ4e1WIMGV4kDdBnF1roSmeXM7LCFsQ0VgK5WEIR9kuZNVQTWmk1wkSkXjQg1p76EN7fF1CfMguRWyXKEJQfFDrM6bGdVRYIAEu/EdAQtiCiMZSqJDI177Wyz13WWa7Kkhmv0JRKqZsYyHWPndcbwnv2lGYt7GLXJJwH9FwVgZPg4c3Zy8uTE5EYymY4Yqhf/azfa+jfWyDroRWPF1ZrS1CxNktMGPY5lpeWxAI27ZYUEm0JcOnhpchHCX5TZiTzwgjENFYCkIhdrP92Mda++pXd7cKeYh1AcpqL7mkh0sYtKVsX8HLIBZKnQmHBX5TQSwsmORhEGaCoUqtchlzDf2FnRDRWArCItZlqJhitHa1CnkIw1XbcauYWtIZDpVTcg+U2U7paRAFa10IhiID4jH3tS9hZ0Q0lgDBYLA01VNCJbveOkT4iadRFVMM2pLOcHDNldc6N0N4cEpPz70lyEKARJqnka3Pw0hENOaMkAiR+OY3exJcTH3KsMhJiKWLqauUIhzWDixpZ1X3gocnNGhhnxzTlPDqJL8JNE9j7jmjsDPSk+aMkIgSW7kMSXCisWuU0vIwiIVmMd9cNyI8CTml2qTQGo0pCxEItAIDhyvx6Fz/rP4OIxHRmDMMk3DIhz7U2mc+08NUU7OaZL3qVXu11MMf3jckXNI6gSptJRhCg7UV+lSL+XgTkt1VLeVwJR6H0FQ8jTAS6UlzRghEOOQjH2ntC1/oC8qmZnUNgASsSqlHPrLvLzXHs77Ph+1ZXHNhKU2ocMpcRlVM8TB4dEKARDuEEYlozBnhKOEQOQ2hkV1XTJn12u9IpZS2tNCUhLRFfBLgGgGZckdb19Zphzw7j6mYChMQ0ZgbZvqMFcEgFGa3u9iuYojZrRmv7c55F3IZwlLCJEtaI+BeuPYEYxcL+uQyFBm47sQ6e0yFCYhozI06L4OHoRGPXXsYkt+1TQjRMOtdYvJb7kIeSbWUtRnChVOKpjJb6zJUTfHqEpoKExDRmBu8DN6FPaYsJGO0dn1ehhk2z4Lx0pTarm5IuASUNxML1WsWVboXqzmfsaiKKUlwjYAs8ZqHyYlozA2ehnCIxHcZqqlDQquf728gGmLrtSZjichn2Dbkk5/sh14ptR1bNAiD3AXPjndBOAiGaqklhQLDzohozA2zW6JBMKzNEKqamlVDSDDMdhky1VJLKvesayEkSLDrLHD5DN8bWzTkieSPFBpU7ihhqTAhEY25oUJHLoNg2K7C12MbqvNhxnv3u/c1GU7iW1J57RDCXYcsySmtLuQb0wMgEPIYziZR2mxdRggTEtGYA0RBSEg4pFYdEwyGS4nnrkTD+oDHP761pz61b1+xhKNbV3GtCbVtW9wD1VOrq7G3uR+rgmNthj2mLr64X/MlbQIZ9kJEYy6ozCEWQiEeJcN3ybWv3cMjdbCS0NQSN8kjCMJSwoMS4LwNgj4Wq4Ijh6G8to5yTWgqTExEYw6YfTJUjJRDlojGlIvIhlQiluHiaSivtX2FEtslbl3Bq5BTsgr//e/vVWxj3wu/41rX6mEphQZyGr4OYQdENOaAMlthqc99ru8xxWjtKiSl1NOmeCqleBrKa5cYlip4FbYM+cQnunC4L2OXPBNqhQbCUbY+X9JhVmHvRDTmgMocYRD7TGlyGWOGRE6CaAiNWMRn1rv0mLp8ho0JCfeQMZPfPA1hKWtg5DMiGmGHRDTmAEPFSMln2GdKxc4UosHwrRo/oqFiSiKWt7HEld9wvW1GKDS47vqPmfz2WYRChZprrmJqTFEK4QQiGseMWLmEt7UAqnVqqwpMEZ7ymaufy3gxXMo9l7ryGwTDPVDqPPYivtXPsqcUT0NOQ2hQTmmK+x3CGiIaxwyBkGj99Kf74y4W8sGsluEa7nO0VA+jUO6sYsrqb9u3jH1CYnkS8kWKDZyXYSFf5Y/iaYQdEdE4ZojEpz7V2nvf2yundnWUK4GQhH3MY1p74AO78Vo67oUiBBVT7kV5fGNBFFxnIu3aK2kWGgxhx0Q0jhlhEAaKp2Eh2a52s3V8qHj6gx/c8xlZUNbDhIoQ7DElTDX2ca5Ewx5eEt8qpngaS65SC3sjonGsVC6DWHzrW/3rKXezrfCH2S2DpVLKrFdMfelrBKz6VjGlvNaj+6AMehtWw00S67ZlIRqEWsltFvKFPRDRODYkvxkmYqFSStWUap11SeoxUebJoxAWsR5DIxi8jqUmv52XIZdBvJU8q2Ib28MYQjSUNys8kAhf3Z4khB0Q0Tg2hKAYKWEpyW8hKsZrahgolVJ2Uy0PY6lbnhcE3PUn3kJSRGMsVicAymoVHBBtK+6Fppa44j7snfS6Y8NMVuz8Qx/qiVfbh0zBaniEEWO05DEe8IAeHlk6RMO6DGeXqJjidYxNbRfimhNryfAs5At7JKJxbFgP8JWv9C0qGKtdnf9t80H7SzFezqBOxVSvVpNPkvy2sNK9GRvhv3vdq7VLLukJ8KVuNx8OhojGsSGfIRQiJCLxOlXF1DA8ImdhM8LakFBuI7PdHo4iGjw/92QK0VB4IH+kzFZIMGW288R447naEki/kqfUlHLXc403a8xvW2ixBRGNY0AH0aEkveUzCMeuPAwehe3OHfKjYsoW6KEPbvkMoiE0ZZNCr22DkOBqWFCFlGo1CXC72S5xu/kloDrO2h5j3K4Ccpbal77Um6iCRwUwhGQXeczzENE4BnQQJbWMk0Y0drEmQ6KVwXI+hlwGT2PpawNqjyleHgGX0zDQxxjEZpurCXBbhEh8uw8OXErye34Yy6rvCILQs92qLdq1u4BH67A890hIqmqS17HaX3bAVX5xOeeeh0NFp9KRPvrR3j7wgf711LdO/PyhD23tiU+84mAlMfYll3pag0EsbBmiGOENb+j3Y0x4GzwMYvHoR7f2u7/b2kMecu6b4agwmTB+5b8UsXg+/Jp3yvjzHoSlTA6FoXzf+DbWPJqseG4SYY831XTGp695/womhC6rTVgGH9E4RNySYZhCx3rzm1t7/ev7OQ1mJKqmprp1ZrOMFpFwfOuzn92T34mn94H+8Y/37UI+9rH+nICMieusYsoiPh7eIx7RF/WF40MY2VithZ9EQeNZmHwIcfJciUsJjFaea9mBsgnEgLfP69RPSkTku+S+5ByN2wl3aYhoHAM62Mtf3tpLX9pP5iMibttUt87eUrUm4wlPaO1pT+udMXQD8Pa3t/bGN/bQgZwGIzBmYlLuQrWURjjcB4YhHAY17oZjsB4Zdl4BT6EEo3KR8l6ea5ULM7bPimIUXgaPtLaX0VfkHgkHQeGd+JtGDGtGNA4dM1slna94RW862tRYbXz/+/dW6zKGCXBdZugJLQnX/3Wva+01r+n3hWEQshpzGFnx/YxndC+Px2HWmH2mDguiIHHNS/DcRE5fEFoSZvK6setR6Il4VAWUr3kdBGOMfkMcTDRM7GoBqEd5MOupFLMYvyOFrCIah4rbohOanUiACU296U3dnR0Txn+1C1hE9pzntPbIR3ajJX665H2OXB+eBMNAKP7f/7e1V72qr80YG+JArF/4wtae+tR4GIeI8FEZfWEnnmZV0im/Fj7WVwqTitWmGtLnjAGPQ1Wd4wrkNoiIiZ/Jh1yk8Vz5yBGIaBwqXFyld1Z9i5vb/lwS3MxlSnQ+MXTJ10c9KqfCYSjgQlI8jUsv7a+NhTBCHa7Eu/vt3+6hwbA7anJg7NVjPR8mtHkSRKLCTQSEeJhEKIsde2J3WoxXAiFk5egCB6SZ/PE+bP1jAlghqzOM7YjGoWI28p73dA/jwx++4kS4SpCNDddVGERCTSxdeERYasIqjKNCWIpgSH6/+939ngg/jIXrXIv4XHdenuKDsFuEnFQzEQZhJK1CSl7XvMeEQauvPVaCe6oxehp4H8JSQlbGtGZHB49eE7Y6Y2FLRONQ0RGFQV784l7SOfVtUr7njIz73OeKdRkWlIU+07Rty9vedsX2LWrlxwovwABWVsu7IxYSmuLUWZexOwhFeQ28CKv8NWEniWx5CULB2yAM5ZkMvRKv+3rflCfBgxWykiy3zor3YXzrY/oX7/aU3kZE4xDR6bi6L3tZay96UTdQRd3gsW+bmOfDHtbXZajYIRgjxUCPHgL+jnf05DfRYEDMLMecURrAT3pSz2OoghEWVMV2hvBBWMF44rm7X8Mmr8BbrKQ20eBV8OiFnQiHe10LOHkbhyAIZ0HYmXfBmzW+ebTGuHGvUvIUOcuIxqGhE5vtiI3+5V+29spX9k5bMCJT3DKdSEhKHF3HkkxLaKpfa7NNi/iIuLwSAzPGfajPkPzmWTzzmb15nms/HsZUhZI8Vuip1k8QBKElyWtCUiKi1c/IJRKeY4bHIaKgyZ0RD56tvMcpjjmIaBwaOnEd4Sr5LX5uxjMFjBYXVidSsfP85/fV39nBtsOAMBrOLZFbslZmzIV8rj9vgldhABPtJz85139MGH6TMN5DVTmVUBhXvHj5Kq8RBbmAEvNqGD4/VvxfqP+DR/uCF/R1WHIdvJENwqERjUNDSee73tW3qLCQj8EyM5oCHYTLajGQ5Kt1AXIZmeV2zEYZFPdBPsOq/G0WY61DeKBySZLfv/VbWZOxKVW6WuWrGq+Cx8AzqJBTNfezPIwSEOKhLRGFLzxbExVlufIevJELENE4JAwCnsVLXtJj6Dqz1yTYxqBmUAVxUCllfyNGS123BUFJvnbU29suRKWUqineH6MzJiXWHl1/ZZER7QtjTAxDTbVwjlchcS0nSOCFmrx3VWCIi0cC4/kSEYLW7+xgbSdrNkD/uwARjUPBbeAim81Kfr/vfee+MSEWjj396X1vqTrgh4tabuzSsbOosJQwod1Hifhw0da28CgIhrCguLKEpOuv4mWJlCnyuPq8+qQENi+CWBAJHkOFn4wfIScL7FS4eT2cH6vEleHydEUY5DdMXC5AROMQMPvR+a3FsK+R2LkwVbEai9wWhkllFJeUayqPIfm9VGO1DrkMwq3sufJKZqRjeX28OV6d628hnzLIpYelCALPoBqBrlCT+6EJOXmtvl+J6gpBERL3alg8EtYjnyYhropKxEFfVBBzASIah4BOTyTsYCuXYVEfAZmKiqM7RtTagFNWT8wahkvYQqnlZZf1iiniMWYIQ228eLLBytPg7WUX2x5mMnli+OUdyoMQZiICwoVeM8kykVL+WuWz1Ybhp3AydsoVbbBanGg85SndJlyAiMYhYDAIgWi2DVGhw9WeAvXYOob1GGa3qnZ0miXvLTXErJZgKHmuFflDr28MVEcpq3XtrY3RzPjmBIPOtHisxksbfl2mh5HnJRAEojEMOREMYUFjRJ6CKIRx4GmomhKSuvji1h7zmD6ZvAARjX1jwBAKazLe+tbuYRhAU82UVEfYW8rsVpmtEImEWPIYHQZL8pt3Yc8vW4eMLeBCgY99bPfyCIeVugbwnGDc9WGtwkgVXiLMVd00fG0YjqrvVfipVmOH8eBpSIKr2KtV4qIQFyCisS/MtFR0MFJWGQuD2MV27OqcIXIWRMLKY8lXHUWoJFyB2awt6Im45Lf7QdjHRMXKv//3XTisBOflzalijeE38SmDL9xUieryJjz6mifhGhsLJi7n806EnsbKJ4UOj1dISoiUh6H83gTyAkQ09oVBYCBZB/DBD7b22tf2cMiQGkRjUEkvsXPGStLLDDdcGSu+//RPW3v1q3uYamx4esIAv//7vdT5kMtr9b0y1tWGxlzzfQZfI66rXoXHylXo7x55DZqvCUrYHRYvaiolVUzaAUJ41CaGqqk2CFNHNPaFQSYsZQ0AT8OmhMoEx2Cd2JjRSnZVTbaZRfaW6tRMlgFTiGCdjG1DGLyxULFWuwgbpM96Vg8PHjL6EE+hwkkqlgiD5jlRqNARr4EgEA192/WspHSJSTUhKz/vM70v7I7aMt126USj9qDSN01gNghTRzT2hcFm5fdb3tLXA8hlcNUZsCkgFM97Xl91fIpZxSJg3Bg8oSkiLvmtzHbMpKtBWYNVeEo+w2A9VHgRQkgaMdVftTL8nnvd91U28Zg9EgShNqHQMi3rHldfC9NCDHi58mkPf3i3A/qjEJUdlk9Rbh/R2BdEwmxW7Fx1jtma2deYt0NHMXuwaIyX8dzndmOlvHaDGcViMBP+3Od6aErj9fl6zHuhtFEBgib5beuWqcucK3RUYaVhSMn/zMB7JI71Xu/zSBiElbQKNXmtvI1h6ImXQTDiNRwG1vsQCInuOs2PMPAyeLo8XPlMOYwzrA2KaOwaA06SkFD8j//RZ7X2l5rCw9BpeBVK6oSlrPhksJa+TYUuPxRNxtBKfPfCWhnlnUR8m6Hh84c/rwDBEa7CUkqc5ZjElqeEUdeIQ1Uz6X/+30pO87B4DUSgqpZ8v36GgFS4qQSohMfXJT5+NhwGcpfEQZ8jDPaU8prJo8a7ICDswxkKMCIau4QwmJXxMpRyMlTvfGcftFNgdisUYvGecjqhEZ0oXBlhQavwX/rSvjkho2lYjDk0XPs/+IMeIpSEPInh773Qc4/VGACNMScK+hpPgHcwbISBYPAO/O8E0kRGP/R+/3/YPyYeNblZfcTwuXvu3hMEXqzQk1CUYhdltASEYIwwYYxo7BKiYeM7uQyxcxvg8TLM3KZAzFx1hCodnYhgmF2EKzBL5vUps9XE5seCJyEsoAhBLfzv/E4PT10IQ9JMXjPbrxBSzfjLaygBKE9B/2I4PNbrPID6+Wp+zvd4GUSivAttqr4YTo/+I/fIKxVmUkzB6Gu+52t5yXqsnQb0N42HYeJISIRCR/JsIxq7xOBVWqukU9zcgJ0KHcmulWa21mWYbSTxfQW6PcNpnyLiLTRlnYwZ+FgQaCu/3QfeHsEQmjoJBp8grIqCMNPQU+AZ8BCslnYmBI9B/5LQJBwlOkTAZ662Ep/h+7SYg8OBR2rXWR4CMbCGogRE3zIhISpeF27yft8fikk9JzT6xQhENHaJwW0R35/8yZVntNzMsW4Do6HjmGUITYmh8zS8Fq6AgRQmVPZs5bctXCTBx4zNu+ZKGiUelTcqcxZrNuArP1AhBoabUJjtE4Z6TiwqdFTf85rwE0/BWhJVX94TDgsz+xJxzb2uVl+vvq5PgCAQDP2Ft8BTIApeJxr6lgQ30SAoDvLy+g6IaOwCg92MUBjk0kv7wjHx5kJnwVluhZ8d/pxOKNnNUGkS4IzVKUrqFgGjXXtLCRUSEF4G4z0WZnlCgooRKhFp4Jv1MQ5m/HXvPfc3mf17rFYeh8cKL/Eo9CkCx1slHuHw4AGUoTdRYNRr1q9qydce67UKO2neTwx4EKshKu/X/KxWn70jIhq7QMLRbFaz+tuMVn37FOhctjp3hKPkq9imjktMwhUI8dj2/MUv7qHCKYYBQWAIyijUzPN8kwRfr2sEZfXrasRH83o4HBj3qmCSUyAAjH8ZeF4CUSlBKBGp5ueHXsqw6T/V6usdTgojGlNjYIuZ24yQcXL+97e+1f7VaI2NjqZygmDUdts6aRmp0HFPhHSECh14JWxY1LXadlj4nAyt46Nm+oxwteHXQ8Ptsb6vgafqNeEieUSTtgotDddOEAqCUa+V11Cfc8BENKZGrHl4mI8wlfBCxS7HQOcV93QKl9CUhKvFfDpsuDLCPLw8W59bWPnKV3ZPsIixXzarhlxoydcefW1iNgwREQAeg/fwJmtc+/l63Xv87NDj9Lw+q0THOD4CIhpTYcYh7swgOe/bGoCpjnA1s7GAT+LbdiG1t5SOHq6MXBJvj/cn+V2n8oXAG1BAwktg7DVhJZ6Cx8pNlLegERnv9x5fV9jQ5KO81uFzbPL8gIloTIUkpa21GSdiITy1ugZAJxnj8pulEAnn/NoeQPP1Ebi6O0cxgnUyNia0kM86mVQeHTfGkRl8tfICPK9QkonVcGbva833NK8TDQLgkTBUhVLlHsr7GHoc3kNQFkREYyxcRp2vMKN94xu7WCjrFENXNjkFOr+FfFZ98zKcwmVtgIETrkA1Es/CLra8P6FCr40ZKgy7Rz+vMFIZ+fIMSiB4AV6r1xl8PzcUgGpe93NaiU+9VmKjEaQSqgUR0ZgKM9o/+7PWXvOaLhhKJae61DqvKo06QrRO4lLuqaMvnbruhNzWLZLfU4UKw+momf5wwoX6evV11P1kyEskqhEFoSIVS772HuODUHhN2bPXy2OocNO63xPWEtEYG7NWC6/U/te5DL6eEh2eSy0Zbk2A0FTtpGr/Ga8vGYJtLYO1GG9/e99niqgXZTAyFHYPY14zfxOcmrnX7J5h92hm7z559N7KKWhl+DWfRUiqlLU8Ap9TwuJ9PnNhHsJYRDTGRPLbdg6Mk4OVCIYZrYqdqTE4DASDwkIylVRCVFaDS5AbOEtFzsIBV3awlcuwqM89OitnERk/k6F2ZfRJZamSzwx9GX5CMMwneCyPwWN5EyUKrq3vVfjIYz33veH3CYXn1cKpiWiMie0dJFdtSqjxNhirXV9isyrehRyHY10duiJUVQNvaXz7210oNPmlL3/5yivyz4prWTNiBkoDb9MEQltazsQ1KaNdhlvzegmn6+F7QkUmN0rDiUOJRTXeAg/aI+/CZ3isfZbCXohojIl9gCS+bXzHOCm3nXJTwpMwAG2LXNuJ2PvIYj8DdWm4F3JL7ktVS1krsy3E2f5A8kkMmRkxw2byQJQ0feCkAoi5eSCugdxBlaHyCrymP1YICoSEGHhPCQbxrea9lXPw6OdcK48ExfOwFyIa2+Ly6cCMEK9CvNwW29uEP8aiQlV2VpUct036ve61jAFX94XB5vEpSnDo1ZgizuDV2hhbRhBkxpBY8GY0JddKr5eCa6CST6vzHISf9EXGngCU91GeCKEtT2TYVl9HvV5fh53zK//lcs49D2dB5zVztRWFGe37399DU0ITxb46OCGzXsSGdwZrVZSY1c194FlgpQDBKXwMtz2/iPqQbf9/HkZtCnmXu/RQi7CgmbXrrQlf1Qy7XvN7h/1jTGqG7rFCZ55XCM11mXKeKBFNOIScCEd5uAo09L8KN7lGRERfrL+3/k7N316iMhSWCMbeiWiclprBDiEY9pXSCIf6f4Oz2GcnZ5xUDxmIBqnBqBm0BuNc8X/z9gi4jSIJxhh5jLqXjCOj6Mx1iyoJBmPIAAqpMI6Mp0QvT8/3GU1G0t82VdiS9+P3+v1VSeS5R/fdRGJVsMbsnwy//9HvIxQEg7gy9mEWRDROy+oAk9T75Cd7KafKHElXA3MoGvtGMrZmaWDUGBePc4WH5UhdW4XwNOSbbOuy7Szb7JdBVFhgFm0hpfCUa+l7mudyHLwOYSuiYebt59wDRtuGlWOe3QH5A+GgCpX5G0pE5BgYdH1TzmUqyhMgHASTB+bvCrMhOY1tIBhEwoIxG9+Z0ZpBTh0COAtmnZK2FgDazNCmhp7PVTh4f87KeN3r+poMp9wpfd72vvDO6jQ++QyVadbEXAj9gucjzyHHYcPEEjLU37U6KRm+XqEmf4OvfU9f0w+9RhjM6gkF8SqPgofhvTwt18Lvtmkj0eKFjonfSzCIl92WHXHreoXZENE4K3WwkgHIy7BlyFjltWUQ1lFG5Sy/h8Ex4yUaj398L8mtGvm5hA8YULN490LFlON1Gemz3pfVe8EoOj73Gc/owkGINyn/5O3VKXwEhIh5LlE/NN5+X91j1ATE7xX+4j0wyt5T3/Po/rm/lWwe/t1e95xI8b54xvqtSrIxj7cdwrt55jNb+w//oed9wmyIaJwVpZTyFwah5LdE6xgx8yHl6peB0LbFZ9pi5FGP6oPZ7rhizwzRseP6MMhlHG19zgscM38gLPWCF7T2whf2lfdDA38aDDuhIqIhYV9eUN3zou47b4FgMMYE5CwQKX1WnsfiUzm4qar8/L2E9T/+x57zMTHx/531eoWDYSbTyx1jNmvltxmbFd9mtVNsRigWLCbsnGkewVm8gdVBygBV4t5iN+GSKQ6E2geMkm3OGUX5JQaxwj/bIrwnzCKHIZchX7GNAfSzPAIiQIh4LHIAte6jWr3uud95VsEAT8XvUgrrccqJgtCYa8+j0jwfY9IT9k5E4ywIM3zrW9048TKEP7bdKmSdARJKeuADu6Ey0M3eTss6R5Lg8YxsEf65z407E98nQkDui/+NmNuKnsCflnX3gjf2yEf2sB7RGDMXRDyI0rpmhq4JO51l0jCE0RZKI0QEaErRkGNR6s37JuS8nIjGLIhonIba+I4xIhRf/ep4h/qvGnfrKSQT5R3Ezj3ftgplaAyJnL+fkfU/iKv7G9aJzLHg/7AuwyFL7o9k71kM1bp7oQKqDrgy82fox4L3MFyfsNrq9W08GxAd3gbvRtKcKE1JrV8yXtyb1VLfcJRENE4Dw8ogKeO0+d26JOK2A5txMAuUaxCW0sTOhUYYKzPFMQwIDGJhNbNBBnasUM6uIeb+B4Khms19qbLSbUSQsWZg3QthQrsGuwfE+xjXuOgz/m59yP/AgxlT/IYQa/fEXmzCuPJMxzwhCf8/EY3TIDar5t9BPhKt63IB2w6MmtXyMO55zyu2N/eaJrZtsJ9FNFb/NkaxqsA0/88xDmwCYUZL0AnHWOsQ3Is63IpwV6XUtmGifSMspQ/5X+r/GWMSMkQ/It7Cn5LvCkfGLu8NeyGisQni4gSDQZI4ZpyEdcZenCVMUTNbe0QxWL42K5QIF6JiuIQYxhjkZoPyGWbnZoKM7TGKhuoj94T3J+Q2VlGCaiUeHvF2L4R05oLQlBXqvFrCsU2CfR36kZyGyYix4nEuubOFE9G4EDq/eKwYuSop8VkDgGEaK0Y7DBsIfzBStQke/A2+RzRsR+H5GKLh7yeGThYkiP6nYxQNYRBFCTxAi9fGqAar0JSktxJl3t4cypIL/4uJSK0et5ZjCky4iIV7ZGIiz6HfHWM/C/9KRONCSBhzrbnZGuOq44+JHAVvgmAIR4mf27OHRwGDzHMD3HuETcb0NAxmQniMnkZ5SmLnQoa8jm3EXKjG/TALr72TNKusjzGPcT6q3Fe40/9GJKeCx2HipYqKeBxr7iz8KxGNC8EIWTlrixCxWQZWaeeYMFK8CNtSqJRirJRYFowVoVBbb3boe2OUL/oMC8zMzIXaxv6/psTfSugIOQ/QfRlCVM8irHUvlDqvuxdzQThKiIrX6v+bUhDlMnixchxVcBFP42iJaJwPBtXMmzFimJzJYCa77bYL64yZ0IAqKWsAnHshzjykSiUJhtmh0MJZ1h+sw/9pZu7zxhCiXWH2KhRVRQmreQxG6UKGad29cG2JxVOe0tpDH9rPI5kjREK/43HwMs4isJviPhAK3oZJmHsX0ThaIhrrYDyFPcT6JVhrkzeGaVvDus6YSW6LnctjSLiu1s/XgFbxUqWSY8TX/R1m7Aaxtk1YZ9cwQO7JRz/aH8+Sx1h3L3hzBNwZGSqmzMTnCE/DAsUqu53S09B/XWdjx+Rk9ZqHoyKisQ4zexUfl13W2lve0uPlqzPZ087M1r2fR+E8BvtAEY1NqnOq6sVq8W0rXgxi3tSxhA3K8MgpyS0pTtDkNLatZFMppbTW6ns5JV4dY3rs5bXng5dRe1kJfY5dPbUKceK1afrwlJ5NmJSIxjrMvhkjm91demmPma+yrXE1SFVJ2Qn0qU/tpZ3i6ReCh2HgqaIyK94m3s4A8y6IhgRlrQo/VMxSeRi1xbhHgkHQT+MlrRos112Z8+Me19qjH92LEcbw5A6ZoWjwpjbpe2eFF2NCZJ3RmNV/YS9ENFZhSHkZjBIPQ0lqGdJtOvqqMZZgrTCINRlmtpuECAx2A3Ds/YOEdw49ES6hKsekIEETPhQjPy2r98J1JNp2/SXkvLgpq4kOAZMWfcesf2qPysRGhZbJjr47dQ4lTEpEY4hQjaSq5Krk97rS2tN09nXvNcsSBnGmBQOl5FF4YNOYshmhGSKRMQCJyFj4e6eMbW8Lb8LiPRst2spFiGobGEvXv7YJqRX3Veo8ZwinZpK0KqJjQiCEU/XZ1VxdOEoiGkOEaJwz8M539pDUaoVSDbRNWfde6yzkMZycd5ZEqxkikTE7NhAZvjEgFocev+cN8QDtYGv191m8jCGMGbEg4tZi8DDmepLhKiUY1cYWDhMQ11L4i4ehgGOsvhr2SkSjYJDsX8TDEJYSK992u/NVGHrVUcJSjggVYjrt7ItoEJoSjbE8DYbD/3uWKqSp8bfJW1gvU3mMIWcJdQiZyAkpQHA/LJw8rYAfMyYJ+g5DzhsYe8LgnrjG+ikxJhpzD/kthIhGJVfNYHkXHomH18aK8RuYchiEgoEyu5UQZPRPa/CEp4RPyuUfayAK/QjH8bbkDsaeeW6D8z8srrRWRkhq1QM8Da434XXtLOLjZWjCUl5fCvpRbVo4xeI+19nnEwzX1u855NBn2JiIhoohCVWJVR5GCcaYLrtZloocCW8z25rVnmV2Z+AZjBKLxGNM0ZDTkfgnHoeyIymBsI2L9RhCh56vXrfT3CcCLmTiHkh+CxHy/oT8loa+5P8WRprCoBMj15q3oc+exSMMB0dEg0DwMBwPSjjMasdECEBMt2LnDJRZ7lkxuKvqxWAfa3bM8DLQvCsCciieBiETjnKPNFuHbOMBum6EW17J/RCimrLc9NDRP/3/U4SnfK4+Sjz8nojGLFi2aIjfm7lKqtZ2FNsmVwuD0KAhEGa1w51rt8lD1OeaMfucMWeIBrXPH9uAnAWiJcciXMb7s+q7TkrcNDzl/1k1VO4HwbA2xv5SS8pjrMOkYwovA669z9f0qYjGLDgA67AHzKRtE2I9hkV8tgkxiyUiY82whY245co4a6dUMfRt3fQaiLyNMROYPne17RP3wv0hFu6R57U76qb3yPuG7/U/uQf2lrImQ+hk6cnZMuZT3O/63AjGrFiuaMhjvP/9rX3wg/25HMaQ03TyGhxDGHb1/7YIsQmhUtsxwyDcfsIxtqex7n/ZB7Y1cW/e9Kaez+BhbMK6v5/RUnjwpCe19shH9rMxpppdHxuuFWHdprjgfNS9WL0f4ahZpmjYnI9n8Y539Jp/+/yvsq3HIXZuRstQWcjH6xiTKcJTh4SwofUyr3tdF41t9paS7LVj7Qtf2NoTntArekKnvLFt+/s6pvzssDeWJxrOj6iwh2opcfJtD1VaHRhCHsJRSmwlXRktnsfYVKx4DPz9vK1q+0Qew32xZoZ4DGfBF5q1rt4L4qoIwVkltmzxfAkrvk9DhTtD2IBliYZyUhVSSjdtec44EZGzss6AqY56xjN6olU5J6M1FWO7/UPRGBreXeFeEPP3vKevy1g9u+Sk/3fd95Q5P/3p/X7w+qxtGfuaHTuuh1CnLWlKTHONwgksSzRsdifU8YEP9Jns2KufzdZUSD3nOf0QH7HzKY3vmB6Bv9OM3voMJa378DZ4fJ/+dA9LqWhbvT+rXsRJuBeE4tnPbu1pT+v5paUnvddBIGo9hdJwwjGW9xpmyXJ6By/jG9/oIakKe8htbMPQgJmt8SyU1lr1rWpqFwuaxhIlguF6MNT7OJCJSMkt8TR4g7YLOY2oX+heCBEm+b0euTF9lWDwjCMa4QTm3zsYP4KhQopBUl6rhFPo4ywVI+tEwAxNotV5DBaMWa29CxjKsapefA4jvY8V4URKnolQ8ACJu0WWFxL1Q7oXxwwxJRyaCr+Ep8IJzF80bHRHMHgXKqYYptMsEFtldWZvgJnJqpB6+MP71hTc/V3gd481e3Y9rIMgGCqVduVpECcCUXt/uVe+3uT+HNK9OGZ4FpLhBCNeRrgA8+4hjAqPwkpveQzCof5/DAwyyUM5jPvdr4dCJMHFhs3YdoFBLqwwhmEsr4VYaLvKaRAou9dak6FAwerv03o5DB2PYp/34pghtq6hRy2EE5i3aAhv2BXVIr63va3HymtV8WlYN5AYqQc/uLUnP7nPapXYWoshnr4rxJ9VBDmQye/d1usoo7FL42HbFvfl7W/vByvJNZ3Eur/NhpD7vhfHjAlDVcytem8hrDBP0TBTNoO10Z2wh4oceQyCcZZBse5nbHRnZmsfI7vX+nrK8tp1qAayd1KVS267FoQxNuOcOkThevImeIHCUfJM7hEv8EKbEa4aNn+z1d48jH3ei2OnxHhVkENYYZ6iwcMQilK66QyG1dnrNoODMWKkaj8pYRAz/X0YKSLh99YuoscSj3bt3RMhQ0e3ymWsLrAc3p/z3S9J74svvkIs5DN4GBGM06Hf6EtahalCOA/zFA0VQOLjb3hDN0w2JxyyOls9H6uDRw7BHlJVymkdBiO1r/p/A9zf5PfXgD8GeBPyGEKGb3lL9wZXudD9EXoiFLYFefSj+8r7CMbp0ceFNfWh6kcRjXAC8xINhka1lAop6zE++cn+/Kz7Fg0Nl4FlzyLehVJO6wB8vc9Eaw34aseAZDsvg1AoUOARWpl/kkj43vD7Fu7ZDkR40PYgBCMhqbNDLHir9kvTnyMaV0bf029NdmzXz56wM/JxKjH1X+e8qPrzNa+51jvZ5WCXhSU7YD6i4cZKevMsbEJoTQaPY5PSzSHrBozBZEttHoaEq5AI0djmMKUxOZZBbrC5L7xAom6Ffi3gWyca6/4vW4NY4f2sZ/XSWiEpxQARjLPhGrt2+rLiDuJxLB7rrnCNiIWcmxycvqvaj6f8mte09qd/2tqf/Elr/+2/9Q022R8TIhMjEyQiclo7dMDMp3e4qZLdl13Wb5qbe5Z9pVaNlxm8nAWRcAaDTe/McOU1DsFQ+Xur8uXQMQszmFSzSX6vhg0vhOtdW4MQDfejKsfC2eG5KaggHBGNX8bEpg4Dk3+zFRE788Y3tvaqV3XR+OM/7qLx6lf33bOdBKq4g3AoyDGB3eWC2QmZR+9gMG1BQTSUb5rNusnbHAsK+QKH4tu3iFBUsnX1tLdjMNj7xsCrRZYGk+eOcj2Juq6MmLLa1XUYjFzWYWyPiZHrSJSXktMw8zep5P3yBHgRbAhhkG9j7PVVhTR17o7nBMNmmkLfJkDsjfcJT9nNwNe+5z3ey6smICIgPkPfFzL3fuEtv39bO7VjrvKLyzn3/DhRRksg3DhJ1be+td+U03gZBsnqZTDjIhhWFQtJ8TAqFHIohkoHvfTSvr5BJxfuOWv+piqRNEaZUJrFbwsvyOAwGA0ehyp97GO93NZg2aT78epsDSJ/wdPwt9lLKmwP4ymsa/wwdo49dp/E7LeB+JhkuW+E3jEBCkcOZQt2+QZiYeLiUeMN8Ib1V16wa2A8sSWVy9BMgLR6Ptzuht0wmRHS9r/yguvRZNM4kws1tjxXvMGmmBQNqXFxgAJ+3KLBINmziMtY53xT89OGPdYhh6FCStLbyXs6/qGdJ30MomHg1QzMveHWu1+bYtA4yMoBSoTbAJO4PZbE/6FDNAi6OL0xZFt6M+oLeYEX4lBFw//rfyMOJi48DE0S2/gRSuJxaF4vQaiQHXNZJrOeD02o/jps8Du9x+4NJqJsi+Z6aLe+da/KPJJzXo47POWGEg2uIDeQW7ltZ+eiu4lyGDq7kEhCUmfDDM1AJBhmrx655SdhoDEsxIGX9/jHt/awh/X7cYtb9O9FMMZlnfGbgjKiY6EqSR8TbTA5IQT6F5vAFpicCCHpeyaUEtfyELxdz60RMuEymeH9Ch05Z8ckh5DyIhh8jVes+Z312rpcoq+97vveq9V72CZhWeHz+ruItNAVL8/3/B9+9oA5Xk/Dn60yQUhK8slN12k2jQ/qwKv/egkGY/XAB/ZZt+fcTfmNQ+OQPQ2CXvt+GaQ8DGEQf59BdT7MUO0ZpYzWoj3hKLMxLv2RzMSOCgaKsdKXeBr6kgnY2J5GbVE/VmiXMdaXiEYJByPP6PrbPYo4CDlpFW7yPn2zRMDPSlB79LowlObrKeCxCGGxNa6FMKv+bcyZGCnp97Xw1oFynJ6Gm8tAmhGowqlE1KaCgXVayXASCSGpWosh5niIgnHIGHC1c62whxmc+2QwnyQYBhOhMmh4eI95TPc0DKQIxnSYQPHetKkqp4y34b2vr4etZvA1Qy/DrtVrw9JXuUsehQIYHkL1tYo8mMHzMOxrZnJp8vLmN/fXfE+imlia+fs8fVZuYyrBgP/TODChEgpju3gc9ff4n7YV7Ik5Tk/Dha1KBhdcJzGDKMoN3vRfY6yIA5GQ9CYYxONWt7ryIPJ5Y7vY2zCmp8FYm9lrZoUMNRE9C2Z2Bi3XmwfI2xAjPh9CTvbPskBPrLeEm7fH6wjTwYgxXgynEImtd5Ssm5VvA0+D8D/iEb002thS0CAfBRM/M3wiQBRKODyvJDPjXWLifcb4sHnNZ2g+z2vDBDXjy8PQPD/UsA+bUguH7W5glwOLVw90snp8omG2IdTx53/e66EZIx1tU1bDUm4MQyUcw422YEwHV80w1axrLMYWDf/7UDQI6Vkw81O/rvEwDOaTkKtw/YWkysMjIPJIZWTCNDDKZtgOviIaqg/F+rctJiEaxOKRj+zjSn+qnJT+YEbPsHvUZ41rRt1r/h6RA4be60TBRESVpL/L1/C3G8slLMNWnolWnsqhmzqTtCc+sbXnPrdfM/2fDTqkierlHE94SkfQ2biRXFGzVzHyEgwXdpOLO+w43HEKXzNbMVjPrYw9dMEYGwPPzM4ANmszyE6D62qQCxkKEbg/XO+TBINhqRmWay9/oREPHkYEYzeYOCkJ5XG75mMZKf2IsZd7FEYygTDRqVb9hFjJp1TjnfJUNREF0QTJah6Qn+MVaSYn+pvIg8R1VT4RF7+3chhsxKELBgil0Jsx6G9m8w7w7z4eT8OFrNJaM2txSp2xqI6+7t/xvdXXK37ODRSSouwSdWa4q26hnx1rII3JmJ6GZL9rwXhbD6HMWG7hNFR4o0KGBvX5kAC0QI9IK8fkXfD4XP+swdgd+jaxZ2gZcdtgvP713ehug0mX8SXEawbNc5fcNVGrsFSFnCoMpXmNseeBeF5eAw9kylzDPlhnl5SX//7vd4/fNfOeA5vAHo9o8DAksYgF8VBWp2OdBTeBgTKjFXd1gxjLQ1uHcSHGFA0DusJEBEMCmiHfFANcOOrFL+4raCuEcD58tng3sfY7xbsJV8ppd4vhXx6B/uQevva1vRJxW0y+eC4eK8lehnIYWvJYZshjhZjqda1EZc64Ns98ZhcNVYzWdfjfD2zCevgxGDMRrme5slzcKt08C1VWW4Kh1M2MeunrMAzICk8RgE3DU9xocWaVK4yO0OGqYOj0jAfvTuiPYIh3u/68DB6HdRkRjP3g3ruPFRLZljJyPk9/0j9qMR2PxqOvCZXvmfzxLjReT3kf+pHP0BfnLhhgg3jZxkmVJh+YYOCwRGPVUPtaiIOHoVxOaErMkqt6IaO27mJTbvFzVTnqxyV+eRjrKnQO8GZNjv/5tP+3pCVPh8fj/qwTc5+pZJZHwf3+t/+2tac+tYuG8IX7EvaDMWaSwHDbPoPBXoKB3hfnG2Mms0Kzik8IxwHn8w4sWLZyMc08eBbi5CqmJL907k069TpPwRJ+noXtKAgHwRCSOZS9pPaJay98YLavrevYq5gF8vokKIUN3SuvDZHs5l3YJsH1FvZ6+tP7Wd62Ofc97wn7w6zeuDLrF6raVjSW5qWfBtdm9foIDYt+GA/s0YHn9A4zPOWiEgyhDvkLYiFEZSZ0WveZAeRJmNUSCmERwiGGvnpz0tmv4CTR4OUJIyjTlEupe6R6xawVZk4GAKEQnyUSHoUFDRBJvoj1/tHn3U/3TSP6GQe7gVjIrVapv1yiSMiBe977F411HVTZmVCHVZJi5UrRNslhMHSrxk6cUDXQU57Sa6AZLlVCFpOtssnsOvTZKBGXY5LHIB5i1UOU0rruFio95zm9SXwLR6WU9rDgWRAOgjFGTmPJbGpDvM/EVRGOMSJc61GOL6JxAVYvMldZpVTVa6vD5mFsAgEailDdGEru5vA0xNUlXVfLao+Rfc0I3SO5DPXxqth4hUOEnMyYeHdmT2ZRQoIEQ27jwEoIF49+VBVLBGRf/WoODK/dMNwrBDsMwwrX8rpNrOrohZrMHrhtOpzRq8NWrbhFPbUvjDJSRuq0yF+Y2WoWjFmDIcm0GhI59gHi76+2K8xKxcBVwEicWuXLs3CN7UjLq6uVwOK0Z11ZHnbDPvrQEjBBEqJVLUgchGgVgljxrbTWGBG+rXLzIQd8P/YjGusuRiW9JVXV+dfiMIbptBePe8dgSbhy+WyLsU4wkJDU6TEbrXJI15RgcKttMPj857f2ghf0hLfr7ntz8OrmjDFQLYwDr6IWD4twPOpRrT3jGa393u+19gd/0B+NF5EP3sWq933A92M/orF6McTIxcV5GUJS8hhCVGaxm+CCM0w+16zXjajEN2OmlE1idm74f8sF3mXIx+9TS66zc7MNjLrewlGKDdwDQu26H2jnD+FE9NsKLcnD6cu2W5HANjHlSSimUdTBU9DkUBXeCD2ZNNmeSKTDmKidFmp/N+FaP3Nktmm3K8L9qqEB8fVwszReBuFQhbOax6ifW/fnuuji6FxBC/XcMJ6GxzkvGiOu1rC4birN5BesYTkLRIBXIJykU3OjCe46VE4ptRU6JPjuCbEmEu5BbX8QDh9hYUUN+pI84hgn97n3OzQrk2Eixrbo25oxohEOIqLxtL1n+D6CYgwQDxMrz2vhnnbkVYO7FY1VdExiIYchHKVJrp4mh+EGEAxiQcVVR4mtu2Fu3pwrdZS6OoFMlZnQHvFdTUpvymlEYxieqpp+hqJmZEQ6onEcTCEac4BgMPDlTTD6vAIi4LnxQiDK6yiPo75PRHxGRQKGbZdRgQnYj2j4lWbEKqPkL+xgaUdUOYzVmfL5Zi0MlJtlMzR1/8IhqhC4gMJRbs7ccb2sxrZBoPJXayU2rTRbZRPRcB8iBvNiKtHQT2oWbiz6PQooxjQ3fsfQKJeRLptRfbXex2Z4X30f9bNavWbiYzwQjGEYqoTDc9/3v3n0Ho1oaDNnetEY3rzCugsGTyjKLJm3ISRllrz659TPDl/3Gk9CTFAISsxQiSfxICJu5BIQIpID4qEZ6Aa9fX3OwiaiEebHVKLBSBuLwpXCOfKTKu54p8bvqk04DWyBRgTM9n1+hYYYfL+77EWJBQHjFejnQ4Go1wmA99X75Uh9r0JQWv0Oz31/9X2+57WZs3tPQwycSBALnVQjIBfaFXUItWfclLKpbxaWsrLSjffvbNMhjwn7cAlLuZ48No0gn4WIxjKZSjQYZgUSEsHCxz7Pot0KPTPOZ6VCogx2eQI12ycgfne9pwy71yu34Ov6vn7vNT/L+PvZ1b+t7MnqI0763kzZnWjonDwJcXfhFMlbBk8OwwxkSF341T/NjICHUduaEw2GTed005cGgZAA57EJU2knHat6EhGNZTKVaDDWqumsTRABqK1nPGIb48ouaCUG+q7meeUSynYQAX+L14kLGzIUjXo9bMw0ouEjVzuFhXtEgoHTKYVUVPvYHmT1T1gnGjoCobAYxqOSNclv1VEEY5uZy7FCNCTD5TOIsBbRCKdhKtFgmC2sfdrT+litSR0jjrOaneHPsRPlSXjUfL7X633swvB92jpRCRuzG0+DS0osGDUxeEbORnenqZKyHkBllKYT1qKYJUMgVkUj4alwGqYUDQs8LfYUQpbf4AmEo2fa6bkOWVuD2BaktgaR9N5UMHQ2Z1/YbNAWFXaoFZ6S1wghHCZm92b0NcOXLwizYDzRWOewDLcG0YSkeBinKQsVirL8vnZJ5WHIaywxHBXCscAeyBvU7rmniSqEg2Y8y1t5iOJ8W4N4/XyIL5qRmJ14lOC2sltCzTYVQicqMcxcQgiHT4mHqIMWjp7xp+s6iFi7+KgqKfFRMXdrCk4SDKhzFldXQvs7v9Pa7/5u3wlS9UUqHEIIYe+MLxpWdFt3YZV37Va7SUiKZ6ES6va370Lx7/5day98YU98S3ivejIhhBB2zriiIW6pjFYeg6chJOXrk+KZQk1CTkJPymltA1JHstpaWMVFwlEhhHAQjCcakt4W6hEK3gXR8PWFdl0lDFaN1gElyvQIRsJRIYRwcIwjGjwJ22TbdNCWFoTDZoQX2nHVsn7hKJ6FslrCYdPBpWw4GEIIR8b2omHPqBKMWultsdBJISmrQ+94x56vIBI2HFRK64jWlNKGEMLBsrmFXrcOowTD/kcqpS67rJfXWtB3EgRDKOpZz2rtcY/rZbV2rM0CoBBCOGg2F43V6iWC8Z3v9DMcrPK2HoO34Uzv4aZktTK0sMLbNiCXXNJDUpLfSmptJBZCCOGgOX0s6B//sXsXREJJ7bve1XdXVWZr88EhvBNrLxwDakfaOlzddiDOvyAg68RinVcTQghh75xeNGxjbpM8QvHWt15xRrXS2lV4GPaqt1eULUCsu7D+QsJbstu2xOvImowQQjhITi8aDlKRw7D5oKS3kNSPf9z3lymIhWT3bW7TtwKp9RcS3x7tWLvU7cxDCOGIOZ3V5mXwKGo/KSu91524J0dhKxBrLiS8H/vYXiFlTUaEIoQQjpbNLLj9pIgD0XBegzUY5zsPgwehfNZWIE94Qt/SXDhKDiP76YcQwlGzmWgMd6okFA6J9zWs3LbJoCZ3Yd2FEJSQlOS317ynTtQK41HVacMWQggTsploMEbCSrYsl7xW8fQbv3HFFiC8Cid0/ef/3Nrv/V5rj350X4tho8EcpTgdw/uSsF8IYQdsLhp11oVqKJVPNhi03sIWIEponQX827/dH3kaVndn7cW0lAdoXUx5fiGEMCGbT08JBy+Dd+FAJCW0FudZze10PSJCKOQtzHyzd9T0yDP99Ke9os0+X7WoMoQQJmJzT0OzUE8ZrUV6jl998pP7qXoXXdQ9kLBb5JYUJqhoIxzrKtlCCGFETudpONfCQUl1DKvwlPJauYvzLdQL0xFPI4SwY5I9PWbkNFS0VU4j26+EECYmonHMVIFCVU/5OoQQJiSiccxUrqlaCCFMTEQjhBDCxkQ0QgghbExE49gRlko+I4SwIyIaxwyhkASvxZQRjhDCxEQ0jhkltsptNaW3KbkNIUxMROOYcfSuM9mtCrfIL4v7QggTE9E4ZpzJ/u1v9/NNfvjD9eebhBDCiEQ0jhkiYQuRn/zk3AshhDAtEY1jpg7GCiGEHRHROGaU2mYL+hDCDoloHDtTndiXSqwQwhoiGsfM2OsyCEW1EEJYQ0QjhBDCxkQ0jpkxz9DgtciPVMvq8hB+GWPu5z/vB6CpXvyHf2jt7/++tb/9217F+OMf97VTSuC/853W/vqve3O65je/2dqXvtTaZz7T2mc/29qXv9y/993vtvaDH/Sf81k++4C9/av84nLOPQ/Hxhve0Np//a+tvfWt517Ygmtdq7Vb3KK1O9+5td/6rdYe97jW7nrXc98Ms0X1HWPGiH3iE6295z2tffjDrf3sZ+fecEac8vn4x7f2vOf1I6FvdKPWrnGN4y/cYNAZdteNgPjaeqky9l6zyLaExJHMJmByjxbjEgiC4jrc+Ma9Xfvarf36r/fHG96wN8dnH+i1iqdxrOigZjw66Rjo2Fe9aj8H/mpXO/7BHcLYMPp1Jj+h1b7+9da++MUuup/8ZBfej32stQ99qLXLLmvtbW9r7e1vb+2d72ztLW9p7TWvae0v/qK1l760tde+tn+fUH/gA619/OOtfeEL3fsgLLyYAySexrHCDX7Tm1p70Yt659yW6163n/1+r3u1dv/7t3bxxa3d7nbnvhlmy9I8DROtmmz536vxDoiCJuxU76vvm6S5JkJQvAjfYzq93+ua5xW+8rUx6r0V+uV1EIQSA54F7/461+mevkeex01v2toNbtC9Da//xm/05v3XvGa/jnskonFs6MA69fe+12cp//2/t/b+95/75hZwie93vz7A733vLh46dJg3+tOSRIPRF04yhrQSCa/JKfzoR93Y+/8r7KQx9N5LPAgMs6m5fkOB8VoJR4kP0dAqbFXRAbtTEwGevevl8dd+rV8nrwtZEQ7j8I53bO32t2/tlrfswuL96/D7/a4JiWgcGzqhjsdFfsc7WnvZy7orvC03uUn3LrR73KN7HTpnmDfHJhpDc1XPh4+rr9VZM4w+UbDtzt/9Xf962OQfJKMr50BcvM/rGgHYNcLFROM2t7liIsf7Jxw8kbqe/sep1mutIaJxbJSbXKLx8pf3Qb4tROMhD+mNaNzpThGNJTC1aDz/+a09+MFXiMa2mDSZsfu7jQWNQWf4TaZ4B+UR1Exf833/UwnG8Gc9Ch3ZKZqXQSR8jtc87hvX7ra37eIhIiCUTDRudrPWbn7zK16TjxzCtE/gdUQ0jo0pPQ1VUyUa8TSWwVSiYZZcovGgB/W+tGrUTou+7+8ahpSMBUaeF8FT4CUw/sTBezXvIRTEpnIZHpk+j/VaCYz3lTBp+0bYiuC6fjwLQiD/cfe792t7t7u1doc79DE8JKIR/hWd2mAp0VCFMYZoGNQVnrrnPXvp7WonDPNjKtHgaSjbfu5zW3vAA/psWLyemDDSjHKZnqHx9ny1+Rv1eeLg7yIAhMNrxIFICDvJ8xGO8ha81yNPYo5cdFEfr/e9bx+z8h48kIlDVRGNY4NocJudo0E0XvKS1j74wXPf3IKIxjKZUjQe85jWnvWs1u5znyuvO+AlMPp+N6GoPs0j8HrN8okDUShPoTyM8giIgdfqZ71X83W932fNFd6HsBWxkO8wbuU8VF+53hMR0Tg2hqKh/ptoxNMIZ2VK0XjoQ1t70pN6+EQ1kN/FiDPwvARG32uMO++gktRe13gQ1kV4nVhUqGXohWjlpZQIVavvzRlehZyHhbiVLOd5CFdNEJrC7lLuYRwMAgOIcHic+6AIu2NMI8Ngq0D62tda+9SnWvvoR1v7yEe6IHmuWQRXjWBZHOe9n/50b7XdhoqmqnzSPCcyPr/yF+WNlCdSAjJHhvfJ/ygsZ1Gga1jXi32YiIjGsWEwmKUZLGaDc43Xht1Shmgs4WDMGC8rnW1385d/2dqll7b2xjf29UXvfndr731vX2NESIjEV77SF7/xonkYRCGTos1wvQgGoeU5yuVMRETj2FgVDbOqELaFZzB83BbGXiUTMSAOdi0Q+iqRMCsub+Lzn+/bcZgx8yLKe+A1hF9m3T1iFwgHz85GiQSXt+H1kYloHBsGYyUAxw5P6YzVwnJwv/UjBmaMe1/eis+Uw6jEdTWvDZvfq3n/sKUfXphVz5CHQTCE7wjvBJPKiMaxYSAZYDX4DK6x8NnVwnLQh4YGfFvSf3bH6rX2tfwOj22icuOIxjFikNfMbKwBasZS2xFoY8W2w+FjAiKJLJzheYz+8WIdjLFbk4AJ7mVE49jQCYZtLHS0WnnqceIFQuFA0IeEOiukIV82pvcadosFlNZoWExp1TgRGZlYhmODcR+2sbDwSoezsybhsANnWAY8DOEMO7wKbYwRogrTcb5xbwwTCov7bGpo/ca2W7esIaIROjwLHoZFWDpaRGMZ8DSEpHgYmuKKMT3YMD7D+2MRpXM2CIQFuTYaJRjXu94VK/BHJqJxjOgMjLrHscJIPoenUaIxUYcLB0zE4rggGLwKG4zasuXZz+6bRFoNbixPRETjGDG4a4CPNdCJhvgnweBxRDSWg3CH+++ejxnyDNPCmyAQzit5whNae+Yzu3jYj2rCSEFE49gQbxaDrq0TVEiMAWNRHowW47Es6n7nvu+O4URNHpGXL9QkkU0Q7Fgr7MSbcHqf8zSq8S5si24HYRtC1hk4ztUw6ZvwPmbDwmPDqk9bM1hZa5+ez32ub9ewLbZZto31U57Sd8rUeXW+MG/kM973vr69h5XaVmbrY9meZnoIhrO/hZJM1ISbPCcgHjVj0NeaIpXhMbDXv34XFZVSHiXBd0BE49hwjsZb3tK3Rbf9gn1mlEtuC9F4znNae/KT+3OdOaIxfyIa+4FA2EWawScEBIRIEIRrXevKAmECZzwOPRDPvV90QOO17MhLjGgcG9/4Rmuve11rb35za1/6Ut/fR9XLtkQ0lsmUolF5Ev2ojGDF2q0FKSPHBPk7VG7VqnSvndU0+Z2McoVaNX8LTvuZ9T/4jHqsz1pl+Nl+v//bo/+z/p9aA+Na8BTqmFafSzgqTFXeRn1dYkIseBR7DCNGNI6Nr361tVe8ou8aanOysTZ2i2gsk6lEg1FjCBlEhvFWt+pxecaPySEO3sMAe27zTR5zlf3Wjgf1WReijLL3MrYMbRlfrYz3pgsXyyz6Of9DNZ/NuPusVdPpa5/vf/J/+r89+trr9TeiREUrIdI8r1YipXm/5ndreySicWzwLv7sz1p7zWu61zHWpoURjWUypWgwsPrRzW/eD/ZyGJPwiv7q88tQ+hsIhsWFJkF14l4tMtxENFAGm3EX0tEq1FN9edOxUu/zcyVA1bx2PtHwN/sbeARCT/6WmRHRODa++MXWXvSi1l7+8nES4EVEY5kw2Aor3vSmfkgST9YW5dt6r4wqwylBe/vbt/bgB7d2//v3rxlWn+89DCyB4GHYYM8eWASlQlSnwft9ZoV5hh6C2Xq9ZxPqfX6O+GnGg8fyWrxn9fNKuPz+mY6fiMaxIfn9R3/U2l/8xfZHcg6JaCwTBptoyJERDQchmYxsKxoMp4StsNTd797aIx7R2kMe0stHCQJvomCCvFbeBcO7jVnyu4V2tHrOyJ+G+v1+ftgu9Fl+zvfrd8+QiMax4fCaP/zDLhpmiWMR0Vgm+pBT9OTIhKf+6q/6PlTbhqcYTDF9eQznVutXj31sDxWFo2aeUjhXKmFoQEfrwxjoR/IISrmVb9vpVj/blvpcR7fW526aTwgHTUTjGDAAue1iviUaM3V9w47Rt/QrolFhqTGMu8/VTyW3Jdd/8IOerwhHTyzPMWAQG4CShbYQGWMmGEIhRGVLmqkw0ZHDiKcxCyIax4KBbRZY5YhmciGMxWkTxafBZ0/5+WGnRDSOAQJBNHgZJRohjIVQZ5WkToHP9jsiHLMgonEMcOuJBTdf27Ycch2EabWFMBYRjNkQ0TgGiAYvw6pZSUuiMYVR95l+V2LPIYTzENE4BhhznoYSxqk8DTNBC5KsdhVOyMwwhLCGiMYxQDQIheopTX5jbE+DUNinx4IsC/v2vClaCOEwiWgcA8JFw5JbojE2RINY2GStdvEMIYQVIhrHwNDTmEo0VLfYjC3bPIQQTiCicQwQjSq5tao2JbdhLFIKG05JROMYqES4VbvaVHtPpXJqeUzRj8KsiWgcAwy5qin799jLR5hqKmJElgUPNjsMhFMQ0TgGbFZou2on9dkx1FqNDPIwBnXoUTzMsCERjWPATPCnP23tO9+5YqfQiEYYA16rIouIRtiQiMYxYCYop6GFMAZEQn9SXBHRCKcgonEMVMVUztAIYyHkqV8RDeIR0QgbEit06NSivohGGBMiIQnOy0giPJyCWKFDxSA2mAlG4s5hbPSv1RbCBkQ0DhlehnUZdfJZBnYYCwv6tFrclwV+YUMiGocKgRBzdiC/clveRjyNMCb6mD4VTyOcgojGIUMofvjD1r7//b4tuuTlVJTxCMugBKNaCBsS0ThUDGphqe9+t7Vvf7sfwDSlaIRlQSgkwoVA9atMGMKGRDQOFYPYgr6vf721r3ylbx8iMT4VV7taP4QpLAN9SfhTzsxjJiRhQyIah4rE5N/8TWuf+1xrn/pU9zam2BIdzs+wJXrO0VgOPAzb0ciZEY6IRtiQiMahYhAb0DwNIaopSm5VztThS9e+dvc2wjKocm7CYYFfRCNsSETjUBEyMKjNAoeM6Qn4rKtfvbXf/M0uHA5hiqexDFYT4clphA2JaBwqqqWszVg14mMObp7GNa7R2nWu04WDaIRloF/JYfE0PWayEDYkonFoCBsQDKEpnsaUMBRCUte8Zm+/+qvnvhFmj8mHviZPluqpcAoiGocG70KllG3QCYeE5VQQDY3HUSuDwzLQzywatQZIOfdURRZhdkQ0Dg25DAv6VEsZ1FMOZrNLLXHt5aGfOQnyW9/qVXpTTk7CrIhoHBpEQvJbVYvw1C6qWko8IhrLQWiq+pnqKZOGEDYgonFoMNyEQsvsP0yFUOQwER7ChkQ0Do3VwZw8Q5iCymXpY8lnhVMQ0Tg0DGKlr9ZPWKFtQIcwNnIYVaVnjzPhqqlI+HNWxCIdGsper3Wtvm5CGWxCB2EK5DEUW3zta72Cyo4DU0GQsuJ8NkQ0Dg3ehS09rnvdLh7CVCGMDdEgFraomXqdRvImsyKicWgQDV7G9a7XNxGcOjxV5bZJui8Ls/8pvYuCWNzoRn0CFOGYBRGNQ4No2NbjBjfoA21q0SAUBGPq2WY4LNzzKfuWxLr+e+tbt3bb27Z2/evHa54JEY1DxIDjbRh0U+4H5fcYyIRKy0xwGVgNPvUKcH1LTs7kh6ch5JqijlmQu3io2BNKeIp4TLUnlEFMmAzqG96wD/KUXs4fi/rkNKasmEJNSjR9LX1rFkQ0DhWzfgadMdd4HGPP1PwOobCb37y1m9yki1QG9nwRgrR9iFXghGNqb0O4kzBpyZnNhojGocKgc+lvdrPWbnGLbtzHDh8RIWKUQ5iWAeNNLGxQaI3GLkRj2MIsiGgcKmb8hOJ2t2vt9rfvseEpEonlWXiMlzFviAaxsIuy8+d3UT0VZkdE45AhGipPiIa8w9iiYfZXlVOa52G+EA2hKaLB28jOtuEMRDQOFbN+OQ35hlvesifEp6huSvhgOZgYCE/ZOoTHEdEIZyCicagQDYlpHoYkNQGJYQ/bQDRUTe0qER5mSUTjkJGktp2I1eFEI8exhm0gEjwMh3vJacTTCGcgonGoVFJaRZPqJuEpj1OQENUyIBJO67NJoc0Kpz6DPsySiMYxYNEdj0OoinDIbYxV6RTBWA6qpRzv+vnPt/aNb/QQVQinJKJxDAhTCVFZs3HjG4+7CM9aDSI0phCFw8T2Ic4D/853UikXzkxE4xiQy7BO46KLWrvNbXop7hgG3mf4bAc+ESYlvRGO+cLTEKJaTYDnnodTENE4BngBthK5wx26cIwlGrwMORPhLy2J9vmicopoCEOurvdJaDKcgojGMUA0hKdsM21LEVt+jAHhsbstweBtRDTmB0EQilI1VWW2Y+9hdhLJl82OiMYxQDQkwG96054MZ+Ct7t2WYXhKm2KbkrBfCIYqKWW2FvXJa+zKiJdgRDhmRUTjGDAzlPyW13CYzTWuMc5ssTyNEg0Ckvj2vCjRkAAnHHa5DWELIhrHAENOJISl5DOEqjxuS3kaRKgS4WFeEA3exc9+1v41PCURvqtZPw9ZzkxLkcVsiGgcExWmUnZb+1Ftk4co0Uh4ar4QCHkMSXBtjLDmJuhbvFgest0MTEoiGrMgonFsGIRyG3a/9chLOCs1sAmGQU2UMrDnBdHgXQhR2Xdql/tNlWjwkCMasyGicWww8DYwJBoW+6l8OivKMAmFzzTAw/yoyqnvf7+1H/6wi8euwlMlGpoQ1S6rtsJk5C4eGwai8JT1GspvTyMaqzM9oYoSjTBP3GNnZ9g+xEpwuY1diEZ5sfpniUY8jVkQ0Tg2DERlt2fxNFaNhcEsvGVAh3ninq8mwneFCYmwlJbKvNkQ0Tg2GHiiYTsRHsdpk9cGrgGsAou3YqV5QlPzxf1mtCWjTRJ2ea/9bk1YKoIxGyIax0aFk5zox+Cvegk1UM+H71nvcde7tnbPe3ZvxWeGeeLeSkSbYOgvPNNdGXBejiavsouQWNgJEY1jhVgw/oyBmWRRA/UkbLPOy7CXFa8lpbbzxSxfCNK6HiXau65i2qQ/hqMionHMMAR3u1trD3hAL79dt2Zj1UCY9TEikuhCXMJUEY354v4LSbnnPNRd3mtiob9VC7MgonHMmDkKMV1ySQ83iVtvgnCFsBThIDwJT80XorHvBZy79GzC5EQ0jhnG/3a3a+0e9+iPwk6rrIYGhLPkQ4iG0BShSf38fHFviYUJxq4X2RGoEiveTsRjFsRaHDOSmrwFuQkluETgpBXihIJHcsc79ue8DLPQiMZ8cW9VTQlDagz4LiAQBIpY6Wf6ZfrZLMhdPGYYfAOS5+CsjTpvY12YSuXMne/c2r3v3UXD1+tyIGFeMNQmF7XJ5S49DcUavBv7pRGreBqzIKIxBwxKnsaDHtTaox7V2iMe0dpDHtIFQs7D6w97WGsXX9za/e7X32swh/lDNBhvgqGfmCjYPmYXCE/53ZrnEY1ZcJVfXM655+FYcQt/+tO+t9CPftTad7/bH60EZjSEBpzDwSMRwhIy4I0kAb4sPvSh1v7wD1t7yUvOvXAOxnxsM0CcHvvY1p7znNYe+MC+XxqPZx+J+DAqEY254XY6cEezZUQlI8W1iUVWfy+Xz3ymtT/6o9b+/M+nP4yJaDz+8a09//ldNExW9MNMVI6ehKfmhlkjr6JKajVrOLy2KhgEJnOG5SCfwXjLfXk+ZWJaP6zwlN9FRBKemgURjbkiJCUE5fF8A9ZrGcjLgQE3mVAQIa+16bqes1Je7kl9MBwdEY05YnAasAaqRyGBDNjA07ROx5oe4nGaHZLPwlA0eDXpg7MgohHCUiAawpRClsSDQZ+K4QFfPJwwGyIaISwFnqddA3gZNruUa5iK8nan/B1hL0Q0QlgKPA2L/Eo0pvQA5EuEv1KtNzsiGiEshfI0VNMRj3Xlr9vmHeQueBfCX0q8eRthVkQ0QlgKDDrhkNcgHusS4duWYPNeCJLSXivQIxqzI6IRwtKQnCYatUMA72KsyiaiJDTFyyBKWcw3OyIaISwRe1HZHdneZBb7jVVJxbOoNUI+c8oFhGEv5I6GsESEjm5/+9bufvdxRYOnYcsaG2ISj3gasyOiEcISKdFwgJd1G2NVOVV4iidDPJLTmB0RjRCWCMNuZfhd7tJFY6zyW+JDkORMiEY8jdkR0QhhifAIJKtrdTjPYAxKNFRQEaZ4GrMjohHCkuENKMEdrt3YppKKaBAjiwflNSIasyOiEcKS4XEIJd3qVq3d5jZdOLYx9ESD10KIIhqzJKIRwpJh1IkGwZDj4CFsk4cgQsJT5Wn4OsyKiEYIS4d3Yc2GczYs9ttGNPws0eBpTH3QU9gLuaMhLB05CF6GElyisU35rfUeREOuJMySiEYIS0bSW5WTRPgtb9nDShblnYXacyqCMWsiGiEsGaIhryF5rfS2EtinQRiqjpG1unzqEwHDXolohBA6hIOnccMbdq9BEnuT8lsLA29ykx7esu7jrJ5KOAoiGiGEDuMvvHTRRb2aSq5jE9EgLkSGYPj5iMasiWiEEDoqnRh9W4vc8Y49VHUa0RCi4qXkiNdZE9EIIXSIBqNPMHgbPI1N4FkIa5WnMdaOueEgiWiEEDo8Bkbfmg0JbWLwz/987psnoFpKTsPPeEx4atZENEIIHQvzlN/aUkT57UmeRoWthntXOQkwBy/NntzdEMKVsbhP+a0wlfzG+cJN8hgqprxPPoPghNkT0Qgh/DJyFJdc0tpzn9vawx/+y1un/+IXPYdx8cWtPehBXTTCIohohBB+GQv87nvf1p70pC4a8hVDeBVyHwTj3vfuIvMv/3Lum2HOXOUXl3PueQghXAHT8JOftPaRj7R26aWtffzjrf30pz18xcvgiRCU29625zY2XQwYjpqIRgjh/Pz8561997utfeUrrX3ve6390z/1RLdNCSXMNQlzW5FEMBZAa/8fY6g03Skngn8AAAAASUVORK5CYII=;" vertex="1" parent="1">
          <mxGeometry x="650" y="596.3" width="307.44" height="323.7" as="geometry" />
        </mxCell>
      </root>
    </mxGraphModel>
  </diagram>
</mxfile>
